M48
;DRILL file {KiCad 4.0.2+e4-6225~38~ubuntu15.10.1-stable} date lun 30 may 2016 16:09:55 CLT
;FORMAT={-:-/ absolute / metric / decimal}
FMAT,2
METRIC,TZ
T1C0.813
T2C0.900
T3C1.016
%
G90
G05
M71
T1
X212.001Y-74.524
X212.001Y-77.064
X212.001Y-79.604
X214.541Y-74.524
X214.541Y-77.064
X214.541Y-79.604
T2
X175.323Y-70.167
X184.912Y-58.674
X187.452Y-97.536
X187.96Y-60.198
X192.786Y-58.166
X195.58Y-70.104
X196.85Y-76.708
X200.66Y-74.422
X220.154Y-57.531
X224.726Y-60.198
T3
X174.917Y-54.204
X177.457Y-54.204
X178.981Y-102.464
X179.997Y-54.204
X181.521Y-102.464
X182.537Y-54.204
X184.061Y-102.464
X185.Y-63.
X185.Y-93.5
X185.077Y-54.204
X186.601Y-102.464
X187.54Y-63.
X187.54Y-93.5
X187.617Y-54.204
X189.141Y-102.464
X190.08Y-63.
X190.08Y-93.5
X190.157Y-54.204
X191.681Y-102.464
X192.62Y-63.
X192.62Y-93.5
X194.221Y-54.204
X194.221Y-102.464
X195.16Y-63.
X195.16Y-93.5
X196.761Y-54.204
X197.7Y-63.
X197.7Y-93.5
X199.301Y-54.204
X200.24Y-63.
X200.24Y-93.5
X201.841Y-54.204
X204.381Y-54.204
X206.921Y-54.204
X209.461Y-54.204
X209.55Y-93.408
X212.001Y-54.204
X212.09Y-93.408
X214.63Y-93.408
X217.081Y-54.204
X217.17Y-93.408
X219.621Y-54.204
X219.71Y-93.408
X222.161Y-54.204
X222.25Y-93.408
X224.701Y-54.204
X224.79Y-93.408
X227.33Y-93.408
T0
M30
