G04 #@! TF.FileFunction,Legend,Bot*
%FSLAX46Y46*%
G04 Gerber Fmt 4.6, Leading zero omitted, Abs format (unit mm)*
G04 Created by KiCad (PCBNEW 4.0.1-2.201512121406+6195~38~ubuntu15.10.1-stable) date lun 14 dic 2015 21:42:08 CLT*
%MOMM*%
G01*
G04 APERTURE LIST*
%ADD10C,0.150000*%
G04 APERTURE END LIST*
D10*
X267435700Y-127046100D02*
X267435700Y-128046100D01*
X265735700Y-128046100D02*
X265735700Y-127046100D01*
X248512700Y-127046100D02*
X248512700Y-128046100D01*
X246812700Y-128046100D02*
X246812700Y-127046100D01*
X260464300Y-127660400D02*
X263639300Y-127660400D01*
X263639300Y-127660400D02*
X263639300Y-129438400D01*
X263639300Y-129438400D02*
X260464300Y-129438400D01*
X260464300Y-123088400D02*
X263639300Y-123088400D01*
X263639300Y-123088400D02*
X263639300Y-124866400D01*
X263639300Y-124866400D02*
X260464300Y-124866400D01*
X254368300Y-129692400D02*
X260464300Y-129692400D01*
X260464300Y-129692400D02*
X260464300Y-122834400D01*
X260464300Y-122834400D02*
X252590300Y-122834400D01*
X252463300Y-122834400D02*
X252463300Y-129692400D01*
X252590300Y-129692400D02*
X254368300Y-129692400D01*
X266790466Y-125308143D02*
X266838085Y-125355762D01*
X266980942Y-125403381D01*
X267076180Y-125403381D01*
X267219038Y-125355762D01*
X267314276Y-125260524D01*
X267361895Y-125165286D01*
X267409514Y-124974810D01*
X267409514Y-124831952D01*
X267361895Y-124641476D01*
X267314276Y-124546238D01*
X267219038Y-124451000D01*
X267076180Y-124403381D01*
X266980942Y-124403381D01*
X266838085Y-124451000D01*
X266790466Y-124498619D01*
X265838085Y-125403381D02*
X266409514Y-125403381D01*
X266123800Y-125403381D02*
X266123800Y-124403381D01*
X266219038Y-124546238D01*
X266314276Y-124641476D01*
X266409514Y-124689095D01*
X247829366Y-125308143D02*
X247876985Y-125355762D01*
X248019842Y-125403381D01*
X248115080Y-125403381D01*
X248257938Y-125355762D01*
X248353176Y-125260524D01*
X248400795Y-125165286D01*
X248448414Y-124974810D01*
X248448414Y-124831952D01*
X248400795Y-124641476D01*
X248353176Y-124546238D01*
X248257938Y-124451000D01*
X248115080Y-124403381D01*
X248019842Y-124403381D01*
X247876985Y-124451000D01*
X247829366Y-124498619D01*
X247448414Y-124498619D02*
X247400795Y-124451000D01*
X247305557Y-124403381D01*
X247067461Y-124403381D01*
X246972223Y-124451000D01*
X246924604Y-124498619D01*
X246876985Y-124593857D01*
X246876985Y-124689095D01*
X246924604Y-124831952D01*
X247496033Y-125403381D01*
X246876985Y-125403381D01*
X251026681Y-125501495D02*
X251836205Y-125501495D01*
X251931443Y-125549114D01*
X251979062Y-125596733D01*
X252026681Y-125691971D01*
X252026681Y-125882448D01*
X251979062Y-125977686D01*
X251931443Y-126025305D01*
X251836205Y-126072924D01*
X251026681Y-126072924D01*
X252026681Y-127072924D02*
X252026681Y-126501495D01*
X252026681Y-126787209D02*
X251026681Y-126787209D01*
X251169538Y-126691971D01*
X251264776Y-126596733D01*
X251312395Y-126501495D01*
M02*
