G04 #@! TF.FileFunction,Copper,L1,Top,Signal*
%FSLAX46Y46*%
G04 Gerber Fmt 4.6, Leading zero omitted, Abs format (unit mm)*
G04 Created by KiCad (PCBNEW 4.0.1-2.201512121406+6195~38~ubuntu15.10.1-stable) date lun 14 dic 2015 21:42:08 CLT*
%MOMM*%
G01*
G04 APERTURE LIST*
%ADD10C,0.150000*%
%ADD11O,3.962400X1.981200*%
%ADD12O,1.524000X2.540000*%
%ADD13C,1.524000*%
%ADD14R,1.727200X2.032000*%
%ADD15O,1.727200X2.032000*%
%ADD16R,2.032000X1.727200*%
%ADD17O,2.032000X1.727200*%
%ADD18R,2.032000X2.032000*%
%ADD19O,2.032000X2.032000*%
%ADD20C,1.800000*%
%ADD21C,0.600000*%
%ADD22C,0.750000*%
%ADD23C,0.254000*%
G04 APERTURE END LIST*
D10*
D11*
X272800000Y-133000000D03*
X272800000Y-128000000D03*
D12*
X273799300Y-145440400D03*
X271259300Y-145440400D03*
X268719300Y-145440400D03*
X261099300Y-145440400D03*
X263639300Y-145440400D03*
X266179300Y-145440400D03*
X256019300Y-145440400D03*
X253479300Y-145440400D03*
X250939300Y-145440400D03*
X245859300Y-145440400D03*
X243319300Y-145440400D03*
X273799300Y-97180400D03*
X271259300Y-97180400D03*
X268719300Y-97180400D03*
X266179300Y-97180400D03*
X263639300Y-97180400D03*
X261099300Y-97180400D03*
X258559300Y-97180400D03*
X256019300Y-97180400D03*
X251955300Y-97180400D03*
X249415300Y-97180400D03*
X246875300Y-97180400D03*
X244335300Y-97180400D03*
X241795300Y-97180400D03*
X239255300Y-97180400D03*
X236715300Y-97180400D03*
X234175300Y-97180400D03*
X248399300Y-145440400D03*
X231635300Y-97180400D03*
X229095300Y-97180400D03*
X240779300Y-145440400D03*
X238239300Y-145440400D03*
D13*
X273799300Y-117500400D03*
X276339300Y-117500400D03*
X273799300Y-120040400D03*
X276339300Y-120040400D03*
X273799300Y-122580400D03*
X276339300Y-122580400D03*
D14*
X246618500Y-136055000D03*
D15*
X249158500Y-136055000D03*
X251698500Y-136055000D03*
X254238500Y-136055000D03*
X256778500Y-136055000D03*
X259318500Y-136055000D03*
X261858500Y-136055000D03*
D14*
X246618500Y-105555000D03*
D15*
X249158500Y-105555000D03*
X251698500Y-105555000D03*
X254238500Y-105555000D03*
X256778500Y-105555000D03*
X259318500Y-105555000D03*
X261858500Y-105555000D03*
D16*
X240906300Y-137900000D03*
D17*
X240906300Y-135360000D03*
X240906300Y-132820000D03*
D18*
X265099800Y-139369800D03*
D19*
X265099800Y-136829800D03*
D20*
X264350500Y-101396800D03*
X252717300Y-103200200D03*
X239496600Y-117462300D03*
X268185900Y-117500400D03*
X262420100Y-120040400D03*
X262242300Y-115671600D03*
X246900700Y-102793800D03*
X244081300Y-138836400D03*
X259118100Y-140703300D03*
D21*
X268719300Y-98526600D02*
X268719300Y-97180400D01*
X265798300Y-101447600D02*
X268719300Y-98526600D01*
X264401300Y-101447600D02*
X265798300Y-101447600D01*
X264350500Y-101396800D02*
X264401300Y-101447600D01*
X263639300Y-98806000D02*
X263639300Y-97180400D01*
X261048500Y-101396800D02*
X263639300Y-98806000D01*
X254520700Y-101396800D02*
X261048500Y-101396800D01*
X252717300Y-103200200D02*
X254520700Y-101396800D01*
X239496600Y-117462300D02*
X236715300Y-114681000D01*
X236715300Y-114681000D02*
X236715300Y-97180400D01*
X268185900Y-117500400D02*
X273799300Y-117500400D01*
X262420100Y-120040400D02*
X273799300Y-120040400D01*
X277964900Y-118414800D02*
X276339300Y-120040400D01*
X277964900Y-116789200D02*
X277964900Y-118414800D01*
X276974300Y-115798600D02*
X277964900Y-116789200D01*
X262369300Y-115798600D02*
X276974300Y-115798600D01*
X262242300Y-115671600D02*
X262369300Y-115798600D01*
X246875300Y-102768400D02*
X246875300Y-97180400D01*
X246900700Y-102793800D02*
X246875300Y-102768400D01*
D22*
X245859300Y-140614400D02*
X245859300Y-145440400D01*
X244081300Y-138836400D02*
X245859300Y-140614400D01*
D21*
X256019300Y-143802100D02*
X256019300Y-145440400D01*
X259118100Y-140703300D02*
X256019300Y-143802100D01*
D23*
G36*
X276402800Y-95836006D02*
X276402800Y-107213400D01*
X276412806Y-107262810D01*
X276439997Y-107303203D01*
X278942800Y-109806006D01*
X278942800Y-142974794D01*
X276439997Y-145477597D01*
X276412134Y-145519611D01*
X276402800Y-145567400D01*
X276402800Y-148043900D01*
X222162906Y-148043900D01*
X221475300Y-147356294D01*
X221475300Y-145880543D01*
X222046415Y-145880543D01*
X222384058Y-146697700D01*
X223008711Y-147323445D01*
X223825278Y-147662513D01*
X224709443Y-147663285D01*
X225526600Y-147325642D01*
X226152345Y-146700989D01*
X226491413Y-145884422D01*
X226492185Y-145000257D01*
X226448727Y-144895079D01*
X236842300Y-144895079D01*
X236842300Y-145985721D01*
X236948640Y-146520330D01*
X237251472Y-146973549D01*
X237704691Y-147276381D01*
X238239300Y-147382721D01*
X238773909Y-147276381D01*
X239227128Y-146973549D01*
X239509300Y-146551250D01*
X239791472Y-146973549D01*
X240244691Y-147276381D01*
X240779300Y-147382721D01*
X241313909Y-147276381D01*
X241767128Y-146973549D01*
X242049300Y-146551250D01*
X242331472Y-146973549D01*
X242784691Y-147276381D01*
X243319300Y-147382721D01*
X243853909Y-147276381D01*
X244307128Y-146973549D01*
X244589300Y-146551250D01*
X244871472Y-146973549D01*
X245324691Y-147276381D01*
X245859300Y-147382721D01*
X246393909Y-147276381D01*
X246847128Y-146973549D01*
X247129300Y-146551250D01*
X247411472Y-146973549D01*
X247864691Y-147276381D01*
X248399300Y-147382721D01*
X248933909Y-147276381D01*
X249387128Y-146973549D01*
X249678630Y-146537287D01*
X249697241Y-146600341D01*
X250041274Y-147026030D01*
X250522023Y-147287660D01*
X250596230Y-147302620D01*
X250812300Y-147180120D01*
X250812300Y-145567400D01*
X251066300Y-145567400D01*
X251066300Y-147180120D01*
X251282370Y-147302620D01*
X251356577Y-147287660D01*
X251837326Y-147026030D01*
X252181359Y-146600341D01*
X252209300Y-146505677D01*
X252237241Y-146600341D01*
X252581274Y-147026030D01*
X253062023Y-147287660D01*
X253136230Y-147302620D01*
X253352300Y-147180120D01*
X253352300Y-145567400D01*
X251066300Y-145567400D01*
X250812300Y-145567400D01*
X250792300Y-145567400D01*
X250792300Y-145313400D01*
X250812300Y-145313400D01*
X250812300Y-143700680D01*
X251066300Y-143700680D01*
X251066300Y-145313400D01*
X253352300Y-145313400D01*
X253352300Y-143700680D01*
X253606300Y-143700680D01*
X253606300Y-145313400D01*
X253626300Y-145313400D01*
X253626300Y-145567400D01*
X253606300Y-145567400D01*
X253606300Y-147180120D01*
X253822370Y-147302620D01*
X253896577Y-147287660D01*
X254377326Y-147026030D01*
X254721359Y-146600341D01*
X254739970Y-146537287D01*
X255031472Y-146973549D01*
X255484691Y-147276381D01*
X256019300Y-147382721D01*
X256553909Y-147276381D01*
X257007128Y-146973549D01*
X257309960Y-146520330D01*
X257416300Y-145985721D01*
X257416300Y-144895079D01*
X259702300Y-144895079D01*
X259702300Y-145985721D01*
X259808640Y-146520330D01*
X260111472Y-146973549D01*
X260564691Y-147276381D01*
X261099300Y-147382721D01*
X261633909Y-147276381D01*
X262087128Y-146973549D01*
X262369300Y-146551250D01*
X262651472Y-146973549D01*
X263104691Y-147276381D01*
X263639300Y-147382721D01*
X264173909Y-147276381D01*
X264627128Y-146973549D01*
X264909300Y-146551250D01*
X265191472Y-146973549D01*
X265644691Y-147276381D01*
X266179300Y-147382721D01*
X266713909Y-147276381D01*
X267167128Y-146973549D01*
X267449300Y-146551250D01*
X267731472Y-146973549D01*
X268184691Y-147276381D01*
X268719300Y-147382721D01*
X269253909Y-147276381D01*
X269707128Y-146973549D01*
X269989300Y-146551250D01*
X270271472Y-146973549D01*
X270724691Y-147276381D01*
X271259300Y-147382721D01*
X271793909Y-147276381D01*
X272247128Y-146973549D01*
X272529300Y-146551250D01*
X272811472Y-146973549D01*
X273264691Y-147276381D01*
X273799300Y-147382721D01*
X274333909Y-147276381D01*
X274787128Y-146973549D01*
X275089960Y-146520330D01*
X275196300Y-145985721D01*
X275196300Y-144895079D01*
X275089960Y-144360470D01*
X274787128Y-143907251D01*
X274333909Y-143604419D01*
X273799300Y-143498079D01*
X273264691Y-143604419D01*
X272811472Y-143907251D01*
X272529300Y-144329550D01*
X272247128Y-143907251D01*
X271793909Y-143604419D01*
X271259300Y-143498079D01*
X270724691Y-143604419D01*
X270271472Y-143907251D01*
X269989300Y-144329550D01*
X269707128Y-143907251D01*
X269253909Y-143604419D01*
X268719300Y-143498079D01*
X268184691Y-143604419D01*
X267731472Y-143907251D01*
X267449300Y-144329550D01*
X267167128Y-143907251D01*
X266713909Y-143604419D01*
X266179300Y-143498079D01*
X265644691Y-143604419D01*
X265191472Y-143907251D01*
X264909300Y-144329550D01*
X264627128Y-143907251D01*
X264173909Y-143604419D01*
X263639300Y-143498079D01*
X263104691Y-143604419D01*
X262651472Y-143907251D01*
X262369300Y-144329550D01*
X262087128Y-143907251D01*
X261633909Y-143604419D01*
X261099300Y-143498079D01*
X260564691Y-143604419D01*
X260111472Y-143907251D01*
X259808640Y-144360470D01*
X259702300Y-144895079D01*
X257416300Y-144895079D01*
X257309960Y-144360470D01*
X257098977Y-144044713D01*
X258905575Y-142238115D01*
X259422091Y-142238565D01*
X259986471Y-142005368D01*
X260418651Y-141573943D01*
X260652833Y-141009970D01*
X260653365Y-140399309D01*
X260420168Y-139834929D01*
X259988743Y-139402749D01*
X259424770Y-139168567D01*
X258814109Y-139168035D01*
X258249729Y-139401232D01*
X257817549Y-139832657D01*
X257583367Y-140396630D01*
X257582914Y-140916196D01*
X255358155Y-143140955D01*
X255155473Y-143444291D01*
X255084300Y-143802100D01*
X255084300Y-143871952D01*
X255031472Y-143907251D01*
X254739970Y-144343513D01*
X254721359Y-144280459D01*
X254377326Y-143854770D01*
X253896577Y-143593140D01*
X253822370Y-143578180D01*
X253606300Y-143700680D01*
X253352300Y-143700680D01*
X253136230Y-143578180D01*
X253062023Y-143593140D01*
X252581274Y-143854770D01*
X252237241Y-144280459D01*
X252209300Y-144375123D01*
X252181359Y-144280459D01*
X251837326Y-143854770D01*
X251356577Y-143593140D01*
X251282370Y-143578180D01*
X251066300Y-143700680D01*
X250812300Y-143700680D01*
X250596230Y-143578180D01*
X250522023Y-143593140D01*
X250041274Y-143854770D01*
X249697241Y-144280459D01*
X249678630Y-144343513D01*
X249387128Y-143907251D01*
X248933909Y-143604419D01*
X248399300Y-143498079D01*
X247864691Y-143604419D01*
X247411472Y-143907251D01*
X247129300Y-144329550D01*
X246869300Y-143940434D01*
X246869300Y-140614400D01*
X246792418Y-140227890D01*
X246573478Y-139900222D01*
X245616207Y-138942951D01*
X245616565Y-138532409D01*
X245383368Y-137968029D01*
X244951943Y-137535849D01*
X244387970Y-137301667D01*
X243777309Y-137301135D01*
X243212929Y-137534332D01*
X242780749Y-137965757D01*
X242569740Y-138473923D01*
X242569740Y-137036400D01*
X242525462Y-136801083D01*
X242386390Y-136584959D01*
X242174190Y-136439969D01*
X242132861Y-136431600D01*
X242150715Y-136419670D01*
X242203447Y-136340750D01*
X245119900Y-136340750D01*
X245119900Y-137197309D01*
X245216573Y-137430698D01*
X245395201Y-137609327D01*
X245628590Y-137706000D01*
X246332750Y-137706000D01*
X246491500Y-137547250D01*
X246491500Y-136182000D01*
X245278650Y-136182000D01*
X245119900Y-136340750D01*
X242203447Y-136340750D01*
X242475571Y-135933489D01*
X242589645Y-135360000D01*
X242500670Y-134912691D01*
X245119900Y-134912691D01*
X245119900Y-135769250D01*
X245278650Y-135928000D01*
X246491500Y-135928000D01*
X246491500Y-134562750D01*
X246745500Y-134562750D01*
X246745500Y-135928000D01*
X246765500Y-135928000D01*
X246765500Y-136182000D01*
X246745500Y-136182000D01*
X246745500Y-137547250D01*
X246904250Y-137706000D01*
X247608410Y-137706000D01*
X247841799Y-137609327D01*
X248020427Y-137430698D01*
X248084000Y-137277220D01*
X248098830Y-137299415D01*
X248585011Y-137624271D01*
X249158500Y-137738345D01*
X249731989Y-137624271D01*
X250218170Y-137299415D01*
X250428500Y-136984634D01*
X250638830Y-137299415D01*
X251125011Y-137624271D01*
X251698500Y-137738345D01*
X252271989Y-137624271D01*
X252758170Y-137299415D01*
X252968500Y-136984634D01*
X253178830Y-137299415D01*
X253665011Y-137624271D01*
X254238500Y-137738345D01*
X254811989Y-137624271D01*
X255298170Y-137299415D01*
X255508500Y-136984634D01*
X255718830Y-137299415D01*
X256205011Y-137624271D01*
X256778500Y-137738345D01*
X257351989Y-137624271D01*
X257838170Y-137299415D01*
X258048500Y-136984634D01*
X258258830Y-137299415D01*
X258745011Y-137624271D01*
X259318500Y-137738345D01*
X259891989Y-137624271D01*
X260378170Y-137299415D01*
X260588500Y-136984634D01*
X260798830Y-137299415D01*
X261285011Y-137624271D01*
X261858500Y-137738345D01*
X262431989Y-137624271D01*
X262918170Y-137299415D01*
X263231956Y-136829800D01*
X263416455Y-136829800D01*
X263542130Y-137461610D01*
X263769299Y-137801592D01*
X263632359Y-137889710D01*
X263487369Y-138101910D01*
X263436360Y-138353800D01*
X263436360Y-140385800D01*
X263480638Y-140621117D01*
X263619710Y-140837241D01*
X263831910Y-140982231D01*
X264083800Y-141033240D01*
X266115800Y-141033240D01*
X266351117Y-140988962D01*
X266567241Y-140849890D01*
X266600958Y-140800543D01*
X274116415Y-140800543D01*
X274454058Y-141617700D01*
X275078711Y-142243445D01*
X275895278Y-142582513D01*
X276779443Y-142583285D01*
X277596600Y-142245642D01*
X278222345Y-141620989D01*
X278561413Y-140804422D01*
X278562185Y-139920257D01*
X278224542Y-139103100D01*
X277599889Y-138477355D01*
X276783322Y-138138287D01*
X275899157Y-138137515D01*
X275082000Y-138475158D01*
X274456255Y-139099811D01*
X274117187Y-139916378D01*
X274116415Y-140800543D01*
X266600958Y-140800543D01*
X266712231Y-140637690D01*
X266763240Y-140385800D01*
X266763240Y-138353800D01*
X266718962Y-138118483D01*
X266579890Y-137902359D01*
X266430963Y-137800602D01*
X266657470Y-137461610D01*
X266783145Y-136829800D01*
X266657470Y-136197990D01*
X266299578Y-135662367D01*
X265763955Y-135304475D01*
X265132145Y-135178800D01*
X265067455Y-135178800D01*
X264435645Y-135304475D01*
X263900022Y-135662367D01*
X263542130Y-136197990D01*
X263416455Y-136829800D01*
X263231956Y-136829800D01*
X263243026Y-136813234D01*
X263357100Y-136239745D01*
X263357100Y-135870255D01*
X263243026Y-135296766D01*
X262918170Y-134810585D01*
X262431989Y-134485729D01*
X261858500Y-134371655D01*
X261285011Y-134485729D01*
X260798830Y-134810585D01*
X260588500Y-135125366D01*
X260378170Y-134810585D01*
X259891989Y-134485729D01*
X259318500Y-134371655D01*
X258745011Y-134485729D01*
X258258830Y-134810585D01*
X258048500Y-135125366D01*
X257838170Y-134810585D01*
X257351989Y-134485729D01*
X256778500Y-134371655D01*
X256205011Y-134485729D01*
X255718830Y-134810585D01*
X255508500Y-135125366D01*
X255298170Y-134810585D01*
X254811989Y-134485729D01*
X254238500Y-134371655D01*
X253665011Y-134485729D01*
X253178830Y-134810585D01*
X252968500Y-135125366D01*
X252758170Y-134810585D01*
X252271989Y-134485729D01*
X251698500Y-134371655D01*
X251125011Y-134485729D01*
X250638830Y-134810585D01*
X250428500Y-135125366D01*
X250218170Y-134810585D01*
X249731989Y-134485729D01*
X249158500Y-134371655D01*
X248585011Y-134485729D01*
X248098830Y-134810585D01*
X248084000Y-134832780D01*
X248020427Y-134679302D01*
X247841799Y-134500673D01*
X247608410Y-134404000D01*
X246904250Y-134404000D01*
X246745500Y-134562750D01*
X246491500Y-134562750D01*
X246332750Y-134404000D01*
X245628590Y-134404000D01*
X245395201Y-134500673D01*
X245216573Y-134679302D01*
X245119900Y-134912691D01*
X242500670Y-134912691D01*
X242475571Y-134786511D01*
X242150715Y-134300330D01*
X241835934Y-134090000D01*
X242150715Y-133879670D01*
X242475571Y-133393489D01*
X242478461Y-133378959D01*
X270228589Y-133378959D01*
X270258940Y-133504757D01*
X270570124Y-134059670D01*
X271069977Y-134453258D01*
X271682400Y-134625600D01*
X272673000Y-134625600D01*
X272673000Y-133127000D01*
X272927000Y-133127000D01*
X272927000Y-134625600D01*
X273917600Y-134625600D01*
X274530023Y-134453258D01*
X275029876Y-134059670D01*
X275341060Y-133504757D01*
X275371411Y-133378959D01*
X275251942Y-133127000D01*
X272927000Y-133127000D01*
X272673000Y-133127000D01*
X270348058Y-133127000D01*
X270228589Y-133378959D01*
X242478461Y-133378959D01*
X242589645Y-132820000D01*
X242550070Y-132621041D01*
X270228589Y-132621041D01*
X270348058Y-132873000D01*
X272673000Y-132873000D01*
X272673000Y-131374400D01*
X272927000Y-131374400D01*
X272927000Y-132873000D01*
X275251942Y-132873000D01*
X275371411Y-132621041D01*
X275341060Y-132495243D01*
X275029876Y-131940330D01*
X274530023Y-131546742D01*
X273917600Y-131374400D01*
X272927000Y-131374400D01*
X272673000Y-131374400D01*
X271682400Y-131374400D01*
X271069977Y-131546742D01*
X270570124Y-131940330D01*
X270258940Y-132495243D01*
X270228589Y-132621041D01*
X242550070Y-132621041D01*
X242475571Y-132246511D01*
X242150715Y-131760330D01*
X241664534Y-131435474D01*
X241091045Y-131321400D01*
X240721555Y-131321400D01*
X240148066Y-131435474D01*
X239661885Y-131760330D01*
X239337029Y-132246511D01*
X239222955Y-132820000D01*
X239337029Y-133393489D01*
X239661885Y-133879670D01*
X239976666Y-134090000D01*
X239661885Y-134300330D01*
X239337029Y-134786511D01*
X239222955Y-135360000D01*
X239337029Y-135933489D01*
X239661885Y-136419670D01*
X239676213Y-136429243D01*
X239654983Y-136433238D01*
X239438859Y-136572310D01*
X239293869Y-136784510D01*
X239242860Y-137036400D01*
X239242860Y-138763600D01*
X239287138Y-138998917D01*
X239426210Y-139215041D01*
X239638410Y-139360031D01*
X239890300Y-139411040D01*
X241922300Y-139411040D01*
X242157617Y-139366762D01*
X242373741Y-139227690D01*
X242518731Y-139015490D01*
X242546262Y-138879537D01*
X242546035Y-139140391D01*
X242779232Y-139704771D01*
X243210657Y-140136951D01*
X243774630Y-140371133D01*
X244188037Y-140371493D01*
X244849300Y-141032756D01*
X244849300Y-143940434D01*
X244589300Y-144329550D01*
X244307128Y-143907251D01*
X243853909Y-143604419D01*
X243319300Y-143498079D01*
X242784691Y-143604419D01*
X242331472Y-143907251D01*
X242049300Y-144329550D01*
X241767128Y-143907251D01*
X241313909Y-143604419D01*
X240779300Y-143498079D01*
X240244691Y-143604419D01*
X239791472Y-143907251D01*
X239509300Y-144329550D01*
X239227128Y-143907251D01*
X238773909Y-143604419D01*
X238239300Y-143498079D01*
X237704691Y-143604419D01*
X237251472Y-143907251D01*
X236948640Y-144360470D01*
X236842300Y-144895079D01*
X226448727Y-144895079D01*
X226154542Y-144183100D01*
X225529889Y-143557355D01*
X224713322Y-143218287D01*
X223829157Y-143217515D01*
X223012000Y-143555158D01*
X222386255Y-144179811D01*
X222047187Y-144996378D01*
X222046415Y-145880543D01*
X221475300Y-145880543D01*
X221475300Y-144540506D01*
X222708103Y-143307703D01*
X222735966Y-143265689D01*
X222745300Y-143217900D01*
X222745300Y-135788400D01*
X222735294Y-135738990D01*
X222708103Y-135698597D01*
X217855800Y-130846294D01*
X217855800Y-128000000D01*
X270132546Y-128000000D01*
X270256287Y-128622090D01*
X270608673Y-129149473D01*
X271136056Y-129501859D01*
X271758146Y-129625600D01*
X273841854Y-129625600D01*
X274463944Y-129501859D01*
X274991327Y-129149473D01*
X275343713Y-128622090D01*
X275467454Y-128000000D01*
X275343713Y-127377910D01*
X274991327Y-126850527D01*
X274463944Y-126498141D01*
X273841854Y-126374400D01*
X271758146Y-126374400D01*
X271136056Y-126498141D01*
X270608673Y-126850527D01*
X270256287Y-127377910D01*
X270132546Y-128000000D01*
X217855800Y-128000000D01*
X217855800Y-115975591D01*
X260707035Y-115975591D01*
X260940232Y-116539971D01*
X261371657Y-116972151D01*
X261935630Y-117206333D01*
X262546291Y-117206865D01*
X263110671Y-116973668D01*
X263351159Y-116733600D01*
X266842230Y-116733600D01*
X266651167Y-117193730D01*
X266650635Y-117804391D01*
X266883832Y-118368771D01*
X267315257Y-118800951D01*
X267879230Y-119035133D01*
X268489891Y-119035665D01*
X269054271Y-118802468D01*
X269421981Y-118435400D01*
X272758735Y-118435400D01*
X273006930Y-118684029D01*
X273214812Y-118770349D01*
X273008997Y-118855390D01*
X272758550Y-119105400D01*
X263655655Y-119105400D01*
X263290743Y-118739849D01*
X262726770Y-118505667D01*
X262116109Y-118505135D01*
X261551729Y-118738332D01*
X261119549Y-119169757D01*
X260885367Y-119733730D01*
X260884835Y-120344391D01*
X261118032Y-120908771D01*
X261549457Y-121340951D01*
X262113430Y-121575133D01*
X262724091Y-121575665D01*
X263288471Y-121342468D01*
X263656181Y-120975400D01*
X272758735Y-120975400D01*
X273006930Y-121224029D01*
X273214812Y-121310349D01*
X273008997Y-121395390D01*
X272615671Y-121788030D01*
X272402543Y-122301300D01*
X272402058Y-122857061D01*
X272614290Y-123370703D01*
X273006930Y-123764029D01*
X273520200Y-123977157D01*
X274075961Y-123977642D01*
X274589603Y-123765410D01*
X274982929Y-123372770D01*
X275069249Y-123164888D01*
X275154290Y-123370703D01*
X275546930Y-123764029D01*
X276060200Y-123977157D01*
X276615961Y-123977642D01*
X277129603Y-123765410D01*
X277522929Y-123372770D01*
X277736057Y-122859500D01*
X277736542Y-122303739D01*
X277524310Y-121790097D01*
X277131670Y-121396771D01*
X276923788Y-121310451D01*
X277129603Y-121225410D01*
X277522929Y-120832770D01*
X277736057Y-120319500D01*
X277736366Y-119965624D01*
X278626045Y-119075945D01*
X278653315Y-119035133D01*
X278828727Y-118772609D01*
X278854477Y-118643158D01*
X278899901Y-118414800D01*
X278899900Y-118414795D01*
X278899900Y-116789200D01*
X278828727Y-116431391D01*
X278626045Y-116128055D01*
X277635445Y-115137455D01*
X277332109Y-114934773D01*
X276974300Y-114863600D01*
X263569313Y-114863600D01*
X263544368Y-114803229D01*
X263112943Y-114371049D01*
X262548970Y-114136867D01*
X261938309Y-114136335D01*
X261373929Y-114369532D01*
X260941749Y-114800957D01*
X260707567Y-115364930D01*
X260707035Y-115975591D01*
X217855800Y-115975591D01*
X217855800Y-112860543D01*
X274116415Y-112860543D01*
X274454058Y-113677700D01*
X275078711Y-114303445D01*
X275895278Y-114642513D01*
X276779443Y-114643285D01*
X277596600Y-114305642D01*
X278222345Y-113680989D01*
X278561413Y-112864422D01*
X278562185Y-111980257D01*
X278224542Y-111163100D01*
X277599889Y-110537355D01*
X276783322Y-110198287D01*
X275899157Y-110197515D01*
X275082000Y-110535158D01*
X274456255Y-111159811D01*
X274117187Y-111976378D01*
X274116415Y-112860543D01*
X217855800Y-112860543D01*
X217855800Y-98566506D01*
X218801763Y-97620543D01*
X223316415Y-97620543D01*
X223654058Y-98437700D01*
X224278711Y-99063445D01*
X225095278Y-99402513D01*
X225979443Y-99403285D01*
X226796600Y-99065642D01*
X227422345Y-98440989D01*
X227705118Y-97759996D01*
X227804640Y-98260330D01*
X228107472Y-98713549D01*
X228560691Y-99016381D01*
X229095300Y-99122721D01*
X229629909Y-99016381D01*
X230083128Y-98713549D01*
X230365300Y-98291250D01*
X230647472Y-98713549D01*
X231100691Y-99016381D01*
X231635300Y-99122721D01*
X232169909Y-99016381D01*
X232623128Y-98713549D01*
X232905300Y-98291250D01*
X233187472Y-98713549D01*
X233640691Y-99016381D01*
X234175300Y-99122721D01*
X234709909Y-99016381D01*
X235163128Y-98713549D01*
X235454630Y-98277287D01*
X235473241Y-98340341D01*
X235817274Y-98766030D01*
X236298023Y-99027660D01*
X236372230Y-99042620D01*
X236588300Y-98920120D01*
X236588300Y-97307400D01*
X236568300Y-97307400D01*
X236568300Y-97053400D01*
X236588300Y-97053400D01*
X236588300Y-95440680D01*
X236842300Y-95440680D01*
X236842300Y-97053400D01*
X236862300Y-97053400D01*
X236862300Y-97307400D01*
X236842300Y-97307400D01*
X236842300Y-98920120D01*
X237058370Y-99042620D01*
X237132577Y-99027660D01*
X237613326Y-98766030D01*
X237957359Y-98340341D01*
X237975970Y-98277287D01*
X238267472Y-98713549D01*
X238720691Y-99016381D01*
X239255300Y-99122721D01*
X239789909Y-99016381D01*
X240243128Y-98713549D01*
X240525300Y-98291250D01*
X240807472Y-98713549D01*
X241260691Y-99016381D01*
X241795300Y-99122721D01*
X242329909Y-99016381D01*
X242783128Y-98713549D01*
X243065300Y-98291250D01*
X243347472Y-98713549D01*
X243800691Y-99016381D01*
X244335300Y-99122721D01*
X244869909Y-99016381D01*
X245323128Y-98713549D01*
X245605300Y-98291250D01*
X245887472Y-98713549D01*
X245940300Y-98748848D01*
X245940300Y-101583600D01*
X245600149Y-101923157D01*
X245365967Y-102487130D01*
X245365435Y-103097791D01*
X245598632Y-103662171D01*
X245827620Y-103891560D01*
X245754900Y-103891560D01*
X245519583Y-103935838D01*
X245303459Y-104074910D01*
X245158469Y-104287110D01*
X245107460Y-104539000D01*
X245107460Y-106571000D01*
X245151738Y-106806317D01*
X245290810Y-107022441D01*
X245503010Y-107167431D01*
X245754900Y-107218440D01*
X247482100Y-107218440D01*
X247717417Y-107174162D01*
X247933541Y-107035090D01*
X248078531Y-106822890D01*
X248086900Y-106781561D01*
X248098830Y-106799415D01*
X248585011Y-107124271D01*
X249158500Y-107238345D01*
X249731989Y-107124271D01*
X250218170Y-106799415D01*
X250428500Y-106484634D01*
X250638830Y-106799415D01*
X251125011Y-107124271D01*
X251698500Y-107238345D01*
X252271989Y-107124271D01*
X252758170Y-106799415D01*
X252968500Y-106484634D01*
X253178830Y-106799415D01*
X253665011Y-107124271D01*
X254238500Y-107238345D01*
X254811989Y-107124271D01*
X255298170Y-106799415D01*
X255508500Y-106484634D01*
X255718830Y-106799415D01*
X256205011Y-107124271D01*
X256778500Y-107238345D01*
X257351989Y-107124271D01*
X257838170Y-106799415D01*
X258048500Y-106484634D01*
X258258830Y-106799415D01*
X258745011Y-107124271D01*
X259318500Y-107238345D01*
X259891989Y-107124271D01*
X260378170Y-106799415D01*
X260584961Y-106489931D01*
X260956464Y-106905732D01*
X261483709Y-107159709D01*
X261499474Y-107162358D01*
X261731500Y-107041217D01*
X261731500Y-105682000D01*
X261985500Y-105682000D01*
X261985500Y-107041217D01*
X262217526Y-107162358D01*
X262233291Y-107159709D01*
X262760536Y-106905732D01*
X263150454Y-106469320D01*
X263343684Y-105916913D01*
X263199424Y-105682000D01*
X261985500Y-105682000D01*
X261731500Y-105682000D01*
X261711500Y-105682000D01*
X261711500Y-105428000D01*
X261731500Y-105428000D01*
X261731500Y-104068783D01*
X261985500Y-104068783D01*
X261985500Y-105428000D01*
X263199424Y-105428000D01*
X263343684Y-105193087D01*
X263150454Y-104640680D01*
X262760536Y-104204268D01*
X262233291Y-103950291D01*
X262217526Y-103947642D01*
X261985500Y-104068783D01*
X261731500Y-104068783D01*
X261499474Y-103947642D01*
X261483709Y-103950291D01*
X260956464Y-104204268D01*
X260584961Y-104620069D01*
X260378170Y-104310585D01*
X259891989Y-103985729D01*
X259318500Y-103871655D01*
X258745011Y-103985729D01*
X258258830Y-104310585D01*
X258048500Y-104625366D01*
X257838170Y-104310585D01*
X257351989Y-103985729D01*
X256778500Y-103871655D01*
X256205011Y-103985729D01*
X255718830Y-104310585D01*
X255508500Y-104625366D01*
X255298170Y-104310585D01*
X254811989Y-103985729D01*
X254238500Y-103871655D01*
X254088142Y-103901563D01*
X254252033Y-103506870D01*
X254252486Y-102987304D01*
X254907990Y-102331800D01*
X261048500Y-102331800D01*
X261406309Y-102260627D01*
X261709645Y-102057945D01*
X262913978Y-100853611D01*
X262815767Y-101090130D01*
X262815235Y-101700791D01*
X263048432Y-102265171D01*
X263479857Y-102697351D01*
X264043830Y-102931533D01*
X264654491Y-102932065D01*
X265218871Y-102698868D01*
X265535692Y-102382600D01*
X265798300Y-102382600D01*
X266156109Y-102311427D01*
X266459445Y-102108745D01*
X269380445Y-99187745D01*
X269583127Y-98884409D01*
X269603316Y-98782914D01*
X269707128Y-98713549D01*
X269989300Y-98291250D01*
X270271472Y-98713549D01*
X270724691Y-99016381D01*
X271259300Y-99122721D01*
X271793909Y-99016381D01*
X272247128Y-98713549D01*
X272529300Y-98291250D01*
X272811472Y-98713549D01*
X273264691Y-99016381D01*
X273799300Y-99122721D01*
X274333909Y-99016381D01*
X274787128Y-98713549D01*
X275089960Y-98260330D01*
X275196300Y-97725721D01*
X275196300Y-96635079D01*
X275089960Y-96100470D01*
X274787128Y-95647251D01*
X274333909Y-95344419D01*
X273799300Y-95238079D01*
X273264691Y-95344419D01*
X272811472Y-95647251D01*
X272529300Y-96069550D01*
X272247128Y-95647251D01*
X271793909Y-95344419D01*
X271259300Y-95238079D01*
X270724691Y-95344419D01*
X270271472Y-95647251D01*
X269989300Y-96069550D01*
X269707128Y-95647251D01*
X269253909Y-95344419D01*
X268719300Y-95238079D01*
X268184691Y-95344419D01*
X267731472Y-95647251D01*
X267449300Y-96069550D01*
X267167128Y-95647251D01*
X266713909Y-95344419D01*
X266179300Y-95238079D01*
X265644691Y-95344419D01*
X265191472Y-95647251D01*
X264909300Y-96069550D01*
X264627128Y-95647251D01*
X264173909Y-95344419D01*
X263639300Y-95238079D01*
X263104691Y-95344419D01*
X262651472Y-95647251D01*
X262369300Y-96069550D01*
X262087128Y-95647251D01*
X261633909Y-95344419D01*
X261099300Y-95238079D01*
X260564691Y-95344419D01*
X260111472Y-95647251D01*
X259829300Y-96069550D01*
X259547128Y-95647251D01*
X259093909Y-95344419D01*
X258559300Y-95238079D01*
X258024691Y-95344419D01*
X257571472Y-95647251D01*
X257289300Y-96069550D01*
X257007128Y-95647251D01*
X256553909Y-95344419D01*
X256019300Y-95238079D01*
X255484691Y-95344419D01*
X255031472Y-95647251D01*
X254728640Y-96100470D01*
X254622300Y-96635079D01*
X254622300Y-97725721D01*
X254728640Y-98260330D01*
X255031472Y-98713549D01*
X255484691Y-99016381D01*
X256019300Y-99122721D01*
X256553909Y-99016381D01*
X257007128Y-98713549D01*
X257289300Y-98291250D01*
X257571472Y-98713549D01*
X258024691Y-99016381D01*
X258559300Y-99122721D01*
X259093909Y-99016381D01*
X259547128Y-98713549D01*
X259829300Y-98291250D01*
X260111472Y-98713549D01*
X260564691Y-99016381D01*
X261099300Y-99122721D01*
X261633909Y-99016381D01*
X262087128Y-98713549D01*
X262369300Y-98291250D01*
X262554536Y-98568475D01*
X260661210Y-100461800D01*
X254520700Y-100461800D01*
X254162891Y-100532973D01*
X253859555Y-100735655D01*
X252929825Y-101665385D01*
X252413309Y-101664935D01*
X251848929Y-101898132D01*
X251416749Y-102329557D01*
X251182567Y-102893530D01*
X251182035Y-103504191D01*
X251361561Y-103938676D01*
X251125011Y-103985729D01*
X250638830Y-104310585D01*
X250428500Y-104625366D01*
X250218170Y-104310585D01*
X249731989Y-103985729D01*
X249158500Y-103871655D01*
X248585011Y-103985729D01*
X248098830Y-104310585D01*
X248089257Y-104324913D01*
X248085262Y-104303683D01*
X247946190Y-104087559D01*
X247845983Y-104019090D01*
X248201251Y-103664443D01*
X248435433Y-103100470D01*
X248435965Y-102489809D01*
X248202768Y-101925429D01*
X247810300Y-101532274D01*
X247810300Y-98748848D01*
X247863128Y-98713549D01*
X248145300Y-98291250D01*
X248427472Y-98713549D01*
X248880691Y-99016381D01*
X249415300Y-99122721D01*
X249949909Y-99016381D01*
X250403128Y-98713549D01*
X250685300Y-98291250D01*
X250967472Y-98713549D01*
X251420691Y-99016381D01*
X251955300Y-99122721D01*
X252489909Y-99016381D01*
X252943128Y-98713549D01*
X253245960Y-98260330D01*
X253352300Y-97725721D01*
X253352300Y-96635079D01*
X253245960Y-96100470D01*
X252943128Y-95647251D01*
X252489909Y-95344419D01*
X251955300Y-95238079D01*
X251420691Y-95344419D01*
X250967472Y-95647251D01*
X250685300Y-96069550D01*
X250403128Y-95647251D01*
X249949909Y-95344419D01*
X249415300Y-95238079D01*
X248880691Y-95344419D01*
X248427472Y-95647251D01*
X248145300Y-96069550D01*
X247863128Y-95647251D01*
X247409909Y-95344419D01*
X246875300Y-95238079D01*
X246340691Y-95344419D01*
X245887472Y-95647251D01*
X245605300Y-96069550D01*
X245323128Y-95647251D01*
X244869909Y-95344419D01*
X244335300Y-95238079D01*
X243800691Y-95344419D01*
X243347472Y-95647251D01*
X243065300Y-96069550D01*
X242783128Y-95647251D01*
X242329909Y-95344419D01*
X241795300Y-95238079D01*
X241260691Y-95344419D01*
X240807472Y-95647251D01*
X240525300Y-96069550D01*
X240243128Y-95647251D01*
X239789909Y-95344419D01*
X239255300Y-95238079D01*
X238720691Y-95344419D01*
X238267472Y-95647251D01*
X237975970Y-96083513D01*
X237957359Y-96020459D01*
X237613326Y-95594770D01*
X237132577Y-95333140D01*
X237058370Y-95318180D01*
X236842300Y-95440680D01*
X236588300Y-95440680D01*
X236372230Y-95318180D01*
X236298023Y-95333140D01*
X235817274Y-95594770D01*
X235473241Y-96020459D01*
X235454630Y-96083513D01*
X235163128Y-95647251D01*
X234709909Y-95344419D01*
X234175300Y-95238079D01*
X233640691Y-95344419D01*
X233187472Y-95647251D01*
X232905300Y-96069550D01*
X232623128Y-95647251D01*
X232169909Y-95344419D01*
X231635300Y-95238079D01*
X231100691Y-95344419D01*
X230647472Y-95647251D01*
X230365300Y-96069550D01*
X230083128Y-95647251D01*
X229629909Y-95344419D01*
X229095300Y-95238079D01*
X228560691Y-95344419D01*
X228107472Y-95647251D01*
X227804640Y-96100470D01*
X227704938Y-96601708D01*
X227424542Y-95923100D01*
X226799889Y-95297355D01*
X225983322Y-94958287D01*
X225099157Y-94957515D01*
X224282000Y-95295158D01*
X223656255Y-95919811D01*
X223317187Y-96736378D01*
X223316415Y-97620543D01*
X218801763Y-97620543D01*
X221845406Y-94576900D01*
X275143694Y-94576900D01*
X276402800Y-95836006D01*
X276402800Y-95836006D01*
G37*
X276402800Y-95836006D02*
X276402800Y-107213400D01*
X276412806Y-107262810D01*
X276439997Y-107303203D01*
X278942800Y-109806006D01*
X278942800Y-142974794D01*
X276439997Y-145477597D01*
X276412134Y-145519611D01*
X276402800Y-145567400D01*
X276402800Y-148043900D01*
X222162906Y-148043900D01*
X221475300Y-147356294D01*
X221475300Y-145880543D01*
X222046415Y-145880543D01*
X222384058Y-146697700D01*
X223008711Y-147323445D01*
X223825278Y-147662513D01*
X224709443Y-147663285D01*
X225526600Y-147325642D01*
X226152345Y-146700989D01*
X226491413Y-145884422D01*
X226492185Y-145000257D01*
X226448727Y-144895079D01*
X236842300Y-144895079D01*
X236842300Y-145985721D01*
X236948640Y-146520330D01*
X237251472Y-146973549D01*
X237704691Y-147276381D01*
X238239300Y-147382721D01*
X238773909Y-147276381D01*
X239227128Y-146973549D01*
X239509300Y-146551250D01*
X239791472Y-146973549D01*
X240244691Y-147276381D01*
X240779300Y-147382721D01*
X241313909Y-147276381D01*
X241767128Y-146973549D01*
X242049300Y-146551250D01*
X242331472Y-146973549D01*
X242784691Y-147276381D01*
X243319300Y-147382721D01*
X243853909Y-147276381D01*
X244307128Y-146973549D01*
X244589300Y-146551250D01*
X244871472Y-146973549D01*
X245324691Y-147276381D01*
X245859300Y-147382721D01*
X246393909Y-147276381D01*
X246847128Y-146973549D01*
X247129300Y-146551250D01*
X247411472Y-146973549D01*
X247864691Y-147276381D01*
X248399300Y-147382721D01*
X248933909Y-147276381D01*
X249387128Y-146973549D01*
X249678630Y-146537287D01*
X249697241Y-146600341D01*
X250041274Y-147026030D01*
X250522023Y-147287660D01*
X250596230Y-147302620D01*
X250812300Y-147180120D01*
X250812300Y-145567400D01*
X251066300Y-145567400D01*
X251066300Y-147180120D01*
X251282370Y-147302620D01*
X251356577Y-147287660D01*
X251837326Y-147026030D01*
X252181359Y-146600341D01*
X252209300Y-146505677D01*
X252237241Y-146600341D01*
X252581274Y-147026030D01*
X253062023Y-147287660D01*
X253136230Y-147302620D01*
X253352300Y-147180120D01*
X253352300Y-145567400D01*
X251066300Y-145567400D01*
X250812300Y-145567400D01*
X250792300Y-145567400D01*
X250792300Y-145313400D01*
X250812300Y-145313400D01*
X250812300Y-143700680D01*
X251066300Y-143700680D01*
X251066300Y-145313400D01*
X253352300Y-145313400D01*
X253352300Y-143700680D01*
X253606300Y-143700680D01*
X253606300Y-145313400D01*
X253626300Y-145313400D01*
X253626300Y-145567400D01*
X253606300Y-145567400D01*
X253606300Y-147180120D01*
X253822370Y-147302620D01*
X253896577Y-147287660D01*
X254377326Y-147026030D01*
X254721359Y-146600341D01*
X254739970Y-146537287D01*
X255031472Y-146973549D01*
X255484691Y-147276381D01*
X256019300Y-147382721D01*
X256553909Y-147276381D01*
X257007128Y-146973549D01*
X257309960Y-146520330D01*
X257416300Y-145985721D01*
X257416300Y-144895079D01*
X259702300Y-144895079D01*
X259702300Y-145985721D01*
X259808640Y-146520330D01*
X260111472Y-146973549D01*
X260564691Y-147276381D01*
X261099300Y-147382721D01*
X261633909Y-147276381D01*
X262087128Y-146973549D01*
X262369300Y-146551250D01*
X262651472Y-146973549D01*
X263104691Y-147276381D01*
X263639300Y-147382721D01*
X264173909Y-147276381D01*
X264627128Y-146973549D01*
X264909300Y-146551250D01*
X265191472Y-146973549D01*
X265644691Y-147276381D01*
X266179300Y-147382721D01*
X266713909Y-147276381D01*
X267167128Y-146973549D01*
X267449300Y-146551250D01*
X267731472Y-146973549D01*
X268184691Y-147276381D01*
X268719300Y-147382721D01*
X269253909Y-147276381D01*
X269707128Y-146973549D01*
X269989300Y-146551250D01*
X270271472Y-146973549D01*
X270724691Y-147276381D01*
X271259300Y-147382721D01*
X271793909Y-147276381D01*
X272247128Y-146973549D01*
X272529300Y-146551250D01*
X272811472Y-146973549D01*
X273264691Y-147276381D01*
X273799300Y-147382721D01*
X274333909Y-147276381D01*
X274787128Y-146973549D01*
X275089960Y-146520330D01*
X275196300Y-145985721D01*
X275196300Y-144895079D01*
X275089960Y-144360470D01*
X274787128Y-143907251D01*
X274333909Y-143604419D01*
X273799300Y-143498079D01*
X273264691Y-143604419D01*
X272811472Y-143907251D01*
X272529300Y-144329550D01*
X272247128Y-143907251D01*
X271793909Y-143604419D01*
X271259300Y-143498079D01*
X270724691Y-143604419D01*
X270271472Y-143907251D01*
X269989300Y-144329550D01*
X269707128Y-143907251D01*
X269253909Y-143604419D01*
X268719300Y-143498079D01*
X268184691Y-143604419D01*
X267731472Y-143907251D01*
X267449300Y-144329550D01*
X267167128Y-143907251D01*
X266713909Y-143604419D01*
X266179300Y-143498079D01*
X265644691Y-143604419D01*
X265191472Y-143907251D01*
X264909300Y-144329550D01*
X264627128Y-143907251D01*
X264173909Y-143604419D01*
X263639300Y-143498079D01*
X263104691Y-143604419D01*
X262651472Y-143907251D01*
X262369300Y-144329550D01*
X262087128Y-143907251D01*
X261633909Y-143604419D01*
X261099300Y-143498079D01*
X260564691Y-143604419D01*
X260111472Y-143907251D01*
X259808640Y-144360470D01*
X259702300Y-144895079D01*
X257416300Y-144895079D01*
X257309960Y-144360470D01*
X257098977Y-144044713D01*
X258905575Y-142238115D01*
X259422091Y-142238565D01*
X259986471Y-142005368D01*
X260418651Y-141573943D01*
X260652833Y-141009970D01*
X260653365Y-140399309D01*
X260420168Y-139834929D01*
X259988743Y-139402749D01*
X259424770Y-139168567D01*
X258814109Y-139168035D01*
X258249729Y-139401232D01*
X257817549Y-139832657D01*
X257583367Y-140396630D01*
X257582914Y-140916196D01*
X255358155Y-143140955D01*
X255155473Y-143444291D01*
X255084300Y-143802100D01*
X255084300Y-143871952D01*
X255031472Y-143907251D01*
X254739970Y-144343513D01*
X254721359Y-144280459D01*
X254377326Y-143854770D01*
X253896577Y-143593140D01*
X253822370Y-143578180D01*
X253606300Y-143700680D01*
X253352300Y-143700680D01*
X253136230Y-143578180D01*
X253062023Y-143593140D01*
X252581274Y-143854770D01*
X252237241Y-144280459D01*
X252209300Y-144375123D01*
X252181359Y-144280459D01*
X251837326Y-143854770D01*
X251356577Y-143593140D01*
X251282370Y-143578180D01*
X251066300Y-143700680D01*
X250812300Y-143700680D01*
X250596230Y-143578180D01*
X250522023Y-143593140D01*
X250041274Y-143854770D01*
X249697241Y-144280459D01*
X249678630Y-144343513D01*
X249387128Y-143907251D01*
X248933909Y-143604419D01*
X248399300Y-143498079D01*
X247864691Y-143604419D01*
X247411472Y-143907251D01*
X247129300Y-144329550D01*
X246869300Y-143940434D01*
X246869300Y-140614400D01*
X246792418Y-140227890D01*
X246573478Y-139900222D01*
X245616207Y-138942951D01*
X245616565Y-138532409D01*
X245383368Y-137968029D01*
X244951943Y-137535849D01*
X244387970Y-137301667D01*
X243777309Y-137301135D01*
X243212929Y-137534332D01*
X242780749Y-137965757D01*
X242569740Y-138473923D01*
X242569740Y-137036400D01*
X242525462Y-136801083D01*
X242386390Y-136584959D01*
X242174190Y-136439969D01*
X242132861Y-136431600D01*
X242150715Y-136419670D01*
X242203447Y-136340750D01*
X245119900Y-136340750D01*
X245119900Y-137197309D01*
X245216573Y-137430698D01*
X245395201Y-137609327D01*
X245628590Y-137706000D01*
X246332750Y-137706000D01*
X246491500Y-137547250D01*
X246491500Y-136182000D01*
X245278650Y-136182000D01*
X245119900Y-136340750D01*
X242203447Y-136340750D01*
X242475571Y-135933489D01*
X242589645Y-135360000D01*
X242500670Y-134912691D01*
X245119900Y-134912691D01*
X245119900Y-135769250D01*
X245278650Y-135928000D01*
X246491500Y-135928000D01*
X246491500Y-134562750D01*
X246745500Y-134562750D01*
X246745500Y-135928000D01*
X246765500Y-135928000D01*
X246765500Y-136182000D01*
X246745500Y-136182000D01*
X246745500Y-137547250D01*
X246904250Y-137706000D01*
X247608410Y-137706000D01*
X247841799Y-137609327D01*
X248020427Y-137430698D01*
X248084000Y-137277220D01*
X248098830Y-137299415D01*
X248585011Y-137624271D01*
X249158500Y-137738345D01*
X249731989Y-137624271D01*
X250218170Y-137299415D01*
X250428500Y-136984634D01*
X250638830Y-137299415D01*
X251125011Y-137624271D01*
X251698500Y-137738345D01*
X252271989Y-137624271D01*
X252758170Y-137299415D01*
X252968500Y-136984634D01*
X253178830Y-137299415D01*
X253665011Y-137624271D01*
X254238500Y-137738345D01*
X254811989Y-137624271D01*
X255298170Y-137299415D01*
X255508500Y-136984634D01*
X255718830Y-137299415D01*
X256205011Y-137624271D01*
X256778500Y-137738345D01*
X257351989Y-137624271D01*
X257838170Y-137299415D01*
X258048500Y-136984634D01*
X258258830Y-137299415D01*
X258745011Y-137624271D01*
X259318500Y-137738345D01*
X259891989Y-137624271D01*
X260378170Y-137299415D01*
X260588500Y-136984634D01*
X260798830Y-137299415D01*
X261285011Y-137624271D01*
X261858500Y-137738345D01*
X262431989Y-137624271D01*
X262918170Y-137299415D01*
X263231956Y-136829800D01*
X263416455Y-136829800D01*
X263542130Y-137461610D01*
X263769299Y-137801592D01*
X263632359Y-137889710D01*
X263487369Y-138101910D01*
X263436360Y-138353800D01*
X263436360Y-140385800D01*
X263480638Y-140621117D01*
X263619710Y-140837241D01*
X263831910Y-140982231D01*
X264083800Y-141033240D01*
X266115800Y-141033240D01*
X266351117Y-140988962D01*
X266567241Y-140849890D01*
X266600958Y-140800543D01*
X274116415Y-140800543D01*
X274454058Y-141617700D01*
X275078711Y-142243445D01*
X275895278Y-142582513D01*
X276779443Y-142583285D01*
X277596600Y-142245642D01*
X278222345Y-141620989D01*
X278561413Y-140804422D01*
X278562185Y-139920257D01*
X278224542Y-139103100D01*
X277599889Y-138477355D01*
X276783322Y-138138287D01*
X275899157Y-138137515D01*
X275082000Y-138475158D01*
X274456255Y-139099811D01*
X274117187Y-139916378D01*
X274116415Y-140800543D01*
X266600958Y-140800543D01*
X266712231Y-140637690D01*
X266763240Y-140385800D01*
X266763240Y-138353800D01*
X266718962Y-138118483D01*
X266579890Y-137902359D01*
X266430963Y-137800602D01*
X266657470Y-137461610D01*
X266783145Y-136829800D01*
X266657470Y-136197990D01*
X266299578Y-135662367D01*
X265763955Y-135304475D01*
X265132145Y-135178800D01*
X265067455Y-135178800D01*
X264435645Y-135304475D01*
X263900022Y-135662367D01*
X263542130Y-136197990D01*
X263416455Y-136829800D01*
X263231956Y-136829800D01*
X263243026Y-136813234D01*
X263357100Y-136239745D01*
X263357100Y-135870255D01*
X263243026Y-135296766D01*
X262918170Y-134810585D01*
X262431989Y-134485729D01*
X261858500Y-134371655D01*
X261285011Y-134485729D01*
X260798830Y-134810585D01*
X260588500Y-135125366D01*
X260378170Y-134810585D01*
X259891989Y-134485729D01*
X259318500Y-134371655D01*
X258745011Y-134485729D01*
X258258830Y-134810585D01*
X258048500Y-135125366D01*
X257838170Y-134810585D01*
X257351989Y-134485729D01*
X256778500Y-134371655D01*
X256205011Y-134485729D01*
X255718830Y-134810585D01*
X255508500Y-135125366D01*
X255298170Y-134810585D01*
X254811989Y-134485729D01*
X254238500Y-134371655D01*
X253665011Y-134485729D01*
X253178830Y-134810585D01*
X252968500Y-135125366D01*
X252758170Y-134810585D01*
X252271989Y-134485729D01*
X251698500Y-134371655D01*
X251125011Y-134485729D01*
X250638830Y-134810585D01*
X250428500Y-135125366D01*
X250218170Y-134810585D01*
X249731989Y-134485729D01*
X249158500Y-134371655D01*
X248585011Y-134485729D01*
X248098830Y-134810585D01*
X248084000Y-134832780D01*
X248020427Y-134679302D01*
X247841799Y-134500673D01*
X247608410Y-134404000D01*
X246904250Y-134404000D01*
X246745500Y-134562750D01*
X246491500Y-134562750D01*
X246332750Y-134404000D01*
X245628590Y-134404000D01*
X245395201Y-134500673D01*
X245216573Y-134679302D01*
X245119900Y-134912691D01*
X242500670Y-134912691D01*
X242475571Y-134786511D01*
X242150715Y-134300330D01*
X241835934Y-134090000D01*
X242150715Y-133879670D01*
X242475571Y-133393489D01*
X242478461Y-133378959D01*
X270228589Y-133378959D01*
X270258940Y-133504757D01*
X270570124Y-134059670D01*
X271069977Y-134453258D01*
X271682400Y-134625600D01*
X272673000Y-134625600D01*
X272673000Y-133127000D01*
X272927000Y-133127000D01*
X272927000Y-134625600D01*
X273917600Y-134625600D01*
X274530023Y-134453258D01*
X275029876Y-134059670D01*
X275341060Y-133504757D01*
X275371411Y-133378959D01*
X275251942Y-133127000D01*
X272927000Y-133127000D01*
X272673000Y-133127000D01*
X270348058Y-133127000D01*
X270228589Y-133378959D01*
X242478461Y-133378959D01*
X242589645Y-132820000D01*
X242550070Y-132621041D01*
X270228589Y-132621041D01*
X270348058Y-132873000D01*
X272673000Y-132873000D01*
X272673000Y-131374400D01*
X272927000Y-131374400D01*
X272927000Y-132873000D01*
X275251942Y-132873000D01*
X275371411Y-132621041D01*
X275341060Y-132495243D01*
X275029876Y-131940330D01*
X274530023Y-131546742D01*
X273917600Y-131374400D01*
X272927000Y-131374400D01*
X272673000Y-131374400D01*
X271682400Y-131374400D01*
X271069977Y-131546742D01*
X270570124Y-131940330D01*
X270258940Y-132495243D01*
X270228589Y-132621041D01*
X242550070Y-132621041D01*
X242475571Y-132246511D01*
X242150715Y-131760330D01*
X241664534Y-131435474D01*
X241091045Y-131321400D01*
X240721555Y-131321400D01*
X240148066Y-131435474D01*
X239661885Y-131760330D01*
X239337029Y-132246511D01*
X239222955Y-132820000D01*
X239337029Y-133393489D01*
X239661885Y-133879670D01*
X239976666Y-134090000D01*
X239661885Y-134300330D01*
X239337029Y-134786511D01*
X239222955Y-135360000D01*
X239337029Y-135933489D01*
X239661885Y-136419670D01*
X239676213Y-136429243D01*
X239654983Y-136433238D01*
X239438859Y-136572310D01*
X239293869Y-136784510D01*
X239242860Y-137036400D01*
X239242860Y-138763600D01*
X239287138Y-138998917D01*
X239426210Y-139215041D01*
X239638410Y-139360031D01*
X239890300Y-139411040D01*
X241922300Y-139411040D01*
X242157617Y-139366762D01*
X242373741Y-139227690D01*
X242518731Y-139015490D01*
X242546262Y-138879537D01*
X242546035Y-139140391D01*
X242779232Y-139704771D01*
X243210657Y-140136951D01*
X243774630Y-140371133D01*
X244188037Y-140371493D01*
X244849300Y-141032756D01*
X244849300Y-143940434D01*
X244589300Y-144329550D01*
X244307128Y-143907251D01*
X243853909Y-143604419D01*
X243319300Y-143498079D01*
X242784691Y-143604419D01*
X242331472Y-143907251D01*
X242049300Y-144329550D01*
X241767128Y-143907251D01*
X241313909Y-143604419D01*
X240779300Y-143498079D01*
X240244691Y-143604419D01*
X239791472Y-143907251D01*
X239509300Y-144329550D01*
X239227128Y-143907251D01*
X238773909Y-143604419D01*
X238239300Y-143498079D01*
X237704691Y-143604419D01*
X237251472Y-143907251D01*
X236948640Y-144360470D01*
X236842300Y-144895079D01*
X226448727Y-144895079D01*
X226154542Y-144183100D01*
X225529889Y-143557355D01*
X224713322Y-143218287D01*
X223829157Y-143217515D01*
X223012000Y-143555158D01*
X222386255Y-144179811D01*
X222047187Y-144996378D01*
X222046415Y-145880543D01*
X221475300Y-145880543D01*
X221475300Y-144540506D01*
X222708103Y-143307703D01*
X222735966Y-143265689D01*
X222745300Y-143217900D01*
X222745300Y-135788400D01*
X222735294Y-135738990D01*
X222708103Y-135698597D01*
X217855800Y-130846294D01*
X217855800Y-128000000D01*
X270132546Y-128000000D01*
X270256287Y-128622090D01*
X270608673Y-129149473D01*
X271136056Y-129501859D01*
X271758146Y-129625600D01*
X273841854Y-129625600D01*
X274463944Y-129501859D01*
X274991327Y-129149473D01*
X275343713Y-128622090D01*
X275467454Y-128000000D01*
X275343713Y-127377910D01*
X274991327Y-126850527D01*
X274463944Y-126498141D01*
X273841854Y-126374400D01*
X271758146Y-126374400D01*
X271136056Y-126498141D01*
X270608673Y-126850527D01*
X270256287Y-127377910D01*
X270132546Y-128000000D01*
X217855800Y-128000000D01*
X217855800Y-115975591D01*
X260707035Y-115975591D01*
X260940232Y-116539971D01*
X261371657Y-116972151D01*
X261935630Y-117206333D01*
X262546291Y-117206865D01*
X263110671Y-116973668D01*
X263351159Y-116733600D01*
X266842230Y-116733600D01*
X266651167Y-117193730D01*
X266650635Y-117804391D01*
X266883832Y-118368771D01*
X267315257Y-118800951D01*
X267879230Y-119035133D01*
X268489891Y-119035665D01*
X269054271Y-118802468D01*
X269421981Y-118435400D01*
X272758735Y-118435400D01*
X273006930Y-118684029D01*
X273214812Y-118770349D01*
X273008997Y-118855390D01*
X272758550Y-119105400D01*
X263655655Y-119105400D01*
X263290743Y-118739849D01*
X262726770Y-118505667D01*
X262116109Y-118505135D01*
X261551729Y-118738332D01*
X261119549Y-119169757D01*
X260885367Y-119733730D01*
X260884835Y-120344391D01*
X261118032Y-120908771D01*
X261549457Y-121340951D01*
X262113430Y-121575133D01*
X262724091Y-121575665D01*
X263288471Y-121342468D01*
X263656181Y-120975400D01*
X272758735Y-120975400D01*
X273006930Y-121224029D01*
X273214812Y-121310349D01*
X273008997Y-121395390D01*
X272615671Y-121788030D01*
X272402543Y-122301300D01*
X272402058Y-122857061D01*
X272614290Y-123370703D01*
X273006930Y-123764029D01*
X273520200Y-123977157D01*
X274075961Y-123977642D01*
X274589603Y-123765410D01*
X274982929Y-123372770D01*
X275069249Y-123164888D01*
X275154290Y-123370703D01*
X275546930Y-123764029D01*
X276060200Y-123977157D01*
X276615961Y-123977642D01*
X277129603Y-123765410D01*
X277522929Y-123372770D01*
X277736057Y-122859500D01*
X277736542Y-122303739D01*
X277524310Y-121790097D01*
X277131670Y-121396771D01*
X276923788Y-121310451D01*
X277129603Y-121225410D01*
X277522929Y-120832770D01*
X277736057Y-120319500D01*
X277736366Y-119965624D01*
X278626045Y-119075945D01*
X278653315Y-119035133D01*
X278828727Y-118772609D01*
X278854477Y-118643158D01*
X278899901Y-118414800D01*
X278899900Y-118414795D01*
X278899900Y-116789200D01*
X278828727Y-116431391D01*
X278626045Y-116128055D01*
X277635445Y-115137455D01*
X277332109Y-114934773D01*
X276974300Y-114863600D01*
X263569313Y-114863600D01*
X263544368Y-114803229D01*
X263112943Y-114371049D01*
X262548970Y-114136867D01*
X261938309Y-114136335D01*
X261373929Y-114369532D01*
X260941749Y-114800957D01*
X260707567Y-115364930D01*
X260707035Y-115975591D01*
X217855800Y-115975591D01*
X217855800Y-112860543D01*
X274116415Y-112860543D01*
X274454058Y-113677700D01*
X275078711Y-114303445D01*
X275895278Y-114642513D01*
X276779443Y-114643285D01*
X277596600Y-114305642D01*
X278222345Y-113680989D01*
X278561413Y-112864422D01*
X278562185Y-111980257D01*
X278224542Y-111163100D01*
X277599889Y-110537355D01*
X276783322Y-110198287D01*
X275899157Y-110197515D01*
X275082000Y-110535158D01*
X274456255Y-111159811D01*
X274117187Y-111976378D01*
X274116415Y-112860543D01*
X217855800Y-112860543D01*
X217855800Y-98566506D01*
X218801763Y-97620543D01*
X223316415Y-97620543D01*
X223654058Y-98437700D01*
X224278711Y-99063445D01*
X225095278Y-99402513D01*
X225979443Y-99403285D01*
X226796600Y-99065642D01*
X227422345Y-98440989D01*
X227705118Y-97759996D01*
X227804640Y-98260330D01*
X228107472Y-98713549D01*
X228560691Y-99016381D01*
X229095300Y-99122721D01*
X229629909Y-99016381D01*
X230083128Y-98713549D01*
X230365300Y-98291250D01*
X230647472Y-98713549D01*
X231100691Y-99016381D01*
X231635300Y-99122721D01*
X232169909Y-99016381D01*
X232623128Y-98713549D01*
X232905300Y-98291250D01*
X233187472Y-98713549D01*
X233640691Y-99016381D01*
X234175300Y-99122721D01*
X234709909Y-99016381D01*
X235163128Y-98713549D01*
X235454630Y-98277287D01*
X235473241Y-98340341D01*
X235817274Y-98766030D01*
X236298023Y-99027660D01*
X236372230Y-99042620D01*
X236588300Y-98920120D01*
X236588300Y-97307400D01*
X236568300Y-97307400D01*
X236568300Y-97053400D01*
X236588300Y-97053400D01*
X236588300Y-95440680D01*
X236842300Y-95440680D01*
X236842300Y-97053400D01*
X236862300Y-97053400D01*
X236862300Y-97307400D01*
X236842300Y-97307400D01*
X236842300Y-98920120D01*
X237058370Y-99042620D01*
X237132577Y-99027660D01*
X237613326Y-98766030D01*
X237957359Y-98340341D01*
X237975970Y-98277287D01*
X238267472Y-98713549D01*
X238720691Y-99016381D01*
X239255300Y-99122721D01*
X239789909Y-99016381D01*
X240243128Y-98713549D01*
X240525300Y-98291250D01*
X240807472Y-98713549D01*
X241260691Y-99016381D01*
X241795300Y-99122721D01*
X242329909Y-99016381D01*
X242783128Y-98713549D01*
X243065300Y-98291250D01*
X243347472Y-98713549D01*
X243800691Y-99016381D01*
X244335300Y-99122721D01*
X244869909Y-99016381D01*
X245323128Y-98713549D01*
X245605300Y-98291250D01*
X245887472Y-98713549D01*
X245940300Y-98748848D01*
X245940300Y-101583600D01*
X245600149Y-101923157D01*
X245365967Y-102487130D01*
X245365435Y-103097791D01*
X245598632Y-103662171D01*
X245827620Y-103891560D01*
X245754900Y-103891560D01*
X245519583Y-103935838D01*
X245303459Y-104074910D01*
X245158469Y-104287110D01*
X245107460Y-104539000D01*
X245107460Y-106571000D01*
X245151738Y-106806317D01*
X245290810Y-107022441D01*
X245503010Y-107167431D01*
X245754900Y-107218440D01*
X247482100Y-107218440D01*
X247717417Y-107174162D01*
X247933541Y-107035090D01*
X248078531Y-106822890D01*
X248086900Y-106781561D01*
X248098830Y-106799415D01*
X248585011Y-107124271D01*
X249158500Y-107238345D01*
X249731989Y-107124271D01*
X250218170Y-106799415D01*
X250428500Y-106484634D01*
X250638830Y-106799415D01*
X251125011Y-107124271D01*
X251698500Y-107238345D01*
X252271989Y-107124271D01*
X252758170Y-106799415D01*
X252968500Y-106484634D01*
X253178830Y-106799415D01*
X253665011Y-107124271D01*
X254238500Y-107238345D01*
X254811989Y-107124271D01*
X255298170Y-106799415D01*
X255508500Y-106484634D01*
X255718830Y-106799415D01*
X256205011Y-107124271D01*
X256778500Y-107238345D01*
X257351989Y-107124271D01*
X257838170Y-106799415D01*
X258048500Y-106484634D01*
X258258830Y-106799415D01*
X258745011Y-107124271D01*
X259318500Y-107238345D01*
X259891989Y-107124271D01*
X260378170Y-106799415D01*
X260584961Y-106489931D01*
X260956464Y-106905732D01*
X261483709Y-107159709D01*
X261499474Y-107162358D01*
X261731500Y-107041217D01*
X261731500Y-105682000D01*
X261985500Y-105682000D01*
X261985500Y-107041217D01*
X262217526Y-107162358D01*
X262233291Y-107159709D01*
X262760536Y-106905732D01*
X263150454Y-106469320D01*
X263343684Y-105916913D01*
X263199424Y-105682000D01*
X261985500Y-105682000D01*
X261731500Y-105682000D01*
X261711500Y-105682000D01*
X261711500Y-105428000D01*
X261731500Y-105428000D01*
X261731500Y-104068783D01*
X261985500Y-104068783D01*
X261985500Y-105428000D01*
X263199424Y-105428000D01*
X263343684Y-105193087D01*
X263150454Y-104640680D01*
X262760536Y-104204268D01*
X262233291Y-103950291D01*
X262217526Y-103947642D01*
X261985500Y-104068783D01*
X261731500Y-104068783D01*
X261499474Y-103947642D01*
X261483709Y-103950291D01*
X260956464Y-104204268D01*
X260584961Y-104620069D01*
X260378170Y-104310585D01*
X259891989Y-103985729D01*
X259318500Y-103871655D01*
X258745011Y-103985729D01*
X258258830Y-104310585D01*
X258048500Y-104625366D01*
X257838170Y-104310585D01*
X257351989Y-103985729D01*
X256778500Y-103871655D01*
X256205011Y-103985729D01*
X255718830Y-104310585D01*
X255508500Y-104625366D01*
X255298170Y-104310585D01*
X254811989Y-103985729D01*
X254238500Y-103871655D01*
X254088142Y-103901563D01*
X254252033Y-103506870D01*
X254252486Y-102987304D01*
X254907990Y-102331800D01*
X261048500Y-102331800D01*
X261406309Y-102260627D01*
X261709645Y-102057945D01*
X262913978Y-100853611D01*
X262815767Y-101090130D01*
X262815235Y-101700791D01*
X263048432Y-102265171D01*
X263479857Y-102697351D01*
X264043830Y-102931533D01*
X264654491Y-102932065D01*
X265218871Y-102698868D01*
X265535692Y-102382600D01*
X265798300Y-102382600D01*
X266156109Y-102311427D01*
X266459445Y-102108745D01*
X269380445Y-99187745D01*
X269583127Y-98884409D01*
X269603316Y-98782914D01*
X269707128Y-98713549D01*
X269989300Y-98291250D01*
X270271472Y-98713549D01*
X270724691Y-99016381D01*
X271259300Y-99122721D01*
X271793909Y-99016381D01*
X272247128Y-98713549D01*
X272529300Y-98291250D01*
X272811472Y-98713549D01*
X273264691Y-99016381D01*
X273799300Y-99122721D01*
X274333909Y-99016381D01*
X274787128Y-98713549D01*
X275089960Y-98260330D01*
X275196300Y-97725721D01*
X275196300Y-96635079D01*
X275089960Y-96100470D01*
X274787128Y-95647251D01*
X274333909Y-95344419D01*
X273799300Y-95238079D01*
X273264691Y-95344419D01*
X272811472Y-95647251D01*
X272529300Y-96069550D01*
X272247128Y-95647251D01*
X271793909Y-95344419D01*
X271259300Y-95238079D01*
X270724691Y-95344419D01*
X270271472Y-95647251D01*
X269989300Y-96069550D01*
X269707128Y-95647251D01*
X269253909Y-95344419D01*
X268719300Y-95238079D01*
X268184691Y-95344419D01*
X267731472Y-95647251D01*
X267449300Y-96069550D01*
X267167128Y-95647251D01*
X266713909Y-95344419D01*
X266179300Y-95238079D01*
X265644691Y-95344419D01*
X265191472Y-95647251D01*
X264909300Y-96069550D01*
X264627128Y-95647251D01*
X264173909Y-95344419D01*
X263639300Y-95238079D01*
X263104691Y-95344419D01*
X262651472Y-95647251D01*
X262369300Y-96069550D01*
X262087128Y-95647251D01*
X261633909Y-95344419D01*
X261099300Y-95238079D01*
X260564691Y-95344419D01*
X260111472Y-95647251D01*
X259829300Y-96069550D01*
X259547128Y-95647251D01*
X259093909Y-95344419D01*
X258559300Y-95238079D01*
X258024691Y-95344419D01*
X257571472Y-95647251D01*
X257289300Y-96069550D01*
X257007128Y-95647251D01*
X256553909Y-95344419D01*
X256019300Y-95238079D01*
X255484691Y-95344419D01*
X255031472Y-95647251D01*
X254728640Y-96100470D01*
X254622300Y-96635079D01*
X254622300Y-97725721D01*
X254728640Y-98260330D01*
X255031472Y-98713549D01*
X255484691Y-99016381D01*
X256019300Y-99122721D01*
X256553909Y-99016381D01*
X257007128Y-98713549D01*
X257289300Y-98291250D01*
X257571472Y-98713549D01*
X258024691Y-99016381D01*
X258559300Y-99122721D01*
X259093909Y-99016381D01*
X259547128Y-98713549D01*
X259829300Y-98291250D01*
X260111472Y-98713549D01*
X260564691Y-99016381D01*
X261099300Y-99122721D01*
X261633909Y-99016381D01*
X262087128Y-98713549D01*
X262369300Y-98291250D01*
X262554536Y-98568475D01*
X260661210Y-100461800D01*
X254520700Y-100461800D01*
X254162891Y-100532973D01*
X253859555Y-100735655D01*
X252929825Y-101665385D01*
X252413309Y-101664935D01*
X251848929Y-101898132D01*
X251416749Y-102329557D01*
X251182567Y-102893530D01*
X251182035Y-103504191D01*
X251361561Y-103938676D01*
X251125011Y-103985729D01*
X250638830Y-104310585D01*
X250428500Y-104625366D01*
X250218170Y-104310585D01*
X249731989Y-103985729D01*
X249158500Y-103871655D01*
X248585011Y-103985729D01*
X248098830Y-104310585D01*
X248089257Y-104324913D01*
X248085262Y-104303683D01*
X247946190Y-104087559D01*
X247845983Y-104019090D01*
X248201251Y-103664443D01*
X248435433Y-103100470D01*
X248435965Y-102489809D01*
X248202768Y-101925429D01*
X247810300Y-101532274D01*
X247810300Y-98748848D01*
X247863128Y-98713549D01*
X248145300Y-98291250D01*
X248427472Y-98713549D01*
X248880691Y-99016381D01*
X249415300Y-99122721D01*
X249949909Y-99016381D01*
X250403128Y-98713549D01*
X250685300Y-98291250D01*
X250967472Y-98713549D01*
X251420691Y-99016381D01*
X251955300Y-99122721D01*
X252489909Y-99016381D01*
X252943128Y-98713549D01*
X253245960Y-98260330D01*
X253352300Y-97725721D01*
X253352300Y-96635079D01*
X253245960Y-96100470D01*
X252943128Y-95647251D01*
X252489909Y-95344419D01*
X251955300Y-95238079D01*
X251420691Y-95344419D01*
X250967472Y-95647251D01*
X250685300Y-96069550D01*
X250403128Y-95647251D01*
X249949909Y-95344419D01*
X249415300Y-95238079D01*
X248880691Y-95344419D01*
X248427472Y-95647251D01*
X248145300Y-96069550D01*
X247863128Y-95647251D01*
X247409909Y-95344419D01*
X246875300Y-95238079D01*
X246340691Y-95344419D01*
X245887472Y-95647251D01*
X245605300Y-96069550D01*
X245323128Y-95647251D01*
X244869909Y-95344419D01*
X244335300Y-95238079D01*
X243800691Y-95344419D01*
X243347472Y-95647251D01*
X243065300Y-96069550D01*
X242783128Y-95647251D01*
X242329909Y-95344419D01*
X241795300Y-95238079D01*
X241260691Y-95344419D01*
X240807472Y-95647251D01*
X240525300Y-96069550D01*
X240243128Y-95647251D01*
X239789909Y-95344419D01*
X239255300Y-95238079D01*
X238720691Y-95344419D01*
X238267472Y-95647251D01*
X237975970Y-96083513D01*
X237957359Y-96020459D01*
X237613326Y-95594770D01*
X237132577Y-95333140D01*
X237058370Y-95318180D01*
X236842300Y-95440680D01*
X236588300Y-95440680D01*
X236372230Y-95318180D01*
X236298023Y-95333140D01*
X235817274Y-95594770D01*
X235473241Y-96020459D01*
X235454630Y-96083513D01*
X235163128Y-95647251D01*
X234709909Y-95344419D01*
X234175300Y-95238079D01*
X233640691Y-95344419D01*
X233187472Y-95647251D01*
X232905300Y-96069550D01*
X232623128Y-95647251D01*
X232169909Y-95344419D01*
X231635300Y-95238079D01*
X231100691Y-95344419D01*
X230647472Y-95647251D01*
X230365300Y-96069550D01*
X230083128Y-95647251D01*
X229629909Y-95344419D01*
X229095300Y-95238079D01*
X228560691Y-95344419D01*
X228107472Y-95647251D01*
X227804640Y-96100470D01*
X227704938Y-96601708D01*
X227424542Y-95923100D01*
X226799889Y-95297355D01*
X225983322Y-94958287D01*
X225099157Y-94957515D01*
X224282000Y-95295158D01*
X223656255Y-95919811D01*
X223317187Y-96736378D01*
X223316415Y-97620543D01*
X218801763Y-97620543D01*
X221845406Y-94576900D01*
X275143694Y-94576900D01*
X276402800Y-95836006D01*
M02*
