M48
;DRILL file {KiCad 4.0.1-2.201512121406+6195~38~ubuntu15.10.1-stable} date lun 14 dic 2015 21:42:06 CLT
;FORMAT={-:-/ absolute / metric / decimal}
FMAT,2
METRIC,TZ
T1C0.900
T2C1.016
T3C1.321
T4C3.175
%
G90
G05
M71
T1
X239.497Y-117.462
X244.081Y-138.836
X246.901Y-102.794
X252.717Y-103.2
X259.118Y-140.703
X262.242Y-115.672
X262.42Y-120.04
X264.351Y-101.397
X268.186Y-117.5
T2
X229.095Y-97.18
X231.635Y-97.18
X234.175Y-97.18
X236.715Y-97.18
X238.239Y-145.44
X239.255Y-97.18
X240.779Y-145.44
X240.906Y-132.82
X240.906Y-135.36
X240.906Y-137.9
X241.795Y-97.18
X243.319Y-145.44
X244.335Y-97.18
X245.859Y-145.44
X246.618Y-105.555
X246.618Y-136.055
X246.875Y-97.18
X248.399Y-145.44
X249.158Y-105.555
X249.158Y-136.055
X249.415Y-97.18
X250.939Y-145.44
X251.698Y-105.555
X251.698Y-136.055
X251.955Y-97.18
X253.479Y-145.44
X254.238Y-105.555
X254.238Y-136.055
X256.019Y-97.18
X256.019Y-145.44
X256.779Y-105.555
X256.779Y-136.055
X258.559Y-97.18
X259.318Y-105.555
X259.318Y-136.055
X261.099Y-97.18
X261.099Y-145.44
X261.858Y-105.555
X261.858Y-136.055
X263.639Y-97.18
X263.639Y-145.44
X265.1Y-136.83
X265.1Y-139.37
X266.179Y-97.18
X266.179Y-145.44
X268.719Y-97.18
X268.719Y-145.44
X271.259Y-97.18
X271.259Y-145.44
X273.799Y-97.18
X273.799Y-117.5
X273.799Y-120.04
X273.799Y-122.58
X273.799Y-145.44
X276.339Y-117.5
X276.339Y-120.04
X276.339Y-122.58
T3
X272.8Y-128.
X272.8Y-133.
T4
X224.269Y-145.44
X225.539Y-97.18
X276.339Y-112.42
X276.339Y-140.36
T0
M30
