G04 #@! TF.FileFunction,Legend,Top*
%FSLAX46Y46*%
G04 Gerber Fmt 4.6, Leading zero omitted, Abs format (unit mm)*
G04 Created by KiCad (PCBNEW 4.0.1-2.201512121406+6195~38~ubuntu15.10.1-stable) date lun 14 dic 2015 21:42:08 CLT*
%MOMM*%
G01*
G04 APERTURE LIST*
%ADD10C,0.150000*%
%ADD11C,0.300000*%
%ADD12C,0.304800*%
G04 APERTURE END LIST*
D10*
D11*
X266998414Y-139619800D02*
X267712700Y-139619800D01*
X266855557Y-140048371D02*
X267355557Y-138548371D01*
X267855557Y-140048371D01*
X269212700Y-140048371D02*
X268712700Y-139334086D01*
X268355557Y-140048371D02*
X268355557Y-138548371D01*
X268926985Y-138548371D01*
X269069843Y-138619800D01*
X269141271Y-138691229D01*
X269212700Y-138834086D01*
X269212700Y-139048371D01*
X269141271Y-139191229D01*
X269069843Y-139262657D01*
X268926985Y-139334086D01*
X268355557Y-139334086D01*
X269498414Y-140191229D02*
X270641271Y-140191229D01*
X270784128Y-138548371D02*
X271284128Y-140048371D01*
X271784128Y-138548371D01*
X272284128Y-140048371D02*
X272284128Y-138548371D01*
X272998414Y-140048371D02*
X272998414Y-138548371D01*
X273855557Y-140048371D01*
X273855557Y-138548371D01*
X267569843Y-136722657D02*
X267784129Y-136794086D01*
X267855557Y-136865514D01*
X267926986Y-137008371D01*
X267926986Y-137222657D01*
X267855557Y-137365514D01*
X267784129Y-137436943D01*
X267641271Y-137508371D01*
X267069843Y-137508371D01*
X267069843Y-136008371D01*
X267569843Y-136008371D01*
X267712700Y-136079800D01*
X267784129Y-136151229D01*
X267855557Y-136294086D01*
X267855557Y-136436943D01*
X267784129Y-136579800D01*
X267712700Y-136651229D01*
X267569843Y-136722657D01*
X267069843Y-136722657D01*
X268498414Y-137079800D02*
X269212700Y-137079800D01*
X268355557Y-137508371D02*
X268855557Y-136008371D01*
X269355557Y-137508371D01*
X269641271Y-136008371D02*
X270498414Y-136008371D01*
X270069843Y-137508371D02*
X270069843Y-136008371D01*
X270784128Y-136008371D02*
X271641271Y-136008371D01*
X271212700Y-137508371D02*
X271212700Y-136008371D01*
X235571428Y-134538571D02*
X236071428Y-136038571D01*
X236571428Y-134538571D01*
X237071428Y-136038571D02*
X237071428Y-134538571D01*
X237785714Y-136038571D02*
X237785714Y-134538571D01*
X238642857Y-136038571D01*
X238642857Y-134538571D01*
X231785715Y-133498571D02*
X231785715Y-131998571D01*
X232500001Y-133498571D02*
X232500001Y-131998571D01*
X233357144Y-133498571D01*
X233357144Y-131998571D01*
X233714287Y-133641429D02*
X234857144Y-133641429D01*
X235071430Y-131998571D02*
X236000001Y-131998571D01*
X235500001Y-132570000D01*
X235714287Y-132570000D01*
X235857144Y-132641429D01*
X235928573Y-132712857D01*
X236000001Y-132855714D01*
X236000001Y-133212857D01*
X235928573Y-133355714D01*
X235857144Y-133427143D01*
X235714287Y-133498571D01*
X235285715Y-133498571D01*
X235142858Y-133427143D01*
X235071430Y-133355714D01*
X236428572Y-131998571D02*
X236928572Y-133498571D01*
X237428572Y-131998571D01*
X237785715Y-131998571D02*
X238714286Y-131998571D01*
X238214286Y-132570000D01*
X238428572Y-132570000D01*
X238571429Y-132641429D01*
X238642858Y-132712857D01*
X238714286Y-132855714D01*
X238714286Y-133212857D01*
X238642858Y-133355714D01*
X238571429Y-133427143D01*
X238428572Y-133498571D01*
X238000000Y-133498571D01*
X237857143Y-133427143D01*
X237785715Y-133355714D01*
X233857144Y-138150000D02*
X234571430Y-138150000D01*
X233714287Y-138578571D02*
X234214287Y-137078571D01*
X234714287Y-138578571D01*
X235071430Y-137078571D02*
X236000001Y-137078571D01*
X235500001Y-137650000D01*
X235714287Y-137650000D01*
X235857144Y-137721429D01*
X235928573Y-137792857D01*
X236000001Y-137935714D01*
X236000001Y-138292857D01*
X235928573Y-138435714D01*
X235857144Y-138507143D01*
X235714287Y-138578571D01*
X235285715Y-138578571D01*
X235142858Y-138507143D01*
X235071430Y-138435714D01*
X236428572Y-137078571D02*
X236928572Y-138578571D01*
X237428572Y-137078571D01*
X237785715Y-137078571D02*
X238714286Y-137078571D01*
X238214286Y-137650000D01*
X238428572Y-137650000D01*
X238571429Y-137721429D01*
X238642858Y-137792857D01*
X238714286Y-137935714D01*
X238714286Y-138292857D01*
X238642858Y-138435714D01*
X238571429Y-138507143D01*
X238428572Y-138578571D01*
X238000000Y-138578571D01*
X237857143Y-138507143D01*
X237785715Y-138435714D01*
X261108500Y-110705472D02*
X261037071Y-110848329D01*
X261037071Y-111062615D01*
X261108500Y-111276900D01*
X261251357Y-111419758D01*
X261394214Y-111491186D01*
X261679929Y-111562615D01*
X261894214Y-111562615D01*
X262179929Y-111491186D01*
X262322786Y-111419758D01*
X262465643Y-111276900D01*
X262537071Y-111062615D01*
X262537071Y-110919758D01*
X262465643Y-110705472D01*
X262394214Y-110634043D01*
X261894214Y-110634043D01*
X261894214Y-110919758D01*
X262537071Y-109991186D02*
X261037071Y-109991186D01*
X262537071Y-109134043D01*
X261037071Y-109134043D01*
X262537071Y-108419757D02*
X261037071Y-108419757D01*
X261037071Y-108062614D01*
X261108500Y-107848329D01*
X261251357Y-107705471D01*
X261394214Y-107634043D01*
X261679929Y-107562614D01*
X261894214Y-107562614D01*
X262179929Y-107634043D01*
X262322786Y-107705471D01*
X262465643Y-107848329D01*
X262537071Y-108062614D01*
X262537071Y-108419757D01*
X259925643Y-111491186D02*
X259997071Y-111276900D01*
X259997071Y-110919757D01*
X259925643Y-110776900D01*
X259854214Y-110705471D01*
X259711357Y-110634043D01*
X259568500Y-110634043D01*
X259425643Y-110705471D01*
X259354214Y-110776900D01*
X259282786Y-110919757D01*
X259211357Y-111205471D01*
X259139929Y-111348329D01*
X259068500Y-111419757D01*
X258925643Y-111491186D01*
X258782786Y-111491186D01*
X258639929Y-111419757D01*
X258568500Y-111348329D01*
X258497071Y-111205471D01*
X258497071Y-110848329D01*
X258568500Y-110634043D01*
X259997071Y-109991186D02*
X258497071Y-109991186D01*
X258497071Y-109634043D01*
X258568500Y-109419758D01*
X258711357Y-109276900D01*
X258854214Y-109205472D01*
X259139929Y-109134043D01*
X259354214Y-109134043D01*
X259639929Y-109205472D01*
X259782786Y-109276900D01*
X259925643Y-109419758D01*
X259997071Y-109634043D01*
X259997071Y-109991186D01*
X258497071Y-108205472D02*
X258497071Y-107919758D01*
X258568500Y-107776900D01*
X258711357Y-107634043D01*
X258997071Y-107562615D01*
X259497071Y-107562615D01*
X259782786Y-107634043D01*
X259925643Y-107776900D01*
X259997071Y-107919758D01*
X259997071Y-108205472D01*
X259925643Y-108348329D01*
X259782786Y-108491186D01*
X259497071Y-108562615D01*
X258997071Y-108562615D01*
X258711357Y-108491186D01*
X258568500Y-108348329D01*
X258497071Y-108205472D01*
X257385643Y-110634043D02*
X257457071Y-110419757D01*
X257457071Y-110062614D01*
X257385643Y-109919757D01*
X257314214Y-109848328D01*
X257171357Y-109776900D01*
X257028500Y-109776900D01*
X256885643Y-109848328D01*
X256814214Y-109919757D01*
X256742786Y-110062614D01*
X256671357Y-110348328D01*
X256599929Y-110491186D01*
X256528500Y-110562614D01*
X256385643Y-110634043D01*
X256242786Y-110634043D01*
X256099929Y-110562614D01*
X256028500Y-110491186D01*
X255957071Y-110348328D01*
X255957071Y-109991186D01*
X256028500Y-109776900D01*
X257457071Y-109134043D02*
X255957071Y-109134043D01*
X255957071Y-108776900D01*
X256028500Y-108562615D01*
X256171357Y-108419757D01*
X256314214Y-108348329D01*
X256599929Y-108276900D01*
X256814214Y-108276900D01*
X257099929Y-108348329D01*
X257242786Y-108419757D01*
X257385643Y-108562615D01*
X257457071Y-108776900D01*
X257457071Y-109134043D01*
X257457071Y-107634043D02*
X255957071Y-107634043D01*
X254845643Y-111419757D02*
X254917071Y-111205471D01*
X254917071Y-110848328D01*
X254845643Y-110705471D01*
X254774214Y-110634042D01*
X254631357Y-110562614D01*
X254488500Y-110562614D01*
X254345643Y-110634042D01*
X254274214Y-110705471D01*
X254202786Y-110848328D01*
X254131357Y-111134042D01*
X254059929Y-111276900D01*
X253988500Y-111348328D01*
X253845643Y-111419757D01*
X253702786Y-111419757D01*
X253559929Y-111348328D01*
X253488500Y-111276900D01*
X253417071Y-111134042D01*
X253417071Y-110776900D01*
X253488500Y-110562614D01*
X254774214Y-109062614D02*
X254845643Y-109134043D01*
X254917071Y-109348329D01*
X254917071Y-109491186D01*
X254845643Y-109705471D01*
X254702786Y-109848329D01*
X254559929Y-109919757D01*
X254274214Y-109991186D01*
X254059929Y-109991186D01*
X253774214Y-109919757D01*
X253631357Y-109848329D01*
X253488500Y-109705471D01*
X253417071Y-109491186D01*
X253417071Y-109348329D01*
X253488500Y-109134043D01*
X253559929Y-109062614D01*
X254917071Y-108419757D02*
X253417071Y-108419757D01*
X254917071Y-107562614D02*
X254059929Y-108205471D01*
X253417071Y-107562614D02*
X254274214Y-108419757D01*
X252377071Y-112491186D02*
X250877071Y-112491186D01*
X252377071Y-111634043D01*
X250877071Y-111634043D01*
X252305643Y-110991186D02*
X252377071Y-110776900D01*
X252377071Y-110419757D01*
X252305643Y-110276900D01*
X252234214Y-110205471D01*
X252091357Y-110134043D01*
X251948500Y-110134043D01*
X251805643Y-110205471D01*
X251734214Y-110276900D01*
X251662786Y-110419757D01*
X251591357Y-110705471D01*
X251519929Y-110848329D01*
X251448500Y-110919757D01*
X251305643Y-110991186D01*
X251162786Y-110991186D01*
X251019929Y-110919757D01*
X250948500Y-110848329D01*
X250877071Y-110705471D01*
X250877071Y-110348329D01*
X250948500Y-110134043D01*
X251591357Y-109491186D02*
X251591357Y-108991186D01*
X252377071Y-108776900D02*
X252377071Y-109491186D01*
X250877071Y-109491186D01*
X250877071Y-108776900D01*
X252377071Y-107419757D02*
X252377071Y-108134043D01*
X250877071Y-108134043D01*
X249837071Y-112276901D02*
X248337071Y-112276901D01*
X249837071Y-111419758D01*
X248337071Y-111419758D01*
X249837071Y-110705472D02*
X248337071Y-110705472D01*
X249837071Y-109134043D02*
X249122786Y-109634043D01*
X249837071Y-109991186D02*
X248337071Y-109991186D01*
X248337071Y-109419758D01*
X248408500Y-109276900D01*
X248479929Y-109205472D01*
X248622786Y-109134043D01*
X248837071Y-109134043D01*
X248979929Y-109205472D01*
X249051357Y-109276900D01*
X249122786Y-109419758D01*
X249122786Y-109991186D01*
X249979929Y-107491186D02*
X249908500Y-107634043D01*
X249765643Y-107776900D01*
X249551357Y-107991186D01*
X249479929Y-108134043D01*
X249479929Y-108276900D01*
X249837071Y-108205472D02*
X249765643Y-108348329D01*
X249622786Y-108491186D01*
X249337071Y-108562615D01*
X248837071Y-108562615D01*
X248551357Y-108491186D01*
X248408500Y-108348329D01*
X248337071Y-108205472D01*
X248337071Y-107919758D01*
X248408500Y-107776900D01*
X248551357Y-107634043D01*
X248837071Y-107562615D01*
X249337071Y-107562615D01*
X249622786Y-107634043D01*
X249765643Y-107776900D01*
X249837071Y-107919758D01*
X249837071Y-108205472D01*
X247225643Y-111491186D02*
X247297071Y-111276900D01*
X247297071Y-110919757D01*
X247225643Y-110776900D01*
X247154214Y-110705471D01*
X247011357Y-110634043D01*
X246868500Y-110634043D01*
X246725643Y-110705471D01*
X246654214Y-110776900D01*
X246582786Y-110919757D01*
X246511357Y-111205471D01*
X246439929Y-111348329D01*
X246368500Y-111419757D01*
X246225643Y-111491186D01*
X246082786Y-111491186D01*
X245939929Y-111419757D01*
X245868500Y-111348329D01*
X245797071Y-111205471D01*
X245797071Y-110848329D01*
X245868500Y-110634043D01*
X247297071Y-109991186D02*
X245797071Y-109991186D01*
X245797071Y-109634043D01*
X245868500Y-109419758D01*
X246011357Y-109276900D01*
X246154214Y-109205472D01*
X246439929Y-109134043D01*
X246654214Y-109134043D01*
X246939929Y-109205472D01*
X247082786Y-109276900D01*
X247225643Y-109419758D01*
X247297071Y-109634043D01*
X247297071Y-109991186D01*
X247297071Y-108491186D02*
X245797071Y-108491186D01*
X247297071Y-107634043D01*
X245797071Y-107634043D01*
X261108500Y-133057143D02*
X261037071Y-133200000D01*
X261037071Y-133414286D01*
X261108500Y-133628571D01*
X261251357Y-133771429D01*
X261394214Y-133842857D01*
X261679929Y-133914286D01*
X261894214Y-133914286D01*
X262179929Y-133842857D01*
X262322786Y-133771429D01*
X262465643Y-133628571D01*
X262537071Y-133414286D01*
X262537071Y-133271429D01*
X262465643Y-133057143D01*
X262394214Y-132985714D01*
X261894214Y-132985714D01*
X261894214Y-133271429D01*
X262537071Y-132342857D02*
X261037071Y-132342857D01*
X261037071Y-131771429D01*
X261108500Y-131628571D01*
X261179929Y-131557143D01*
X261322786Y-131485714D01*
X261537071Y-131485714D01*
X261679929Y-131557143D01*
X261751357Y-131628571D01*
X261822786Y-131771429D01*
X261822786Y-132342857D01*
X262537071Y-130842857D02*
X261037071Y-130842857D01*
X261037071Y-129842857D02*
X261037071Y-129557143D01*
X261108500Y-129414285D01*
X261251357Y-129271428D01*
X261537071Y-129200000D01*
X262037071Y-129200000D01*
X262322786Y-129271428D01*
X262465643Y-129414285D01*
X262537071Y-129557143D01*
X262537071Y-129842857D01*
X262465643Y-129985714D01*
X262322786Y-130128571D01*
X262037071Y-130200000D01*
X261537071Y-130200000D01*
X261251357Y-130128571D01*
X261108500Y-129985714D01*
X261037071Y-129842857D01*
X262679929Y-128914285D02*
X262679929Y-127771428D01*
X261179929Y-127485714D02*
X261108500Y-127414285D01*
X261037071Y-127271428D01*
X261037071Y-126914285D01*
X261108500Y-126771428D01*
X261179929Y-126699999D01*
X261322786Y-126628571D01*
X261465643Y-126628571D01*
X261679929Y-126699999D01*
X262537071Y-127557142D01*
X262537071Y-126628571D01*
X258568500Y-133057143D02*
X258497071Y-133200000D01*
X258497071Y-133414286D01*
X258568500Y-133628571D01*
X258711357Y-133771429D01*
X258854214Y-133842857D01*
X259139929Y-133914286D01*
X259354214Y-133914286D01*
X259639929Y-133842857D01*
X259782786Y-133771429D01*
X259925643Y-133628571D01*
X259997071Y-133414286D01*
X259997071Y-133271429D01*
X259925643Y-133057143D01*
X259854214Y-132985714D01*
X259354214Y-132985714D01*
X259354214Y-133271429D01*
X259997071Y-132342857D02*
X258497071Y-132342857D01*
X258497071Y-131771429D01*
X258568500Y-131628571D01*
X258639929Y-131557143D01*
X258782786Y-131485714D01*
X258997071Y-131485714D01*
X259139929Y-131557143D01*
X259211357Y-131628571D01*
X259282786Y-131771429D01*
X259282786Y-132342857D01*
X259997071Y-130842857D02*
X258497071Y-130842857D01*
X258497071Y-129842857D02*
X258497071Y-129557143D01*
X258568500Y-129414285D01*
X258711357Y-129271428D01*
X258997071Y-129200000D01*
X259497071Y-129200000D01*
X259782786Y-129271428D01*
X259925643Y-129414285D01*
X259997071Y-129557143D01*
X259997071Y-129842857D01*
X259925643Y-129985714D01*
X259782786Y-130128571D01*
X259497071Y-130200000D01*
X258997071Y-130200000D01*
X258711357Y-130128571D01*
X258568500Y-129985714D01*
X258497071Y-129842857D01*
X260139929Y-128914285D02*
X260139929Y-127771428D01*
X259997071Y-126628571D02*
X259997071Y-127485714D01*
X259997071Y-127057142D02*
X258497071Y-127057142D01*
X258711357Y-127199999D01*
X258854214Y-127342857D01*
X258925643Y-127485714D01*
X256028500Y-133057143D02*
X255957071Y-133200000D01*
X255957071Y-133414286D01*
X256028500Y-133628571D01*
X256171357Y-133771429D01*
X256314214Y-133842857D01*
X256599929Y-133914286D01*
X256814214Y-133914286D01*
X257099929Y-133842857D01*
X257242786Y-133771429D01*
X257385643Y-133628571D01*
X257457071Y-133414286D01*
X257457071Y-133271429D01*
X257385643Y-133057143D01*
X257314214Y-132985714D01*
X256814214Y-132985714D01*
X256814214Y-133271429D01*
X257457071Y-132342857D02*
X255957071Y-132342857D01*
X255957071Y-131771429D01*
X256028500Y-131628571D01*
X256099929Y-131557143D01*
X256242786Y-131485714D01*
X256457071Y-131485714D01*
X256599929Y-131557143D01*
X256671357Y-131628571D01*
X256742786Y-131771429D01*
X256742786Y-132342857D01*
X257457071Y-130842857D02*
X255957071Y-130842857D01*
X255957071Y-129842857D02*
X255957071Y-129557143D01*
X256028500Y-129414285D01*
X256171357Y-129271428D01*
X256457071Y-129200000D01*
X256957071Y-129200000D01*
X257242786Y-129271428D01*
X257385643Y-129414285D01*
X257457071Y-129557143D01*
X257457071Y-129842857D01*
X257385643Y-129985714D01*
X257242786Y-130128571D01*
X256957071Y-130200000D01*
X256457071Y-130200000D01*
X256171357Y-130128571D01*
X256028500Y-129985714D01*
X255957071Y-129842857D01*
X257599929Y-128914285D02*
X257599929Y-127771428D01*
X255957071Y-127128571D02*
X255957071Y-126985714D01*
X256028500Y-126842857D01*
X256099929Y-126771428D01*
X256242786Y-126699999D01*
X256528500Y-126628571D01*
X256885643Y-126628571D01*
X257171357Y-126699999D01*
X257314214Y-126771428D01*
X257385643Y-126842857D01*
X257457071Y-126985714D01*
X257457071Y-127128571D01*
X257385643Y-127271428D01*
X257314214Y-127342857D01*
X257171357Y-127414285D01*
X256885643Y-127485714D01*
X256528500Y-127485714D01*
X256242786Y-127414285D01*
X256099929Y-127342857D01*
X256028500Y-127271428D01*
X255957071Y-127128571D01*
X253417071Y-134057143D02*
X253417071Y-133200000D01*
X254917071Y-133628571D02*
X253417071Y-133628571D01*
X253417071Y-132842857D02*
X254917071Y-131842857D01*
X253417071Y-131842857D02*
X254917071Y-132842857D01*
X253417071Y-130985715D02*
X253417071Y-130700001D01*
X253488500Y-130557143D01*
X253631357Y-130414286D01*
X253917071Y-130342858D01*
X254417071Y-130342858D01*
X254702786Y-130414286D01*
X254845643Y-130557143D01*
X254917071Y-130700001D01*
X254917071Y-130985715D01*
X254845643Y-131128572D01*
X254702786Y-131271429D01*
X254417071Y-131342858D01*
X253917071Y-131342858D01*
X253631357Y-131271429D01*
X253488500Y-131128572D01*
X253417071Y-130985715D01*
X254917071Y-129700000D02*
X253417071Y-129700000D01*
X254917071Y-128842857D01*
X253417071Y-128842857D01*
X252377071Y-132985714D02*
X251662786Y-133485714D01*
X252377071Y-133842857D02*
X250877071Y-133842857D01*
X250877071Y-133271429D01*
X250948500Y-133128571D01*
X251019929Y-133057143D01*
X251162786Y-132985714D01*
X251377071Y-132985714D01*
X251519929Y-133057143D01*
X251591357Y-133128571D01*
X251662786Y-133271429D01*
X251662786Y-133842857D01*
X250877071Y-132485714D02*
X252377071Y-131485714D01*
X250877071Y-131485714D02*
X252377071Y-132485714D01*
X250877071Y-130628572D02*
X250877071Y-130342858D01*
X250948500Y-130200000D01*
X251091357Y-130057143D01*
X251377071Y-129985715D01*
X251877071Y-129985715D01*
X252162786Y-130057143D01*
X252305643Y-130200000D01*
X252377071Y-130342858D01*
X252377071Y-130628572D01*
X252305643Y-130771429D01*
X252162786Y-130914286D01*
X251877071Y-130985715D01*
X251377071Y-130985715D01*
X251091357Y-130914286D01*
X250948500Y-130771429D01*
X250877071Y-130628572D01*
X252377071Y-129342857D02*
X250877071Y-129342857D01*
X252377071Y-128485714D01*
X250877071Y-128485714D01*
X248337071Y-133985714D02*
X248337071Y-133057143D01*
X248908500Y-133557143D01*
X248908500Y-133342857D01*
X248979929Y-133200000D01*
X249051357Y-133128571D01*
X249194214Y-133057143D01*
X249551357Y-133057143D01*
X249694214Y-133128571D01*
X249765643Y-133200000D01*
X249837071Y-133342857D01*
X249837071Y-133771429D01*
X249765643Y-133914286D01*
X249694214Y-133985714D01*
X249694214Y-132414286D02*
X249765643Y-132342858D01*
X249837071Y-132414286D01*
X249765643Y-132485715D01*
X249694214Y-132414286D01*
X249837071Y-132414286D01*
X248337071Y-131842857D02*
X248337071Y-130914286D01*
X248908500Y-131414286D01*
X248908500Y-131200000D01*
X248979929Y-131057143D01*
X249051357Y-130985714D01*
X249194214Y-130914286D01*
X249551357Y-130914286D01*
X249694214Y-130985714D01*
X249765643Y-131057143D01*
X249837071Y-131200000D01*
X249837071Y-131628572D01*
X249765643Y-131771429D01*
X249694214Y-131842857D01*
X248337071Y-130485715D02*
X249837071Y-129985715D01*
X248337071Y-129485715D01*
X245868500Y-133057143D02*
X245797071Y-133200000D01*
X245797071Y-133414286D01*
X245868500Y-133628571D01*
X246011357Y-133771429D01*
X246154214Y-133842857D01*
X246439929Y-133914286D01*
X246654214Y-133914286D01*
X246939929Y-133842857D01*
X247082786Y-133771429D01*
X247225643Y-133628571D01*
X247297071Y-133414286D01*
X247297071Y-133271429D01*
X247225643Y-133057143D01*
X247154214Y-132985714D01*
X246654214Y-132985714D01*
X246654214Y-133271429D01*
X247297071Y-132342857D02*
X245797071Y-132342857D01*
X247297071Y-131485714D01*
X245797071Y-131485714D01*
X247297071Y-130771428D02*
X245797071Y-130771428D01*
X245797071Y-130414285D01*
X245868500Y-130200000D01*
X246011357Y-130057142D01*
X246154214Y-129985714D01*
X246439929Y-129914285D01*
X246654214Y-129914285D01*
X246939929Y-129985714D01*
X247082786Y-130057142D01*
X247225643Y-130200000D01*
X247297071Y-130414285D01*
X247297071Y-130771428D01*
X273003271Y-99785714D02*
X273003271Y-99642857D01*
X273074700Y-99500000D01*
X273146129Y-99428571D01*
X273288986Y-99357142D01*
X273574700Y-99285714D01*
X273931843Y-99285714D01*
X274217557Y-99357142D01*
X274360414Y-99428571D01*
X274431843Y-99500000D01*
X274503271Y-99642857D01*
X274503271Y-99785714D01*
X274431843Y-99928571D01*
X274360414Y-100000000D01*
X274217557Y-100071428D01*
X273931843Y-100142857D01*
X273574700Y-100142857D01*
X273288986Y-100071428D01*
X273146129Y-100000000D01*
X273074700Y-99928571D01*
X273003271Y-99785714D01*
X271963271Y-99285714D02*
X271963271Y-100142857D01*
X271963271Y-99714285D02*
X270463271Y-99714285D01*
X270677557Y-99857142D01*
X270820414Y-100000000D01*
X270891843Y-100142857D01*
X268066129Y-100142857D02*
X267994700Y-100071428D01*
X267923271Y-99928571D01*
X267923271Y-99571428D01*
X267994700Y-99428571D01*
X268066129Y-99357142D01*
X268208986Y-99285714D01*
X268351843Y-99285714D01*
X268566129Y-99357142D01*
X269423271Y-100214285D01*
X269423271Y-99285714D01*
X265383271Y-100214285D02*
X265383271Y-99285714D01*
X265954700Y-99785714D01*
X265954700Y-99571428D01*
X266026129Y-99428571D01*
X266097557Y-99357142D01*
X266240414Y-99285714D01*
X266597557Y-99285714D01*
X266740414Y-99357142D01*
X266811843Y-99428571D01*
X266883271Y-99571428D01*
X266883271Y-100000000D01*
X266811843Y-100142857D01*
X266740414Y-100214285D01*
X263343271Y-99428571D02*
X264343271Y-99428571D01*
X262771843Y-99785714D02*
X263843271Y-100142857D01*
X263843271Y-99214285D01*
X260303271Y-99357142D02*
X260303271Y-100071428D01*
X261017557Y-100142857D01*
X260946129Y-100071428D01*
X260874700Y-99928571D01*
X260874700Y-99571428D01*
X260946129Y-99428571D01*
X261017557Y-99357142D01*
X261160414Y-99285714D01*
X261517557Y-99285714D01*
X261660414Y-99357142D01*
X261731843Y-99428571D01*
X261803271Y-99571428D01*
X261803271Y-99928571D01*
X261731843Y-100071428D01*
X261660414Y-100142857D01*
X257763271Y-99428571D02*
X257763271Y-99714285D01*
X257834700Y-99857142D01*
X257906129Y-99928571D01*
X258120414Y-100071428D01*
X258406129Y-100142857D01*
X258977557Y-100142857D01*
X259120414Y-100071428D01*
X259191843Y-100000000D01*
X259263271Y-99857142D01*
X259263271Y-99571428D01*
X259191843Y-99428571D01*
X259120414Y-99357142D01*
X258977557Y-99285714D01*
X258620414Y-99285714D01*
X258477557Y-99357142D01*
X258406129Y-99428571D01*
X258334700Y-99571428D01*
X258334700Y-99857142D01*
X258406129Y-100000000D01*
X258477557Y-100071428D01*
X258620414Y-100142857D01*
X255223271Y-100214285D02*
X255223271Y-99214285D01*
X256723271Y-99857142D01*
X251802129Y-99857142D02*
X251730700Y-100000000D01*
X251659271Y-100071428D01*
X251516414Y-100142857D01*
X251444986Y-100142857D01*
X251302129Y-100071428D01*
X251230700Y-100000000D01*
X251159271Y-99857142D01*
X251159271Y-99571428D01*
X251230700Y-99428571D01*
X251302129Y-99357142D01*
X251444986Y-99285714D01*
X251516414Y-99285714D01*
X251659271Y-99357142D01*
X251730700Y-99428571D01*
X251802129Y-99571428D01*
X251802129Y-99857142D01*
X251873557Y-100000000D01*
X251944986Y-100071428D01*
X252087843Y-100142857D01*
X252373557Y-100142857D01*
X252516414Y-100071428D01*
X252587843Y-100000000D01*
X252659271Y-99857142D01*
X252659271Y-99571428D01*
X252587843Y-99428571D01*
X252516414Y-99357142D01*
X252373557Y-99285714D01*
X252087843Y-99285714D01*
X251944986Y-99357142D01*
X251873557Y-99428571D01*
X251802129Y-99571428D01*
X250119271Y-100000000D02*
X250119271Y-99714285D01*
X250047843Y-99571428D01*
X249976414Y-99500000D01*
X249762129Y-99357142D01*
X249476414Y-99285714D01*
X248904986Y-99285714D01*
X248762129Y-99357142D01*
X248690700Y-99428571D01*
X248619271Y-99571428D01*
X248619271Y-99857142D01*
X248690700Y-100000000D01*
X248762129Y-100071428D01*
X248904986Y-100142857D01*
X249262129Y-100142857D01*
X249404986Y-100071428D01*
X249476414Y-100000000D01*
X249547843Y-99857142D01*
X249547843Y-99571428D01*
X249476414Y-99428571D01*
X249404986Y-99357142D01*
X249262129Y-99285714D01*
X247579271Y-100714285D02*
X247579271Y-101571428D01*
X247579271Y-101142856D02*
X246079271Y-101142856D01*
X246293557Y-101285713D01*
X246436414Y-101428571D01*
X246507843Y-101571428D01*
X246079271Y-99785714D02*
X246079271Y-99642857D01*
X246150700Y-99500000D01*
X246222129Y-99428571D01*
X246364986Y-99357142D01*
X246650700Y-99285714D01*
X247007843Y-99285714D01*
X247293557Y-99357142D01*
X247436414Y-99428571D01*
X247507843Y-99500000D01*
X247579271Y-99642857D01*
X247579271Y-99785714D01*
X247507843Y-99928571D01*
X247436414Y-100000000D01*
X247293557Y-100071428D01*
X247007843Y-100142857D01*
X246650700Y-100142857D01*
X246364986Y-100071428D01*
X246222129Y-100000000D01*
X246150700Y-99928571D01*
X246079271Y-99785714D01*
X245039271Y-100714285D02*
X245039271Y-101571428D01*
X245039271Y-101142856D02*
X243539271Y-101142856D01*
X243753557Y-101285713D01*
X243896414Y-101428571D01*
X243967843Y-101571428D01*
X245039271Y-99285714D02*
X245039271Y-100142857D01*
X245039271Y-99714285D02*
X243539271Y-99714285D01*
X243753557Y-99857142D01*
X243896414Y-100000000D01*
X243967843Y-100142857D01*
X242499271Y-100714285D02*
X242499271Y-101571428D01*
X242499271Y-101142856D02*
X240999271Y-101142856D01*
X241213557Y-101285713D01*
X241356414Y-101428571D01*
X241427843Y-101571428D01*
X241142129Y-100142857D02*
X241070700Y-100071428D01*
X240999271Y-99928571D01*
X240999271Y-99571428D01*
X241070700Y-99428571D01*
X241142129Y-99357142D01*
X241284986Y-99285714D01*
X241427843Y-99285714D01*
X241642129Y-99357142D01*
X242499271Y-100214285D01*
X242499271Y-99285714D01*
X239959271Y-100714285D02*
X239959271Y-101571428D01*
X239959271Y-101142856D02*
X238459271Y-101142856D01*
X238673557Y-101285713D01*
X238816414Y-101428571D01*
X238887843Y-101571428D01*
X238459271Y-100214285D02*
X238459271Y-99285714D01*
X239030700Y-99785714D01*
X239030700Y-99571428D01*
X239102129Y-99428571D01*
X239173557Y-99357142D01*
X239316414Y-99285714D01*
X239673557Y-99285714D01*
X239816414Y-99357142D01*
X239887843Y-99428571D01*
X239959271Y-99571428D01*
X239959271Y-100000000D01*
X239887843Y-100142857D01*
X239816414Y-100214285D01*
X235990700Y-102428572D02*
X235919271Y-102571429D01*
X235919271Y-102785715D01*
X235990700Y-103000000D01*
X236133557Y-103142858D01*
X236276414Y-103214286D01*
X236562129Y-103285715D01*
X236776414Y-103285715D01*
X237062129Y-103214286D01*
X237204986Y-103142858D01*
X237347843Y-103000000D01*
X237419271Y-102785715D01*
X237419271Y-102642858D01*
X237347843Y-102428572D01*
X237276414Y-102357143D01*
X236776414Y-102357143D01*
X236776414Y-102642858D01*
X237419271Y-101714286D02*
X235919271Y-101714286D01*
X237419271Y-100857143D01*
X235919271Y-100857143D01*
X237419271Y-100142857D02*
X235919271Y-100142857D01*
X235919271Y-99785714D01*
X235990700Y-99571429D01*
X236133557Y-99428571D01*
X236276414Y-99357143D01*
X236562129Y-99285714D01*
X236776414Y-99285714D01*
X237062129Y-99357143D01*
X237204986Y-99428571D01*
X237347843Y-99571429D01*
X237419271Y-99785714D01*
X237419271Y-100142857D01*
X234450700Y-104142857D02*
X234450700Y-103428571D01*
X234879271Y-104285714D02*
X233379271Y-103785714D01*
X234879271Y-103285714D01*
X234879271Y-101928571D02*
X234164986Y-102428571D01*
X234879271Y-102785714D02*
X233379271Y-102785714D01*
X233379271Y-102214286D01*
X233450700Y-102071428D01*
X233522129Y-102000000D01*
X233664986Y-101928571D01*
X233879271Y-101928571D01*
X234022129Y-102000000D01*
X234093557Y-102071428D01*
X234164986Y-102214286D01*
X234164986Y-102785714D01*
X234093557Y-101285714D02*
X234093557Y-100785714D01*
X234879271Y-100571428D02*
X234879271Y-101285714D01*
X233379271Y-101285714D01*
X233379271Y-100571428D01*
X234093557Y-99428571D02*
X234093557Y-99928571D01*
X234879271Y-99928571D02*
X233379271Y-99928571D01*
X233379271Y-99214285D01*
X232267843Y-102928571D02*
X232339271Y-102714285D01*
X232339271Y-102357142D01*
X232267843Y-102214285D01*
X232196414Y-102142856D01*
X232053557Y-102071428D01*
X231910700Y-102071428D01*
X231767843Y-102142856D01*
X231696414Y-102214285D01*
X231624986Y-102357142D01*
X231553557Y-102642856D01*
X231482129Y-102785714D01*
X231410700Y-102857142D01*
X231267843Y-102928571D01*
X231124986Y-102928571D01*
X230982129Y-102857142D01*
X230910700Y-102785714D01*
X230839271Y-102642856D01*
X230839271Y-102285714D01*
X230910700Y-102071428D01*
X232339271Y-101428571D02*
X230839271Y-101428571D01*
X230839271Y-101071428D01*
X230910700Y-100857143D01*
X231053557Y-100714285D01*
X231196414Y-100642857D01*
X231482129Y-100571428D01*
X231696414Y-100571428D01*
X231982129Y-100642857D01*
X232124986Y-100714285D01*
X232267843Y-100857143D01*
X232339271Y-101071428D01*
X232339271Y-101428571D01*
X231910700Y-100000000D02*
X231910700Y-99285714D01*
X232339271Y-100142857D02*
X230839271Y-99642857D01*
X232339271Y-99142857D01*
X229727843Y-102857143D02*
X229799271Y-102642857D01*
X229799271Y-102285714D01*
X229727843Y-102142857D01*
X229656414Y-102071428D01*
X229513557Y-102000000D01*
X229370700Y-102000000D01*
X229227843Y-102071428D01*
X229156414Y-102142857D01*
X229084986Y-102285714D01*
X229013557Y-102571428D01*
X228942129Y-102714286D01*
X228870700Y-102785714D01*
X228727843Y-102857143D01*
X228584986Y-102857143D01*
X228442129Y-102785714D01*
X228370700Y-102714286D01*
X228299271Y-102571428D01*
X228299271Y-102214286D01*
X228370700Y-102000000D01*
X229656414Y-100500000D02*
X229727843Y-100571429D01*
X229799271Y-100785715D01*
X229799271Y-100928572D01*
X229727843Y-101142857D01*
X229584986Y-101285715D01*
X229442129Y-101357143D01*
X229156414Y-101428572D01*
X228942129Y-101428572D01*
X228656414Y-101357143D01*
X228513557Y-101285715D01*
X228370700Y-101142857D01*
X228299271Y-100928572D01*
X228299271Y-100785715D01*
X228370700Y-100571429D01*
X228442129Y-100500000D01*
X229799271Y-99142857D02*
X229799271Y-99857143D01*
X228299271Y-99857143D01*
X274074700Y-143414286D02*
X274074700Y-142700000D01*
X274503271Y-143557143D02*
X273003271Y-143057143D01*
X274503271Y-142557143D01*
X273003271Y-141342857D02*
X273003271Y-142057143D01*
X273717557Y-142128572D01*
X273646129Y-142057143D01*
X273574700Y-141914286D01*
X273574700Y-141557143D01*
X273646129Y-141414286D01*
X273717557Y-141342857D01*
X273860414Y-141271429D01*
X274217557Y-141271429D01*
X274360414Y-141342857D01*
X274431843Y-141414286D01*
X274503271Y-141557143D01*
X274503271Y-141914286D01*
X274431843Y-142057143D01*
X274360414Y-142128572D01*
X271534700Y-143414286D02*
X271534700Y-142700000D01*
X271963271Y-143557143D02*
X270463271Y-143057143D01*
X271963271Y-142557143D01*
X270963271Y-141414286D02*
X271963271Y-141414286D01*
X270391843Y-141771429D02*
X271463271Y-142128572D01*
X271463271Y-141200000D01*
X268994700Y-143414286D02*
X268994700Y-142700000D01*
X269423271Y-143557143D02*
X267923271Y-143057143D01*
X269423271Y-142557143D01*
X267923271Y-142200000D02*
X267923271Y-141271429D01*
X268494700Y-141771429D01*
X268494700Y-141557143D01*
X268566129Y-141414286D01*
X268637557Y-141342857D01*
X268780414Y-141271429D01*
X269137557Y-141271429D01*
X269280414Y-141342857D01*
X269351843Y-141414286D01*
X269423271Y-141557143D01*
X269423271Y-141985715D01*
X269351843Y-142128572D01*
X269280414Y-142200000D01*
X266454700Y-143414286D02*
X266454700Y-142700000D01*
X266883271Y-143557143D02*
X265383271Y-143057143D01*
X266883271Y-142557143D01*
X265526129Y-142128572D02*
X265454700Y-142057143D01*
X265383271Y-141914286D01*
X265383271Y-141557143D01*
X265454700Y-141414286D01*
X265526129Y-141342857D01*
X265668986Y-141271429D01*
X265811843Y-141271429D01*
X266026129Y-141342857D01*
X266883271Y-142200000D01*
X266883271Y-141271429D01*
X263914700Y-143414286D02*
X263914700Y-142700000D01*
X264343271Y-143557143D02*
X262843271Y-143057143D01*
X264343271Y-142557143D01*
X264343271Y-141271429D02*
X264343271Y-142128572D01*
X264343271Y-141700000D02*
X262843271Y-141700000D01*
X263057557Y-141842857D01*
X263200414Y-141985715D01*
X263271843Y-142128572D01*
X261374700Y-143414286D02*
X261374700Y-142700000D01*
X261803271Y-143557143D02*
X260303271Y-143057143D01*
X261803271Y-142557143D01*
X260303271Y-141771429D02*
X260303271Y-141628572D01*
X260374700Y-141485715D01*
X260446129Y-141414286D01*
X260588986Y-141342857D01*
X260874700Y-141271429D01*
X261231843Y-141271429D01*
X261517557Y-141342857D01*
X261660414Y-141414286D01*
X261731843Y-141485715D01*
X261803271Y-141628572D01*
X261803271Y-141771429D01*
X261731843Y-141914286D01*
X261660414Y-141985715D01*
X261517557Y-142057143D01*
X261231843Y-142128572D01*
X260874700Y-142128572D01*
X260588986Y-142057143D01*
X260446129Y-141985715D01*
X260374700Y-141914286D01*
X260303271Y-141771429D01*
X255223271Y-143557143D02*
X256723271Y-143057143D01*
X255223271Y-142557143D01*
X256866129Y-142414286D02*
X256866129Y-141271429D01*
X256723271Y-140914286D02*
X255223271Y-140914286D01*
X256723271Y-140200000D02*
X255223271Y-140200000D01*
X256723271Y-139342857D01*
X255223271Y-139342857D01*
X252754700Y-142557143D02*
X252683271Y-142700000D01*
X252683271Y-142914286D01*
X252754700Y-143128571D01*
X252897557Y-143271429D01*
X253040414Y-143342857D01*
X253326129Y-143414286D01*
X253540414Y-143414286D01*
X253826129Y-143342857D01*
X253968986Y-143271429D01*
X254111843Y-143128571D01*
X254183271Y-142914286D01*
X254183271Y-142771429D01*
X254111843Y-142557143D01*
X254040414Y-142485714D01*
X253540414Y-142485714D01*
X253540414Y-142771429D01*
X254183271Y-141842857D02*
X252683271Y-141842857D01*
X254183271Y-140985714D01*
X252683271Y-140985714D01*
X254183271Y-140271428D02*
X252683271Y-140271428D01*
X252683271Y-139914285D01*
X252754700Y-139700000D01*
X252897557Y-139557142D01*
X253040414Y-139485714D01*
X253326129Y-139414285D01*
X253540414Y-139414285D01*
X253826129Y-139485714D01*
X253968986Y-139557142D01*
X254111843Y-139700000D01*
X254183271Y-139914285D01*
X254183271Y-140271428D01*
X250214700Y-142557143D02*
X250143271Y-142700000D01*
X250143271Y-142914286D01*
X250214700Y-143128571D01*
X250357557Y-143271429D01*
X250500414Y-143342857D01*
X250786129Y-143414286D01*
X251000414Y-143414286D01*
X251286129Y-143342857D01*
X251428986Y-143271429D01*
X251571843Y-143128571D01*
X251643271Y-142914286D01*
X251643271Y-142771429D01*
X251571843Y-142557143D01*
X251500414Y-142485714D01*
X251000414Y-142485714D01*
X251000414Y-142771429D01*
X251643271Y-141842857D02*
X250143271Y-141842857D01*
X251643271Y-140985714D01*
X250143271Y-140985714D01*
X251643271Y-140271428D02*
X250143271Y-140271428D01*
X250143271Y-139914285D01*
X250214700Y-139700000D01*
X250357557Y-139557142D01*
X250500414Y-139485714D01*
X250786129Y-139414285D01*
X251000414Y-139414285D01*
X251286129Y-139485714D01*
X251428986Y-139557142D01*
X251571843Y-139700000D01*
X251643271Y-139914285D01*
X251643271Y-140271428D01*
X247603271Y-142628571D02*
X247603271Y-143342857D01*
X248317557Y-143414286D01*
X248246129Y-143342857D01*
X248174700Y-143200000D01*
X248174700Y-142842857D01*
X248246129Y-142700000D01*
X248317557Y-142628571D01*
X248460414Y-142557143D01*
X248817557Y-142557143D01*
X248960414Y-142628571D01*
X249031843Y-142700000D01*
X249103271Y-142842857D01*
X249103271Y-143200000D01*
X249031843Y-143342857D01*
X248960414Y-143414286D01*
X247603271Y-142128572D02*
X249103271Y-141628572D01*
X247603271Y-141128572D01*
X245063271Y-143485714D02*
X245063271Y-142557143D01*
X245634700Y-143057143D01*
X245634700Y-142842857D01*
X245706129Y-142700000D01*
X245777557Y-142628571D01*
X245920414Y-142557143D01*
X246277557Y-142557143D01*
X246420414Y-142628571D01*
X246491843Y-142700000D01*
X246563271Y-142842857D01*
X246563271Y-143271429D01*
X246491843Y-143414286D01*
X246420414Y-143485714D01*
X245063271Y-142128572D02*
X246563271Y-141628572D01*
X245063271Y-141128572D01*
X245063271Y-140771429D02*
X245063271Y-139842858D01*
X245634700Y-140342858D01*
X245634700Y-140128572D01*
X245706129Y-139985715D01*
X245777557Y-139914286D01*
X245920414Y-139842858D01*
X246277557Y-139842858D01*
X246420414Y-139914286D01*
X246491843Y-139985715D01*
X246563271Y-140128572D01*
X246563271Y-140557144D01*
X246491843Y-140700001D01*
X246420414Y-140771429D01*
X244023271Y-142485714D02*
X243308986Y-142985714D01*
X244023271Y-143342857D02*
X242523271Y-143342857D01*
X242523271Y-142771429D01*
X242594700Y-142628571D01*
X242666129Y-142557143D01*
X242808986Y-142485714D01*
X243023271Y-142485714D01*
X243166129Y-142557143D01*
X243237557Y-142628571D01*
X243308986Y-142771429D01*
X243308986Y-143342857D01*
X243951843Y-141914286D02*
X244023271Y-141700000D01*
X244023271Y-141342857D01*
X243951843Y-141200000D01*
X243880414Y-141128571D01*
X243737557Y-141057143D01*
X243594700Y-141057143D01*
X243451843Y-141128571D01*
X243380414Y-141200000D01*
X243308986Y-141342857D01*
X243237557Y-141628571D01*
X243166129Y-141771429D01*
X243094700Y-141842857D01*
X242951843Y-141914286D01*
X242808986Y-141914286D01*
X242666129Y-141842857D01*
X242594700Y-141771429D01*
X242523271Y-141628571D01*
X242523271Y-141271429D01*
X242594700Y-141057143D01*
X242523271Y-140628572D02*
X242523271Y-139771429D01*
X244023271Y-140200000D02*
X242523271Y-140200000D01*
X241483271Y-143342857D02*
X239983271Y-143342857D01*
X239983271Y-142342857D02*
X239983271Y-142057143D01*
X240054700Y-141914285D01*
X240197557Y-141771428D01*
X240483271Y-141700000D01*
X240983271Y-141700000D01*
X241268986Y-141771428D01*
X241411843Y-141914285D01*
X241483271Y-142057143D01*
X241483271Y-142342857D01*
X241411843Y-142485714D01*
X241268986Y-142628571D01*
X240983271Y-142700000D01*
X240483271Y-142700000D01*
X240197557Y-142628571D01*
X240054700Y-142485714D01*
X239983271Y-142342857D01*
X241483271Y-140199999D02*
X240768986Y-140699999D01*
X241483271Y-141057142D02*
X239983271Y-141057142D01*
X239983271Y-140485714D01*
X240054700Y-140342856D01*
X240126129Y-140271428D01*
X240268986Y-140199999D01*
X240483271Y-140199999D01*
X240626129Y-140271428D01*
X240697557Y-140342856D01*
X240768986Y-140485714D01*
X240768986Y-141057142D01*
X238943271Y-143342857D02*
X237443271Y-143342857D01*
X238943271Y-142485714D01*
X237443271Y-142485714D01*
X238800414Y-140914285D02*
X238871843Y-140985714D01*
X238943271Y-141200000D01*
X238943271Y-141342857D01*
X238871843Y-141557142D01*
X238728986Y-141700000D01*
X238586129Y-141771428D01*
X238300414Y-141842857D01*
X238086129Y-141842857D01*
X237800414Y-141771428D01*
X237657557Y-141700000D01*
X237514700Y-141557142D01*
X237443271Y-141342857D01*
X237443271Y-141200000D01*
X237514700Y-140985714D01*
X237586129Y-140914285D01*
X264512100Y-134142857D02*
X264440671Y-134285714D01*
X264440671Y-134500000D01*
X264512100Y-134714285D01*
X264654957Y-134857143D01*
X264797814Y-134928571D01*
X265083529Y-135000000D01*
X265297814Y-135000000D01*
X265583529Y-134928571D01*
X265726386Y-134857143D01*
X265869243Y-134714285D01*
X265940671Y-134500000D01*
X265940671Y-134357143D01*
X265869243Y-134142857D01*
X265797814Y-134071428D01*
X265297814Y-134071428D01*
X265297814Y-134357143D01*
X265940671Y-133428571D02*
X264440671Y-133428571D01*
X265940671Y-132571428D01*
X264440671Y-132571428D01*
X265940671Y-131857142D02*
X264440671Y-131857142D01*
X264440671Y-131499999D01*
X264512100Y-131285714D01*
X264654957Y-131142856D01*
X264797814Y-131071428D01*
X265083529Y-130999999D01*
X265297814Y-130999999D01*
X265583529Y-131071428D01*
X265726386Y-131142856D01*
X265869243Y-131285714D01*
X265940671Y-131499999D01*
X265940671Y-131857142D01*
X265940671Y-128928571D02*
X265940671Y-128642856D01*
X265869243Y-128499999D01*
X265797814Y-128428571D01*
X265583529Y-128285713D01*
X265297814Y-128214285D01*
X264726386Y-128214285D01*
X264583529Y-128285713D01*
X264512100Y-128357142D01*
X264440671Y-128499999D01*
X264440671Y-128785713D01*
X264512100Y-128928571D01*
X264583529Y-128999999D01*
X264726386Y-129071428D01*
X265083529Y-129071428D01*
X265226386Y-128999999D01*
X265297814Y-128928571D01*
X265369243Y-128785713D01*
X265369243Y-128499999D01*
X265297814Y-128357142D01*
X265226386Y-128285713D01*
X265083529Y-128214285D01*
X264440671Y-127785714D02*
X265940671Y-127285714D01*
X264440671Y-126785714D01*
D10*
X275340000Y-134259600D02*
X275340000Y-131719600D01*
X275340000Y-131719600D02*
X272546000Y-131719600D01*
X272546000Y-134259600D02*
X272546000Y-131719600D01*
X275340000Y-134259600D02*
X272546000Y-134259600D01*
X275340000Y-129255800D02*
X275340000Y-126715800D01*
X275340000Y-126715800D02*
X272546000Y-126715800D01*
X272546000Y-129255800D02*
X272546000Y-126715800D01*
X275340000Y-129255800D02*
X272546000Y-129255800D01*
X266577000Y-125395000D02*
X269625000Y-125395000D01*
X266577000Y-125395000D02*
X266577000Y-135580000D01*
X266577000Y-125395000D02*
X266577000Y-124887000D01*
X266577000Y-124887000D02*
X271403000Y-124887000D01*
X271403000Y-124887000D02*
X271149000Y-125395000D01*
X278261000Y-124887000D02*
X278007000Y-125395000D01*
X278007000Y-125395000D02*
X279023000Y-125395000D01*
X276610000Y-124887000D02*
X276864000Y-125395000D01*
X276864000Y-125395000D02*
X278007000Y-125395000D01*
X276610000Y-124887000D02*
X278261000Y-124887000D01*
X279023000Y-130017800D02*
X277118000Y-130017800D01*
X272546000Y-125953800D02*
X277118000Y-125953800D01*
X279023000Y-130017800D02*
X279023000Y-125953800D01*
X279023000Y-125953800D02*
X279023000Y-125395000D01*
X279023000Y-130957600D02*
X277118000Y-130957600D01*
X279023000Y-130957600D02*
X279023000Y-130017800D01*
X272546000Y-135021600D02*
X277118000Y-135021600D01*
X279023000Y-135580000D02*
X279023000Y-135021600D01*
X279023000Y-135021600D02*
X279023000Y-130957600D01*
X277118000Y-130017800D02*
X277118000Y-125953800D01*
X277118000Y-130017800D02*
X272546000Y-130017800D01*
X277118000Y-125953800D02*
X279023000Y-125953800D01*
X277118000Y-130957600D02*
X277118000Y-135021600D01*
X277118000Y-130957600D02*
X272546000Y-130957600D01*
X277118000Y-135021600D02*
X279023000Y-135021600D01*
X276483000Y-126334800D02*
X273308000Y-126334800D01*
X276483000Y-126334800D02*
X276483000Y-129636800D01*
X276483000Y-129636800D02*
X273308000Y-129636800D01*
X276483000Y-131338600D02*
X273308000Y-131338600D01*
X276483000Y-131338600D02*
X276483000Y-134640600D01*
X276483000Y-134640600D02*
X273308000Y-134640600D01*
X273308000Y-134640600D02*
X273308000Y-134259600D01*
X273308000Y-131338600D02*
X273308000Y-131719600D01*
X273308000Y-129636800D02*
X273308000Y-129255800D01*
X273308000Y-126334800D02*
X273308000Y-126715800D01*
X279023000Y-135580000D02*
X272165000Y-135580000D01*
X272165000Y-135580000D02*
X269625000Y-135580000D01*
X271149000Y-125395000D02*
X272165000Y-125395000D01*
X272165000Y-125395000D02*
X276864000Y-125395000D01*
X269625000Y-135580000D02*
X269625000Y-125395000D01*
X269625000Y-135580000D02*
X266577000Y-135580000D01*
X269625000Y-125395000D02*
X271149000Y-125395000D01*
X269371000Y-130017800D02*
X266831000Y-130017800D01*
X266831000Y-130017800D02*
X266831000Y-125953800D01*
X266831000Y-125953800D02*
X269371000Y-125953800D01*
X269371000Y-125953800D02*
X269371000Y-130017800D01*
X269371000Y-130957600D02*
X266831000Y-130957600D01*
X269371000Y-130957600D02*
X269371000Y-135021600D01*
X269371000Y-135021600D02*
X266831000Y-135021600D01*
X266831000Y-130957600D02*
X266831000Y-135021600D01*
X268355000Y-129611400D02*
X267720000Y-126563400D01*
X268482000Y-129484400D02*
X267847000Y-126436400D01*
X268355000Y-134615200D02*
X267720000Y-131564660D01*
X268482000Y-134488200D02*
X267847000Y-131440200D01*
X272546000Y-135021600D02*
X272546000Y-134640600D01*
X272546000Y-130957600D02*
X272546000Y-131338600D01*
X272546000Y-131338600D02*
X272546000Y-134640600D01*
X272165000Y-135580000D02*
X272165000Y-134640600D01*
X272165000Y-134640600D02*
X272165000Y-131338600D01*
X272165000Y-131338600D02*
X272165000Y-129636800D01*
X272165000Y-125395000D02*
X272165000Y-126334800D01*
X272165000Y-126334800D02*
X272165000Y-129636800D01*
X272546000Y-125953800D02*
X272546000Y-126334800D01*
X272546000Y-130017800D02*
X272546000Y-129636800D01*
X272546000Y-129636800D02*
X272546000Y-126334800D01*
X268714570Y-126517028D02*
G75*
G03X267747940Y-126464340I-509430J-452772D01*
G01*
X268634896Y-129459728D02*
G75*
G03X268682660Y-126471960I-1905496J1524728D01*
G01*
X267743156Y-126460589D02*
G75*
G03X267796200Y-129611400I1348444J-1553151D01*
G01*
X267746519Y-129560097D02*
G75*
G03X268672500Y-129418360I407821J431297D01*
G01*
X268717110Y-131520851D02*
G75*
G03X267747940Y-131465600I-511970J-452749D01*
G01*
X268634896Y-134460988D02*
G75*
G03X268682660Y-131473220I-1905496J1524728D01*
G01*
X267738153Y-131458427D02*
G75*
G03X267796200Y-134615200I1353447J-1554033D01*
G01*
X267748981Y-134564520D02*
G75*
G03X268672500Y-134419620I405359J431920D01*
G01*
X247888500Y-134785000D02*
X263128500Y-134785000D01*
X263128500Y-134785000D02*
X263128500Y-137325000D01*
X263128500Y-137325000D02*
X247888500Y-137325000D01*
X245068500Y-134505000D02*
X246618500Y-134505000D01*
X247888500Y-134785000D02*
X247888500Y-137325000D01*
X246618500Y-137605000D02*
X245068500Y-137605000D01*
X245068500Y-137605000D02*
X245068500Y-134505000D01*
X247888500Y-104285000D02*
X263128500Y-104285000D01*
X263128500Y-104285000D02*
X263128500Y-106825000D01*
X263128500Y-106825000D02*
X247888500Y-106825000D01*
X245068500Y-104005000D02*
X246618500Y-104005000D01*
X247888500Y-104285000D02*
X247888500Y-106825000D01*
X246618500Y-107105000D02*
X245068500Y-107105000D01*
X245068500Y-107105000D02*
X245068500Y-104005000D01*
X239356300Y-137900000D02*
X239356300Y-139450000D01*
X239356300Y-139450000D02*
X242456300Y-139450000D01*
X242456300Y-139450000D02*
X242456300Y-137900000D01*
X239636300Y-136630000D02*
X239636300Y-131550000D01*
X239636300Y-131550000D02*
X242176300Y-131550000D01*
X242176300Y-131550000D02*
X242176300Y-136630000D01*
X242176300Y-136630000D02*
X239636300Y-136630000D01*
X263829800Y-138099800D02*
X263829800Y-135559800D01*
X263549800Y-140919800D02*
X263549800Y-139369800D01*
X263829800Y-138099800D02*
X266369800Y-138099800D01*
X266649800Y-139369800D02*
X266649800Y-140919800D01*
X266649800Y-140919800D02*
X263549800Y-140919800D01*
X266369800Y-138099800D02*
X266369800Y-135559800D01*
X266369800Y-135559800D02*
X263829800Y-135559800D01*
X272023805Y-136881381D02*
X272023805Y-135881381D01*
X272404758Y-135881381D01*
X272499996Y-135929000D01*
X272547615Y-135976619D01*
X272595234Y-136071857D01*
X272595234Y-136214714D01*
X272547615Y-136309952D01*
X272499996Y-136357571D01*
X272404758Y-136405190D01*
X272023805Y-136405190D01*
X273547615Y-136881381D02*
X272976186Y-136881381D01*
X273261900Y-136881381D02*
X273261900Y-135881381D01*
X273166662Y-136024238D01*
X273071424Y-136119476D01*
X272976186Y-136167095D01*
D12*
X211623729Y-91447257D02*
X211841443Y-91519829D01*
X212204300Y-91519829D01*
X212349443Y-91447257D01*
X212422014Y-91374686D01*
X212494586Y-91229543D01*
X212494586Y-91084400D01*
X212422014Y-90939257D01*
X212349443Y-90866686D01*
X212204300Y-90794114D01*
X211914014Y-90721543D01*
X211768872Y-90648971D01*
X211696300Y-90576400D01*
X211623729Y-90431257D01*
X211623729Y-90286114D01*
X211696300Y-90140971D01*
X211768872Y-90068400D01*
X211914014Y-89995829D01*
X212276872Y-89995829D01*
X212494586Y-90068400D01*
X213147729Y-91519829D02*
X213147729Y-89995829D01*
X213147729Y-90721543D02*
X214018586Y-90721543D01*
X214018586Y-91519829D02*
X214018586Y-89995829D01*
X214744300Y-91519829D02*
X214744300Y-89995829D01*
X215470014Y-90721543D02*
X215978014Y-90721543D01*
X216195728Y-91519829D02*
X215470014Y-91519829D01*
X215470014Y-89995829D01*
X216195728Y-89995829D01*
X217574585Y-91519829D02*
X216848871Y-91519829D01*
X216848871Y-89995829D01*
X218082585Y-91519829D02*
X218082585Y-89995829D01*
X218445442Y-89995829D01*
X218663157Y-90068400D01*
X218808299Y-90213543D01*
X218880871Y-90358686D01*
X218953442Y-90648971D01*
X218953442Y-90866686D01*
X218880871Y-91156971D01*
X218808299Y-91302114D01*
X218663157Y-91447257D01*
X218445442Y-91519829D01*
X218082585Y-91519829D01*
X220404871Y-91519829D02*
X219534014Y-91519829D01*
X219969442Y-91519829D02*
X219969442Y-89995829D01*
X219824299Y-90213543D01*
X219679157Y-90358686D01*
X219534014Y-90431257D01*
D10*
X244724181Y-137705886D02*
X243724181Y-137705886D01*
X244057514Y-137229696D02*
X244724181Y-137229696D01*
X244152752Y-137229696D02*
X244105133Y-137182077D01*
X244057514Y-137086839D01*
X244057514Y-136943981D01*
X244105133Y-136848743D01*
X244200371Y-136801124D01*
X244724181Y-136801124D01*
X244819419Y-136563029D02*
X244819419Y-135801124D01*
X244724181Y-135086838D02*
X244724181Y-135563029D01*
X243724181Y-135563029D01*
X244724181Y-134229695D02*
X244724181Y-134801124D01*
X244724181Y-134515410D02*
X243724181Y-134515410D01*
X243867038Y-134610648D01*
X243962276Y-134705886D01*
X244009895Y-134801124D01*
X241970881Y-107364524D02*
X240970881Y-107364524D01*
X241304214Y-106888334D02*
X241970881Y-106888334D01*
X241399452Y-106888334D02*
X241351833Y-106840715D01*
X241304214Y-106745477D01*
X241304214Y-106602619D01*
X241351833Y-106507381D01*
X241447071Y-106459762D01*
X241970881Y-106459762D01*
X242066119Y-106221667D02*
X242066119Y-105459762D01*
X241970881Y-104650238D02*
X241494690Y-104983572D01*
X241970881Y-105221667D02*
X240970881Y-105221667D01*
X240970881Y-104840714D01*
X241018500Y-104745476D01*
X241066119Y-104697857D01*
X241161357Y-104650238D01*
X241304214Y-104650238D01*
X241399452Y-104697857D01*
X241447071Y-104745476D01*
X241494690Y-104840714D01*
X241494690Y-105221667D01*
X241970881Y-103697857D02*
X241970881Y-104269286D01*
X241970881Y-103983572D02*
X240970881Y-103983572D01*
X241113738Y-104078810D01*
X241208976Y-104174048D01*
X241256595Y-104269286D01*
X235258681Y-140257143D02*
X236258681Y-139923810D01*
X235258681Y-139590476D01*
X236353919Y-139495238D02*
X236353919Y-138733333D01*
X236211062Y-138542857D02*
X236258681Y-138400000D01*
X236258681Y-138161904D01*
X236211062Y-138066666D01*
X236163443Y-138019047D01*
X236068205Y-137971428D01*
X235972967Y-137971428D01*
X235877729Y-138019047D01*
X235830110Y-138066666D01*
X235782490Y-138161904D01*
X235734871Y-138352381D01*
X235687252Y-138447619D01*
X235639633Y-138495238D01*
X235544395Y-138542857D01*
X235449157Y-138542857D01*
X235353919Y-138495238D01*
X235306300Y-138447619D01*
X235258681Y-138352381D01*
X235258681Y-138114285D01*
X235306300Y-137971428D01*
X236211062Y-137161904D02*
X236258681Y-137257142D01*
X236258681Y-137447619D01*
X236211062Y-137542857D01*
X236115824Y-137590476D01*
X235734871Y-137590476D01*
X235639633Y-137542857D01*
X235592014Y-137447619D01*
X235592014Y-137257142D01*
X235639633Y-137161904D01*
X235734871Y-137114285D01*
X235830110Y-137114285D01*
X235925348Y-137590476D01*
X236258681Y-136542857D02*
X236211062Y-136638095D01*
X236115824Y-136685714D01*
X235258681Y-136685714D01*
X236258681Y-135638094D02*
X236258681Y-136209523D01*
X236258681Y-135923809D02*
X235258681Y-135923809D01*
X235401538Y-136019047D01*
X235496776Y-136114285D01*
X235544395Y-136209523D01*
X261456943Y-144636467D02*
X261933134Y-144636467D01*
X261361705Y-144922181D02*
X261695038Y-143922181D01*
X262028372Y-144922181D01*
X262123610Y-145017419D02*
X262885515Y-145017419D01*
X263123610Y-144255514D02*
X263123610Y-145112657D01*
X263075991Y-145207895D01*
X262980753Y-145255514D01*
X262933134Y-145255514D01*
X263123610Y-143922181D02*
X263075991Y-143969800D01*
X263123610Y-144017419D01*
X263171229Y-143969800D01*
X263123610Y-143922181D01*
X263123610Y-144017419D01*
X264028372Y-144255514D02*
X264028372Y-144922181D01*
X263599800Y-144255514D02*
X263599800Y-144779324D01*
X263647419Y-144874562D01*
X263742657Y-144922181D01*
X263885515Y-144922181D01*
X263980753Y-144874562D01*
X264028372Y-144826943D01*
X264504562Y-144922181D02*
X264504562Y-144255514D01*
X264504562Y-144350752D02*
X264552181Y-144303133D01*
X264647419Y-144255514D01*
X264790277Y-144255514D01*
X264885515Y-144303133D01*
X264933134Y-144398371D01*
X264933134Y-144922181D01*
X264933134Y-144398371D02*
X264980753Y-144303133D01*
X265075991Y-144255514D01*
X265218848Y-144255514D01*
X265314086Y-144303133D01*
X265361705Y-144398371D01*
X265361705Y-144922181D01*
X265837895Y-144255514D02*
X265837895Y-145255514D01*
X265837895Y-144303133D02*
X265933133Y-144255514D01*
X266123610Y-144255514D01*
X266218848Y-144303133D01*
X266266467Y-144350752D01*
X266314086Y-144445990D01*
X266314086Y-144731705D01*
X266266467Y-144826943D01*
X266218848Y-144874562D01*
X266123610Y-144922181D01*
X265933133Y-144922181D01*
X265837895Y-144874562D01*
X267123610Y-144874562D02*
X267028372Y-144922181D01*
X266837895Y-144922181D01*
X266742657Y-144874562D01*
X266695038Y-144779324D01*
X266695038Y-144398371D01*
X266742657Y-144303133D01*
X266837895Y-144255514D01*
X267028372Y-144255514D01*
X267123610Y-144303133D01*
X267171229Y-144398371D01*
X267171229Y-144493610D01*
X266695038Y-144588848D01*
X267599800Y-144922181D02*
X267599800Y-144255514D01*
X267599800Y-144445990D02*
X267647419Y-144350752D01*
X267695038Y-144303133D01*
X267790276Y-144255514D01*
X267885515Y-144255514D01*
X268742658Y-144922181D02*
X268171229Y-144922181D01*
X268456943Y-144922181D02*
X268456943Y-143922181D01*
X268361705Y-144065038D01*
X268266467Y-144160276D01*
X268171229Y-144207895D01*
M02*
