G04 #@! TF.FileFunction,Soldermask,Bot*
%FSLAX46Y46*%
G04 Gerber Fmt 4.6, Leading zero omitted, Abs format (unit mm)*
G04 Created by KiCad (PCBNEW 4.0.2-4+6225~38~ubuntu15.10.1-stable) date vie 19 feb 2016 01:19:40 CLT*
%MOMM*%
G01*
G04 APERTURE LIST*
%ADD10C,0.150000*%
%ADD11O,1.524000X2.540000*%
%ADD12C,3.175000*%
%ADD13C,1.524000*%
%ADD14O,3.962400X1.981200*%
%ADD15C,2.500000*%
%ADD16O,1.501140X2.499360*%
%ADD17R,1.727200X1.727200*%
%ADD18O,1.727200X1.727200*%
%ADD19R,1.300000X2.300000*%
%ADD20R,2.000000X2.000000*%
%ADD21C,2.000000*%
G04 APERTURE END LIST*
D10*
D11*
X82080100Y-82092800D03*
X79540100Y-82092800D03*
X77000100Y-82092800D03*
X69380100Y-82092800D03*
X71920100Y-82092800D03*
X74460100Y-82092800D03*
X64300100Y-82092800D03*
X61760100Y-82092800D03*
X59220100Y-82092800D03*
X54140100Y-82092800D03*
X51600100Y-82092800D03*
X82080100Y-33832800D03*
X79540100Y-33832800D03*
X77000100Y-33832800D03*
X74460100Y-33832800D03*
X71920100Y-33832800D03*
X69380100Y-33832800D03*
X66840100Y-33832800D03*
X64300100Y-33832800D03*
X60236100Y-33832800D03*
X57696100Y-33832800D03*
X55156100Y-33832800D03*
X52616100Y-33832800D03*
X50076100Y-33832800D03*
X47536100Y-33832800D03*
X44996100Y-33832800D03*
X42456100Y-33832800D03*
X56680100Y-82092800D03*
D12*
X84620100Y-77012800D03*
X84620100Y-49072800D03*
D11*
X39916100Y-33832800D03*
X37376100Y-33832800D03*
X49060100Y-82092800D03*
X46520100Y-82092800D03*
D13*
X82080100Y-54152800D03*
X84620100Y-54152800D03*
X82080100Y-56692800D03*
X84620100Y-56692800D03*
X82080100Y-59232800D03*
X84620100Y-59232800D03*
D14*
X40932100Y-63412500D03*
X40932100Y-58412500D03*
D15*
X85300800Y-69438500D03*
X85300800Y-64038500D03*
X79900800Y-69438500D03*
X79900800Y-64038500D03*
X82600800Y-66738500D03*
D16*
X48171100Y-52197000D03*
X45631100Y-52197000D03*
X50711100Y-52197000D03*
D17*
X54140100Y-67221100D03*
D18*
X56680100Y-67221100D03*
X54140100Y-69761100D03*
X56680100Y-69761100D03*
X54140100Y-72301100D03*
X56680100Y-72301100D03*
D19*
X75780800Y-41008300D03*
X73780800Y-41008300D03*
X71780800Y-41008300D03*
X69780800Y-41008300D03*
X67780800Y-41008300D03*
X65780800Y-41008300D03*
X63780800Y-41008300D03*
X61780800Y-41008300D03*
X75780800Y-74602400D03*
X73780800Y-74602400D03*
X71780800Y-74602400D03*
X69780800Y-74602400D03*
X67780800Y-74602400D03*
X65780800Y-74602400D03*
X63780800Y-74602400D03*
X61780800Y-74602400D03*
D20*
X45631100Y-45427900D03*
D21*
X50631100Y-45427900D03*
D20*
X56324500Y-58674000D03*
D21*
X56324500Y-53674000D03*
M02*
