G04 #@! TF.FileFunction,Copper,L1,Top,Signal*
%FSLAX46Y46*%
G04 Gerber Fmt 4.6, Leading zero omitted, Abs format (unit mm)*
G04 Created by KiCad (PCBNEW 4.0.2-4+6225~38~ubuntu15.10.1-stable) date vie 19 feb 2016 01:19:40 CLT*
%MOMM*%
G01*
G04 APERTURE LIST*
%ADD10C,0.150000*%
%ADD11O,1.524000X2.540000*%
%ADD12C,1.524000*%
%ADD13O,3.962400X1.981200*%
%ADD14C,2.500000*%
%ADD15O,1.501140X2.499360*%
%ADD16R,1.727200X1.727200*%
%ADD17O,1.727200X1.727200*%
%ADD18R,2.000000X2.000000*%
%ADD19C,2.000000*%
%ADD20C,1.800000*%
%ADD21C,0.600000*%
%ADD22C,0.254000*%
G04 APERTURE END LIST*
D10*
D11*
X82080100Y-82092800D03*
X79540100Y-82092800D03*
X77000100Y-82092800D03*
X69380100Y-82092800D03*
X71920100Y-82092800D03*
X74460100Y-82092800D03*
X64300100Y-82092800D03*
X61760100Y-82092800D03*
X59220100Y-82092800D03*
X54140100Y-82092800D03*
X51600100Y-82092800D03*
X82080100Y-33832800D03*
X79540100Y-33832800D03*
X77000100Y-33832800D03*
X74460100Y-33832800D03*
X71920100Y-33832800D03*
X69380100Y-33832800D03*
X66840100Y-33832800D03*
X64300100Y-33832800D03*
X60236100Y-33832800D03*
X57696100Y-33832800D03*
X55156100Y-33832800D03*
X52616100Y-33832800D03*
X50076100Y-33832800D03*
X47536100Y-33832800D03*
X44996100Y-33832800D03*
X42456100Y-33832800D03*
X56680100Y-82092800D03*
X39916100Y-33832800D03*
X37376100Y-33832800D03*
X49060100Y-82092800D03*
X46520100Y-82092800D03*
D12*
X82080100Y-54152800D03*
X84620100Y-54152800D03*
X82080100Y-56692800D03*
X84620100Y-56692800D03*
X82080100Y-59232800D03*
X84620100Y-59232800D03*
D13*
X40932100Y-63412500D03*
X40932100Y-58412500D03*
D14*
X85300800Y-69438500D03*
X85300800Y-64038500D03*
X79900800Y-69438500D03*
X79900800Y-64038500D03*
X82600800Y-66738500D03*
D15*
X48171100Y-52197000D03*
X45631100Y-52197000D03*
X50711100Y-52197000D03*
D16*
X54140100Y-67221100D03*
D17*
X56680100Y-67221100D03*
X54140100Y-69761100D03*
X56680100Y-69761100D03*
X54140100Y-72301100D03*
X56680100Y-72301100D03*
D18*
X45631100Y-45427900D03*
D19*
X50631100Y-45427900D03*
D18*
X56324500Y-58674000D03*
D19*
X56324500Y-53674000D03*
D20*
X78270100Y-38277800D03*
X69761100Y-38087300D03*
X80619600Y-51485800D03*
X80556100Y-45961300D03*
X80810100Y-49009300D03*
X73761600Y-38150800D03*
X54546500Y-74790300D03*
X56667400Y-76581000D03*
D21*
X77000100Y-37007800D02*
X77000100Y-33832800D01*
X78270100Y-38277800D02*
X77000100Y-37007800D01*
X71920100Y-35928300D02*
X71920100Y-33832800D01*
X69761100Y-38087300D02*
X71920100Y-35928300D01*
X82080100Y-52946300D02*
X82080100Y-54152800D01*
X80619600Y-51485800D02*
X82080100Y-52946300D01*
X81000600Y-56692800D02*
X82080100Y-56692800D01*
X79159100Y-54851300D02*
X81000600Y-56692800D01*
X79159100Y-47358300D02*
X79159100Y-54851300D01*
X80556100Y-45961300D02*
X79159100Y-47358300D01*
X86398100Y-54914800D02*
X84620100Y-56692800D01*
X86398100Y-53327300D02*
X86398100Y-54914800D01*
X85445600Y-52374800D02*
X86398100Y-53327300D01*
X84175600Y-52374800D02*
X85445600Y-52374800D01*
X80810100Y-49009300D02*
X84175600Y-52374800D01*
X84620100Y-56692800D02*
X84747100Y-56692800D01*
X74460100Y-37452300D02*
X74460100Y-33832800D01*
X73761600Y-38150800D02*
X74460100Y-37452300D01*
X64300100Y-80518000D02*
X64300100Y-82092800D01*
X58623200Y-74841100D02*
X64300100Y-80518000D01*
X54597300Y-74841100D02*
X58623200Y-74841100D01*
X54546500Y-74790300D02*
X54597300Y-74841100D01*
X56680100Y-76593700D02*
X56680100Y-82092800D01*
X56667400Y-76581000D02*
X56680100Y-76593700D01*
D22*
G36*
X84683600Y-32488406D02*
X84683600Y-43865800D01*
X84693606Y-43915210D01*
X84720797Y-43955603D01*
X87223600Y-46458406D01*
X87223600Y-52912130D01*
X87059245Y-52666155D01*
X86106745Y-51713655D01*
X85803409Y-51510973D01*
X85445600Y-51439800D01*
X84562890Y-51439800D01*
X84418214Y-51295124D01*
X85060243Y-51295685D01*
X85877400Y-50958042D01*
X86503145Y-50333389D01*
X86842213Y-49516822D01*
X86842985Y-48632657D01*
X86505342Y-47815500D01*
X85880689Y-47189755D01*
X85064122Y-46850687D01*
X84179957Y-46849915D01*
X83362800Y-47187558D01*
X82737055Y-47812211D01*
X82397987Y-48628778D01*
X82397423Y-49274333D01*
X82344915Y-49221825D01*
X82345365Y-48705309D01*
X82112168Y-48140929D01*
X81680743Y-47708749D01*
X81116770Y-47474567D01*
X80913758Y-47474390D01*
X81424471Y-47263368D01*
X81856651Y-46831943D01*
X82090833Y-46267970D01*
X82091365Y-45657309D01*
X81858168Y-45092929D01*
X81426743Y-44660749D01*
X80862770Y-44426567D01*
X80252109Y-44426035D01*
X79687729Y-44659232D01*
X79255549Y-45090657D01*
X79021367Y-45654630D01*
X79020914Y-46174196D01*
X78497955Y-46697155D01*
X78295273Y-47000491D01*
X78224100Y-47358300D01*
X78224100Y-54851300D01*
X78295273Y-55209109D01*
X78497955Y-55512445D01*
X80339455Y-57353945D01*
X80642791Y-57556627D01*
X81000600Y-57627800D01*
X81039535Y-57627800D01*
X81287730Y-57876429D01*
X81495612Y-57962749D01*
X81289797Y-58047790D01*
X80896471Y-58440430D01*
X80683343Y-58953700D01*
X80682858Y-59509461D01*
X80895090Y-60023103D01*
X81287730Y-60416429D01*
X81801000Y-60629557D01*
X82356761Y-60630042D01*
X82870403Y-60417810D01*
X83263729Y-60025170D01*
X83350049Y-59817288D01*
X83435090Y-60023103D01*
X83827730Y-60416429D01*
X84341000Y-60629557D01*
X84896761Y-60630042D01*
X85410403Y-60417810D01*
X85803729Y-60025170D01*
X86016857Y-59511900D01*
X86017342Y-58956139D01*
X85805110Y-58442497D01*
X85412470Y-58049171D01*
X85204588Y-57962851D01*
X85410403Y-57877810D01*
X85803729Y-57485170D01*
X86016857Y-56971900D01*
X86017166Y-56618024D01*
X87059245Y-55575945D01*
X87223600Y-55329970D01*
X87223600Y-79627194D01*
X84720797Y-82129997D01*
X84692934Y-82172011D01*
X84683600Y-82219800D01*
X84683600Y-84696300D01*
X41784806Y-84696300D01*
X38635985Y-81547479D01*
X45123100Y-81547479D01*
X45123100Y-82638121D01*
X45229440Y-83172730D01*
X45532272Y-83625949D01*
X45985491Y-83928781D01*
X46520100Y-84035121D01*
X47054709Y-83928781D01*
X47507928Y-83625949D01*
X47790100Y-83203650D01*
X48072272Y-83625949D01*
X48525491Y-83928781D01*
X49060100Y-84035121D01*
X49594709Y-83928781D01*
X50047928Y-83625949D01*
X50330100Y-83203650D01*
X50612272Y-83625949D01*
X51065491Y-83928781D01*
X51600100Y-84035121D01*
X52134709Y-83928781D01*
X52587928Y-83625949D01*
X52870100Y-83203650D01*
X53152272Y-83625949D01*
X53605491Y-83928781D01*
X54140100Y-84035121D01*
X54674709Y-83928781D01*
X55127928Y-83625949D01*
X55410100Y-83203650D01*
X55692272Y-83625949D01*
X56145491Y-83928781D01*
X56680100Y-84035121D01*
X57214709Y-83928781D01*
X57667928Y-83625949D01*
X57959430Y-83189687D01*
X57978041Y-83252741D01*
X58322074Y-83678430D01*
X58802823Y-83940060D01*
X58877030Y-83955020D01*
X59093100Y-83832520D01*
X59093100Y-82219800D01*
X59347100Y-82219800D01*
X59347100Y-83832520D01*
X59563170Y-83955020D01*
X59637377Y-83940060D01*
X60118126Y-83678430D01*
X60462159Y-83252741D01*
X60490100Y-83158077D01*
X60518041Y-83252741D01*
X60862074Y-83678430D01*
X61342823Y-83940060D01*
X61417030Y-83955020D01*
X61633100Y-83832520D01*
X61633100Y-82219800D01*
X59347100Y-82219800D01*
X59093100Y-82219800D01*
X59073100Y-82219800D01*
X59073100Y-81965800D01*
X59093100Y-81965800D01*
X59093100Y-80353080D01*
X59347100Y-80353080D01*
X59347100Y-81965800D01*
X61633100Y-81965800D01*
X61633100Y-80353080D01*
X61417030Y-80230580D01*
X61342823Y-80245540D01*
X60862074Y-80507170D01*
X60518041Y-80932859D01*
X60490100Y-81027523D01*
X60462159Y-80932859D01*
X60118126Y-80507170D01*
X59637377Y-80245540D01*
X59563170Y-80230580D01*
X59347100Y-80353080D01*
X59093100Y-80353080D01*
X58877030Y-80230580D01*
X58802823Y-80245540D01*
X58322074Y-80507170D01*
X57978041Y-80932859D01*
X57959430Y-80995913D01*
X57667928Y-80559651D01*
X57615100Y-80524352D01*
X57615100Y-77803878D01*
X57967951Y-77451643D01*
X58202133Y-76887670D01*
X58202665Y-76277009D01*
X57995694Y-75776100D01*
X58235910Y-75776100D01*
X63194988Y-80735178D01*
X63020770Y-80995913D01*
X63002159Y-80932859D01*
X62658126Y-80507170D01*
X62177377Y-80245540D01*
X62103170Y-80230580D01*
X61887100Y-80353080D01*
X61887100Y-81965800D01*
X61907100Y-81965800D01*
X61907100Y-82219800D01*
X61887100Y-82219800D01*
X61887100Y-83832520D01*
X62103170Y-83955020D01*
X62177377Y-83940060D01*
X62658126Y-83678430D01*
X63002159Y-83252741D01*
X63020770Y-83189687D01*
X63312272Y-83625949D01*
X63765491Y-83928781D01*
X64300100Y-84035121D01*
X64834709Y-83928781D01*
X65287928Y-83625949D01*
X65590760Y-83172730D01*
X65697100Y-82638121D01*
X65697100Y-81547479D01*
X67983100Y-81547479D01*
X67983100Y-82638121D01*
X68089440Y-83172730D01*
X68392272Y-83625949D01*
X68845491Y-83928781D01*
X69380100Y-84035121D01*
X69914709Y-83928781D01*
X70367928Y-83625949D01*
X70650100Y-83203650D01*
X70932272Y-83625949D01*
X71385491Y-83928781D01*
X71920100Y-84035121D01*
X72454709Y-83928781D01*
X72907928Y-83625949D01*
X73190100Y-83203650D01*
X73472272Y-83625949D01*
X73925491Y-83928781D01*
X74460100Y-84035121D01*
X74994709Y-83928781D01*
X75447928Y-83625949D01*
X75730100Y-83203650D01*
X76012272Y-83625949D01*
X76465491Y-83928781D01*
X77000100Y-84035121D01*
X77534709Y-83928781D01*
X77987928Y-83625949D01*
X78270100Y-83203650D01*
X78552272Y-83625949D01*
X79005491Y-83928781D01*
X79540100Y-84035121D01*
X80074709Y-83928781D01*
X80527928Y-83625949D01*
X80810100Y-83203650D01*
X81092272Y-83625949D01*
X81545491Y-83928781D01*
X82080100Y-84035121D01*
X82614709Y-83928781D01*
X83067928Y-83625949D01*
X83370760Y-83172730D01*
X83477100Y-82638121D01*
X83477100Y-81547479D01*
X83370760Y-81012870D01*
X83067928Y-80559651D01*
X82614709Y-80256819D01*
X82080100Y-80150479D01*
X81545491Y-80256819D01*
X81092272Y-80559651D01*
X80810100Y-80981950D01*
X80527928Y-80559651D01*
X80074709Y-80256819D01*
X79540100Y-80150479D01*
X79005491Y-80256819D01*
X78552272Y-80559651D01*
X78270100Y-80981950D01*
X77987928Y-80559651D01*
X77534709Y-80256819D01*
X77000100Y-80150479D01*
X76465491Y-80256819D01*
X76012272Y-80559651D01*
X75730100Y-80981950D01*
X75447928Y-80559651D01*
X74994709Y-80256819D01*
X74460100Y-80150479D01*
X73925491Y-80256819D01*
X73472272Y-80559651D01*
X73190100Y-80981950D01*
X72907928Y-80559651D01*
X72454709Y-80256819D01*
X71920100Y-80150479D01*
X71385491Y-80256819D01*
X70932272Y-80559651D01*
X70650100Y-80981950D01*
X70367928Y-80559651D01*
X69914709Y-80256819D01*
X69380100Y-80150479D01*
X68845491Y-80256819D01*
X68392272Y-80559651D01*
X68089440Y-81012870D01*
X67983100Y-81547479D01*
X65697100Y-81547479D01*
X65590760Y-81012870D01*
X65287928Y-80559651D01*
X65235100Y-80524352D01*
X65235100Y-80518000D01*
X65163927Y-80160191D01*
X64961245Y-79856855D01*
X62557333Y-77452943D01*
X82397215Y-77452943D01*
X82734858Y-78270100D01*
X83359511Y-78895845D01*
X84176078Y-79234913D01*
X85060243Y-79235685D01*
X85877400Y-78898042D01*
X86503145Y-78273389D01*
X86842213Y-77456822D01*
X86842985Y-76572657D01*
X86505342Y-75755500D01*
X85880689Y-75129755D01*
X85064122Y-74790687D01*
X84179957Y-74789915D01*
X83362800Y-75127558D01*
X82737055Y-75752211D01*
X82397987Y-76568778D01*
X82397215Y-77452943D01*
X62557333Y-77452943D01*
X59284345Y-74179955D01*
X58981009Y-73977273D01*
X58623200Y-73906100D01*
X55832767Y-73906100D01*
X55417143Y-73489749D01*
X55182140Y-73392167D01*
X55229129Y-73360770D01*
X55410100Y-73089928D01*
X55591071Y-73360770D01*
X56077252Y-73685626D01*
X56650741Y-73799700D01*
X56709459Y-73799700D01*
X57282948Y-73685626D01*
X57769129Y-73360770D01*
X58093985Y-72874589D01*
X58208059Y-72301100D01*
X58093985Y-71727611D01*
X57769129Y-71241430D01*
X57454348Y-71031100D01*
X57769129Y-70820770D01*
X57801836Y-70771820D01*
X78747085Y-70771820D01*
X78876333Y-71064623D01*
X79576606Y-71332888D01*
X80326235Y-71312750D01*
X80925267Y-71064623D01*
X81054515Y-70771820D01*
X84147085Y-70771820D01*
X84276333Y-71064623D01*
X84976606Y-71332888D01*
X85726235Y-71312750D01*
X86325267Y-71064623D01*
X86454515Y-70771820D01*
X85300800Y-69618105D01*
X84147085Y-70771820D01*
X81054515Y-70771820D01*
X79900800Y-69618105D01*
X78747085Y-70771820D01*
X57801836Y-70771820D01*
X58093985Y-70334589D01*
X58208059Y-69761100D01*
X58093985Y-69187611D01*
X58045005Y-69114306D01*
X78006412Y-69114306D01*
X78026550Y-69863935D01*
X78274677Y-70462967D01*
X78567480Y-70592215D01*
X79721195Y-69438500D01*
X80080405Y-69438500D01*
X81234120Y-70592215D01*
X81526923Y-70462967D01*
X81795188Y-69762694D01*
X81777770Y-69114306D01*
X83406412Y-69114306D01*
X83426550Y-69863935D01*
X83674677Y-70462967D01*
X83967480Y-70592215D01*
X85121195Y-69438500D01*
X85480405Y-69438500D01*
X86634120Y-70592215D01*
X86926923Y-70462967D01*
X87195188Y-69762694D01*
X87175050Y-69013065D01*
X86926923Y-68414033D01*
X86634120Y-68284785D01*
X85480405Y-69438500D01*
X85121195Y-69438500D01*
X83967480Y-68284785D01*
X83674677Y-68414033D01*
X83406412Y-69114306D01*
X81777770Y-69114306D01*
X81775050Y-69013065D01*
X81526923Y-68414033D01*
X81234120Y-68284785D01*
X80080405Y-69438500D01*
X79721195Y-69438500D01*
X78567480Y-68284785D01*
X78274677Y-68414033D01*
X78006412Y-69114306D01*
X58045005Y-69114306D01*
X57769129Y-68701430D01*
X57454348Y-68491100D01*
X57769129Y-68280770D01*
X57886454Y-68105180D01*
X78747085Y-68105180D01*
X79900800Y-69258895D01*
X81054515Y-68105180D01*
X80925267Y-67812377D01*
X80224994Y-67544112D01*
X79475365Y-67564250D01*
X78876333Y-67812377D01*
X78747085Y-68105180D01*
X57886454Y-68105180D01*
X58093985Y-67794589D01*
X58208059Y-67221100D01*
X58186319Y-67111805D01*
X80715474Y-67111805D01*
X81001843Y-67804872D01*
X81531639Y-68335593D01*
X82224205Y-68623172D01*
X82974105Y-68623826D01*
X83667172Y-68337457D01*
X83899854Y-68105180D01*
X84147085Y-68105180D01*
X85300800Y-69258895D01*
X86454515Y-68105180D01*
X86325267Y-67812377D01*
X85624994Y-67544112D01*
X84875365Y-67564250D01*
X84276333Y-67812377D01*
X84147085Y-68105180D01*
X83899854Y-68105180D01*
X84197893Y-67807661D01*
X84485472Y-67115095D01*
X84486126Y-66365195D01*
X84199757Y-65672128D01*
X83899973Y-65371820D01*
X84147085Y-65371820D01*
X84276333Y-65664623D01*
X84976606Y-65932888D01*
X85726235Y-65912750D01*
X86325267Y-65664623D01*
X86454515Y-65371820D01*
X85300800Y-64218105D01*
X84147085Y-65371820D01*
X83899973Y-65371820D01*
X83669961Y-65141407D01*
X82977395Y-64853828D01*
X82227495Y-64853174D01*
X81534428Y-65139543D01*
X81003707Y-65669339D01*
X80716128Y-66361905D01*
X80715474Y-67111805D01*
X58186319Y-67111805D01*
X58093985Y-66647611D01*
X57769129Y-66161430D01*
X57282948Y-65836574D01*
X56709459Y-65722500D01*
X56650741Y-65722500D01*
X56077252Y-65836574D01*
X55611658Y-66147674D01*
X55606862Y-66122183D01*
X55467790Y-65906059D01*
X55255590Y-65761069D01*
X55003700Y-65710060D01*
X53276500Y-65710060D01*
X53041183Y-65754338D01*
X52825059Y-65893410D01*
X52680069Y-66105610D01*
X52629060Y-66357500D01*
X52629060Y-68084700D01*
X52673338Y-68320017D01*
X52812410Y-68536141D01*
X53024610Y-68681131D01*
X53068231Y-68689964D01*
X53051071Y-68701430D01*
X52726215Y-69187611D01*
X52612141Y-69761100D01*
X52726215Y-70334589D01*
X53051071Y-70820770D01*
X53365852Y-71031100D01*
X53051071Y-71241430D01*
X52726215Y-71727611D01*
X52612141Y-72301100D01*
X52726215Y-72874589D01*
X53051071Y-73360770D01*
X53503189Y-73662866D01*
X53245949Y-73919657D01*
X53011767Y-74483630D01*
X53011235Y-75094291D01*
X53244432Y-75658671D01*
X53675857Y-76090851D01*
X54239830Y-76325033D01*
X54850491Y-76325565D01*
X55165427Y-76195436D01*
X55132667Y-76274330D01*
X55132135Y-76884991D01*
X55365332Y-77449371D01*
X55745100Y-77829804D01*
X55745100Y-80524352D01*
X55692272Y-80559651D01*
X55410100Y-80981950D01*
X55127928Y-80559651D01*
X54674709Y-80256819D01*
X54140100Y-80150479D01*
X53605491Y-80256819D01*
X53152272Y-80559651D01*
X52870100Y-80981950D01*
X52587928Y-80559651D01*
X52134709Y-80256819D01*
X51600100Y-80150479D01*
X51065491Y-80256819D01*
X50612272Y-80559651D01*
X50330100Y-80981950D01*
X50047928Y-80559651D01*
X49594709Y-80256819D01*
X49060100Y-80150479D01*
X48525491Y-80256819D01*
X48072272Y-80559651D01*
X47790100Y-80981950D01*
X47507928Y-80559651D01*
X47054709Y-80256819D01*
X46520100Y-80150479D01*
X45985491Y-80256819D01*
X45532272Y-80559651D01*
X45229440Y-81012870D01*
X45123100Y-81547479D01*
X38635985Y-81547479D01*
X38023800Y-80935294D01*
X38023800Y-69342000D01*
X38013794Y-69292590D01*
X37986603Y-69252197D01*
X37813152Y-69078746D01*
X37809668Y-69073532D01*
X34607500Y-65871364D01*
X34607500Y-65371820D01*
X78747085Y-65371820D01*
X78876333Y-65664623D01*
X79576606Y-65932888D01*
X80326235Y-65912750D01*
X80925267Y-65664623D01*
X81054515Y-65371820D01*
X79900800Y-64218105D01*
X78747085Y-65371820D01*
X34607500Y-65371820D01*
X34607500Y-63791459D01*
X38360689Y-63791459D01*
X38391040Y-63917257D01*
X38702224Y-64472170D01*
X39202077Y-64865758D01*
X39814500Y-65038100D01*
X40805100Y-65038100D01*
X40805100Y-63539500D01*
X41059100Y-63539500D01*
X41059100Y-65038100D01*
X42049700Y-65038100D01*
X42662123Y-64865758D01*
X43161976Y-64472170D01*
X43473160Y-63917257D01*
X43503511Y-63791459D01*
X43466929Y-63714306D01*
X78006412Y-63714306D01*
X78026550Y-64463935D01*
X78274677Y-65062967D01*
X78567480Y-65192215D01*
X79721195Y-64038500D01*
X80080405Y-64038500D01*
X81234120Y-65192215D01*
X81526923Y-65062967D01*
X81795188Y-64362694D01*
X81777770Y-63714306D01*
X83406412Y-63714306D01*
X83426550Y-64463935D01*
X83674677Y-65062967D01*
X83967480Y-65192215D01*
X85121195Y-64038500D01*
X85480405Y-64038500D01*
X86634120Y-65192215D01*
X86926923Y-65062967D01*
X87195188Y-64362694D01*
X87175050Y-63613065D01*
X86926923Y-63014033D01*
X86634120Y-62884785D01*
X85480405Y-64038500D01*
X85121195Y-64038500D01*
X83967480Y-62884785D01*
X83674677Y-63014033D01*
X83406412Y-63714306D01*
X81777770Y-63714306D01*
X81775050Y-63613065D01*
X81526923Y-63014033D01*
X81234120Y-62884785D01*
X80080405Y-64038500D01*
X79721195Y-64038500D01*
X78567480Y-62884785D01*
X78274677Y-63014033D01*
X78006412Y-63714306D01*
X43466929Y-63714306D01*
X43384042Y-63539500D01*
X41059100Y-63539500D01*
X40805100Y-63539500D01*
X38480158Y-63539500D01*
X38360689Y-63791459D01*
X34607500Y-63791459D01*
X34607500Y-63033541D01*
X38360689Y-63033541D01*
X38480158Y-63285500D01*
X40805100Y-63285500D01*
X40805100Y-61786900D01*
X41059100Y-61786900D01*
X41059100Y-63285500D01*
X43384042Y-63285500D01*
X43503511Y-63033541D01*
X43473160Y-62907743D01*
X43359567Y-62705180D01*
X78747085Y-62705180D01*
X79900800Y-63858895D01*
X81054515Y-62705180D01*
X84147085Y-62705180D01*
X85300800Y-63858895D01*
X86454515Y-62705180D01*
X86325267Y-62412377D01*
X85624994Y-62144112D01*
X84875365Y-62164250D01*
X84276333Y-62412377D01*
X84147085Y-62705180D01*
X81054515Y-62705180D01*
X80925267Y-62412377D01*
X80224994Y-62144112D01*
X79475365Y-62164250D01*
X78876333Y-62412377D01*
X78747085Y-62705180D01*
X43359567Y-62705180D01*
X43161976Y-62352830D01*
X42662123Y-61959242D01*
X42049700Y-61786900D01*
X41059100Y-61786900D01*
X40805100Y-61786900D01*
X39814500Y-61786900D01*
X39202077Y-61959242D01*
X38702224Y-62352830D01*
X38391040Y-62907743D01*
X38360689Y-63033541D01*
X34607500Y-63033541D01*
X34607500Y-58412500D01*
X38264646Y-58412500D01*
X38388387Y-59034590D01*
X38740773Y-59561973D01*
X39268156Y-59914359D01*
X39890246Y-60038100D01*
X41973954Y-60038100D01*
X42596044Y-59914359D01*
X43123427Y-59561973D01*
X43475813Y-59034590D01*
X43599554Y-58412500D01*
X43475813Y-57790410D01*
X43398031Y-57674000D01*
X54677060Y-57674000D01*
X54677060Y-59674000D01*
X54721338Y-59909317D01*
X54860410Y-60125441D01*
X55072610Y-60270431D01*
X55324500Y-60321440D01*
X57324500Y-60321440D01*
X57559817Y-60277162D01*
X57775941Y-60138090D01*
X57920931Y-59925890D01*
X57971940Y-59674000D01*
X57971940Y-57674000D01*
X57927662Y-57438683D01*
X57788590Y-57222559D01*
X57576390Y-57077569D01*
X57324500Y-57026560D01*
X55324500Y-57026560D01*
X55089183Y-57070838D01*
X54873059Y-57209910D01*
X54728069Y-57422110D01*
X54677060Y-57674000D01*
X43398031Y-57674000D01*
X43123427Y-57263027D01*
X42596044Y-56910641D01*
X41973954Y-56786900D01*
X39890246Y-56786900D01*
X39268156Y-56910641D01*
X38740773Y-57263027D01*
X38388387Y-57790410D01*
X38264646Y-58412500D01*
X34607500Y-58412500D01*
X34607500Y-54826532D01*
X55351573Y-54826532D01*
X55450236Y-55093387D01*
X56059961Y-55319908D01*
X56709960Y-55295856D01*
X57198764Y-55093387D01*
X57297427Y-54826532D01*
X56324500Y-53853605D01*
X55351573Y-54826532D01*
X34607500Y-54826532D01*
X34607500Y-51660967D01*
X44245530Y-51660967D01*
X44245530Y-52733033D01*
X44351000Y-53263268D01*
X44651354Y-53712779D01*
X45100865Y-54013133D01*
X45631100Y-54118603D01*
X46161335Y-54013133D01*
X46610846Y-53712779D01*
X46911200Y-53263268D01*
X46913050Y-53253968D01*
X46939601Y-53343677D01*
X47281156Y-53765658D01*
X47758197Y-54024810D01*
X47829825Y-54038993D01*
X48044100Y-53916339D01*
X48044100Y-52324000D01*
X48024100Y-52324000D01*
X48024100Y-52070000D01*
X48044100Y-52070000D01*
X48044100Y-50477661D01*
X48298100Y-50477661D01*
X48298100Y-52070000D01*
X48318100Y-52070000D01*
X48318100Y-52324000D01*
X48298100Y-52324000D01*
X48298100Y-53916339D01*
X48512375Y-54038993D01*
X48584003Y-54024810D01*
X49061044Y-53765658D01*
X49402599Y-53343677D01*
X49429150Y-53253968D01*
X49431000Y-53263268D01*
X49731354Y-53712779D01*
X50180865Y-54013133D01*
X50711100Y-54118603D01*
X51241335Y-54013133D01*
X51690846Y-53712779D01*
X51893516Y-53409461D01*
X54678592Y-53409461D01*
X54702644Y-54059460D01*
X54905113Y-54548264D01*
X55171968Y-54646927D01*
X56144895Y-53674000D01*
X56504105Y-53674000D01*
X57477032Y-54646927D01*
X57743887Y-54548264D01*
X57970408Y-53938539D01*
X57946356Y-53288540D01*
X57743887Y-52799736D01*
X57477032Y-52701073D01*
X56504105Y-53674000D01*
X56144895Y-53674000D01*
X55171968Y-52701073D01*
X54905113Y-52799736D01*
X54678592Y-53409461D01*
X51893516Y-53409461D01*
X51991200Y-53263268D01*
X52096670Y-52733033D01*
X52096670Y-52521468D01*
X55351573Y-52521468D01*
X56324500Y-53494395D01*
X57297427Y-52521468D01*
X57198764Y-52254613D01*
X56589039Y-52028092D01*
X55939040Y-52052144D01*
X55450236Y-52254613D01*
X55351573Y-52521468D01*
X52096670Y-52521468D01*
X52096670Y-51660967D01*
X51991200Y-51130732D01*
X51690846Y-50681221D01*
X51241335Y-50380867D01*
X50711100Y-50275397D01*
X50180865Y-50380867D01*
X49731354Y-50681221D01*
X49431000Y-51130732D01*
X49429150Y-51140032D01*
X49402599Y-51050323D01*
X49061044Y-50628342D01*
X48584003Y-50369190D01*
X48512375Y-50355007D01*
X48298100Y-50477661D01*
X48044100Y-50477661D01*
X47829825Y-50355007D01*
X47758197Y-50369190D01*
X47281156Y-50628342D01*
X46939601Y-51050323D01*
X46913050Y-51140032D01*
X46911200Y-51130732D01*
X46610846Y-50681221D01*
X46161335Y-50380867D01*
X45631100Y-50275397D01*
X45100865Y-50380867D01*
X44651354Y-50681221D01*
X44351000Y-51130732D01*
X44245530Y-51660967D01*
X34607500Y-51660967D01*
X34607500Y-44427900D01*
X43983660Y-44427900D01*
X43983660Y-46427900D01*
X44027938Y-46663217D01*
X44167010Y-46879341D01*
X44379210Y-47024331D01*
X44631100Y-47075340D01*
X46631100Y-47075340D01*
X46866417Y-47031062D01*
X47082541Y-46891990D01*
X47227531Y-46679790D01*
X47247651Y-46580432D01*
X49658173Y-46580432D01*
X49756836Y-46847287D01*
X50366561Y-47073808D01*
X51016560Y-47049756D01*
X51505364Y-46847287D01*
X51604027Y-46580432D01*
X50631100Y-45607505D01*
X49658173Y-46580432D01*
X47247651Y-46580432D01*
X47278540Y-46427900D01*
X47278540Y-45163361D01*
X48985192Y-45163361D01*
X49009244Y-45813360D01*
X49211713Y-46302164D01*
X49478568Y-46400827D01*
X50451495Y-45427900D01*
X50810705Y-45427900D01*
X51783632Y-46400827D01*
X52050487Y-46302164D01*
X52277008Y-45692439D01*
X52252956Y-45042440D01*
X52050487Y-44553636D01*
X51783632Y-44454973D01*
X50810705Y-45427900D01*
X50451495Y-45427900D01*
X49478568Y-44454973D01*
X49211713Y-44553636D01*
X48985192Y-45163361D01*
X47278540Y-45163361D01*
X47278540Y-44427900D01*
X47249840Y-44275368D01*
X49658173Y-44275368D01*
X50631100Y-45248295D01*
X51604027Y-44275368D01*
X51505364Y-44008513D01*
X50895639Y-43781992D01*
X50245640Y-43806044D01*
X49756836Y-44008513D01*
X49658173Y-44275368D01*
X47249840Y-44275368D01*
X47234262Y-44192583D01*
X47095190Y-43976459D01*
X46882990Y-43831469D01*
X46631100Y-43780460D01*
X44631100Y-43780460D01*
X44395783Y-43824738D01*
X44179659Y-43963810D01*
X44034669Y-44176010D01*
X43983660Y-44427900D01*
X34607500Y-44427900D01*
X34607500Y-33287479D01*
X35979100Y-33287479D01*
X35979100Y-34378121D01*
X36085440Y-34912730D01*
X36388272Y-35365949D01*
X36841491Y-35668781D01*
X37376100Y-35775121D01*
X37910709Y-35668781D01*
X38363928Y-35365949D01*
X38646100Y-34943650D01*
X38928272Y-35365949D01*
X39381491Y-35668781D01*
X39916100Y-35775121D01*
X40450709Y-35668781D01*
X40903928Y-35365949D01*
X41186100Y-34943650D01*
X41468272Y-35365949D01*
X41921491Y-35668781D01*
X42456100Y-35775121D01*
X42990709Y-35668781D01*
X43443928Y-35365949D01*
X43735430Y-34929687D01*
X43754041Y-34992741D01*
X44098074Y-35418430D01*
X44578823Y-35680060D01*
X44653030Y-35695020D01*
X44869100Y-35572520D01*
X44869100Y-33959800D01*
X44849100Y-33959800D01*
X44849100Y-33705800D01*
X44869100Y-33705800D01*
X44869100Y-32093080D01*
X45123100Y-32093080D01*
X45123100Y-33705800D01*
X45143100Y-33705800D01*
X45143100Y-33959800D01*
X45123100Y-33959800D01*
X45123100Y-35572520D01*
X45339170Y-35695020D01*
X45413377Y-35680060D01*
X45894126Y-35418430D01*
X46238159Y-34992741D01*
X46256770Y-34929687D01*
X46548272Y-35365949D01*
X47001491Y-35668781D01*
X47536100Y-35775121D01*
X48070709Y-35668781D01*
X48523928Y-35365949D01*
X48806100Y-34943650D01*
X49088272Y-35365949D01*
X49541491Y-35668781D01*
X50076100Y-35775121D01*
X50610709Y-35668781D01*
X51063928Y-35365949D01*
X51346100Y-34943650D01*
X51628272Y-35365949D01*
X52081491Y-35668781D01*
X52616100Y-35775121D01*
X53150709Y-35668781D01*
X53603928Y-35365949D01*
X53886100Y-34943650D01*
X54168272Y-35365949D01*
X54621491Y-35668781D01*
X55156100Y-35775121D01*
X55690709Y-35668781D01*
X56143928Y-35365949D01*
X56426100Y-34943650D01*
X56708272Y-35365949D01*
X57161491Y-35668781D01*
X57696100Y-35775121D01*
X58230709Y-35668781D01*
X58683928Y-35365949D01*
X58966100Y-34943650D01*
X59248272Y-35365949D01*
X59701491Y-35668781D01*
X60236100Y-35775121D01*
X60770709Y-35668781D01*
X61223928Y-35365949D01*
X61526760Y-34912730D01*
X61633100Y-34378121D01*
X61633100Y-33287479D01*
X62903100Y-33287479D01*
X62903100Y-34378121D01*
X63009440Y-34912730D01*
X63312272Y-35365949D01*
X63765491Y-35668781D01*
X64300100Y-35775121D01*
X64834709Y-35668781D01*
X65287928Y-35365949D01*
X65570100Y-34943650D01*
X65852272Y-35365949D01*
X66305491Y-35668781D01*
X66840100Y-35775121D01*
X67374709Y-35668781D01*
X67827928Y-35365949D01*
X68110100Y-34943650D01*
X68392272Y-35365949D01*
X68845491Y-35668781D01*
X69380100Y-35775121D01*
X69914709Y-35668781D01*
X70367928Y-35365949D01*
X70650100Y-34943650D01*
X70932272Y-35365949D01*
X70985100Y-35401248D01*
X70985100Y-35541010D01*
X69973625Y-36552485D01*
X69457109Y-36552035D01*
X68892729Y-36785232D01*
X68460549Y-37216657D01*
X68226367Y-37780630D01*
X68225835Y-38391291D01*
X68459032Y-38955671D01*
X68890457Y-39387851D01*
X69454430Y-39622033D01*
X70065091Y-39622565D01*
X70629471Y-39389368D01*
X71061651Y-38957943D01*
X71295833Y-38393970D01*
X71296286Y-37874404D01*
X72581245Y-36589445D01*
X72783927Y-36286109D01*
X72855100Y-35928300D01*
X72855100Y-35401248D01*
X72907928Y-35365949D01*
X73190100Y-34943650D01*
X73472272Y-35365949D01*
X73525100Y-35401248D01*
X73525100Y-36615594D01*
X73457609Y-36615535D01*
X72893229Y-36848732D01*
X72461049Y-37280157D01*
X72226867Y-37844130D01*
X72226335Y-38454791D01*
X72459532Y-39019171D01*
X72890957Y-39451351D01*
X73454930Y-39685533D01*
X74065591Y-39686065D01*
X74629971Y-39452868D01*
X75062151Y-39021443D01*
X75296333Y-38457470D01*
X75296862Y-37850615D01*
X75323927Y-37810109D01*
X75395100Y-37452300D01*
X75395100Y-35401248D01*
X75447928Y-35365949D01*
X75730100Y-34943650D01*
X76012272Y-35365949D01*
X76065100Y-35401248D01*
X76065100Y-37007800D01*
X76136273Y-37365609D01*
X76338955Y-37668945D01*
X76735285Y-38065275D01*
X76734835Y-38581791D01*
X76968032Y-39146171D01*
X77399457Y-39578351D01*
X77963430Y-39812533D01*
X78574091Y-39813065D01*
X79138471Y-39579868D01*
X79570651Y-39148443D01*
X79804833Y-38584470D01*
X79805365Y-37973809D01*
X79572168Y-37409429D01*
X79140743Y-36977249D01*
X78576770Y-36743067D01*
X78057204Y-36742614D01*
X77935100Y-36620510D01*
X77935100Y-35401248D01*
X77987928Y-35365949D01*
X78270100Y-34943650D01*
X78552272Y-35365949D01*
X79005491Y-35668781D01*
X79540100Y-35775121D01*
X80074709Y-35668781D01*
X80527928Y-35365949D01*
X80810100Y-34943650D01*
X81092272Y-35365949D01*
X81545491Y-35668781D01*
X82080100Y-35775121D01*
X82614709Y-35668781D01*
X83067928Y-35365949D01*
X83370760Y-34912730D01*
X83477100Y-34378121D01*
X83477100Y-33287479D01*
X83370760Y-32752870D01*
X83067928Y-32299651D01*
X82614709Y-31996819D01*
X82080100Y-31890479D01*
X81545491Y-31996819D01*
X81092272Y-32299651D01*
X80810100Y-32721950D01*
X80527928Y-32299651D01*
X80074709Y-31996819D01*
X79540100Y-31890479D01*
X79005491Y-31996819D01*
X78552272Y-32299651D01*
X78270100Y-32721950D01*
X77987928Y-32299651D01*
X77534709Y-31996819D01*
X77000100Y-31890479D01*
X76465491Y-31996819D01*
X76012272Y-32299651D01*
X75730100Y-32721950D01*
X75447928Y-32299651D01*
X74994709Y-31996819D01*
X74460100Y-31890479D01*
X73925491Y-31996819D01*
X73472272Y-32299651D01*
X73190100Y-32721950D01*
X72907928Y-32299651D01*
X72454709Y-31996819D01*
X71920100Y-31890479D01*
X71385491Y-31996819D01*
X70932272Y-32299651D01*
X70650100Y-32721950D01*
X70367928Y-32299651D01*
X69914709Y-31996819D01*
X69380100Y-31890479D01*
X68845491Y-31996819D01*
X68392272Y-32299651D01*
X68110100Y-32721950D01*
X67827928Y-32299651D01*
X67374709Y-31996819D01*
X66840100Y-31890479D01*
X66305491Y-31996819D01*
X65852272Y-32299651D01*
X65570100Y-32721950D01*
X65287928Y-32299651D01*
X64834709Y-31996819D01*
X64300100Y-31890479D01*
X63765491Y-31996819D01*
X63312272Y-32299651D01*
X63009440Y-32752870D01*
X62903100Y-33287479D01*
X61633100Y-33287479D01*
X61526760Y-32752870D01*
X61223928Y-32299651D01*
X60770709Y-31996819D01*
X60236100Y-31890479D01*
X59701491Y-31996819D01*
X59248272Y-32299651D01*
X58966100Y-32721950D01*
X58683928Y-32299651D01*
X58230709Y-31996819D01*
X57696100Y-31890479D01*
X57161491Y-31996819D01*
X56708272Y-32299651D01*
X56426100Y-32721950D01*
X56143928Y-32299651D01*
X55690709Y-31996819D01*
X55156100Y-31890479D01*
X54621491Y-31996819D01*
X54168272Y-32299651D01*
X53886100Y-32721950D01*
X53603928Y-32299651D01*
X53150709Y-31996819D01*
X52616100Y-31890479D01*
X52081491Y-31996819D01*
X51628272Y-32299651D01*
X51346100Y-32721950D01*
X51063928Y-32299651D01*
X50610709Y-31996819D01*
X50076100Y-31890479D01*
X49541491Y-31996819D01*
X49088272Y-32299651D01*
X48806100Y-32721950D01*
X48523928Y-32299651D01*
X48070709Y-31996819D01*
X47536100Y-31890479D01*
X47001491Y-31996819D01*
X46548272Y-32299651D01*
X46256770Y-32735913D01*
X46238159Y-32672859D01*
X45894126Y-32247170D01*
X45413377Y-31985540D01*
X45339170Y-31970580D01*
X45123100Y-32093080D01*
X44869100Y-32093080D01*
X44653030Y-31970580D01*
X44578823Y-31985540D01*
X44098074Y-32247170D01*
X43754041Y-32672859D01*
X43735430Y-32735913D01*
X43443928Y-32299651D01*
X42990709Y-31996819D01*
X42456100Y-31890479D01*
X41921491Y-31996819D01*
X41468272Y-32299651D01*
X41186100Y-32721950D01*
X40903928Y-32299651D01*
X40450709Y-31996819D01*
X39916100Y-31890479D01*
X39381491Y-31996819D01*
X38928272Y-32299651D01*
X38646100Y-32721950D01*
X38363928Y-32299651D01*
X37910709Y-31996819D01*
X37376100Y-31890479D01*
X36841491Y-31996819D01*
X36388272Y-32299651D01*
X36085440Y-32752870D01*
X35979100Y-33287479D01*
X34607500Y-33287479D01*
X34607500Y-32755106D01*
X36133306Y-31229300D01*
X83424494Y-31229300D01*
X84683600Y-32488406D01*
X84683600Y-32488406D01*
G37*
X84683600Y-32488406D02*
X84683600Y-43865800D01*
X84693606Y-43915210D01*
X84720797Y-43955603D01*
X87223600Y-46458406D01*
X87223600Y-52912130D01*
X87059245Y-52666155D01*
X86106745Y-51713655D01*
X85803409Y-51510973D01*
X85445600Y-51439800D01*
X84562890Y-51439800D01*
X84418214Y-51295124D01*
X85060243Y-51295685D01*
X85877400Y-50958042D01*
X86503145Y-50333389D01*
X86842213Y-49516822D01*
X86842985Y-48632657D01*
X86505342Y-47815500D01*
X85880689Y-47189755D01*
X85064122Y-46850687D01*
X84179957Y-46849915D01*
X83362800Y-47187558D01*
X82737055Y-47812211D01*
X82397987Y-48628778D01*
X82397423Y-49274333D01*
X82344915Y-49221825D01*
X82345365Y-48705309D01*
X82112168Y-48140929D01*
X81680743Y-47708749D01*
X81116770Y-47474567D01*
X80913758Y-47474390D01*
X81424471Y-47263368D01*
X81856651Y-46831943D01*
X82090833Y-46267970D01*
X82091365Y-45657309D01*
X81858168Y-45092929D01*
X81426743Y-44660749D01*
X80862770Y-44426567D01*
X80252109Y-44426035D01*
X79687729Y-44659232D01*
X79255549Y-45090657D01*
X79021367Y-45654630D01*
X79020914Y-46174196D01*
X78497955Y-46697155D01*
X78295273Y-47000491D01*
X78224100Y-47358300D01*
X78224100Y-54851300D01*
X78295273Y-55209109D01*
X78497955Y-55512445D01*
X80339455Y-57353945D01*
X80642791Y-57556627D01*
X81000600Y-57627800D01*
X81039535Y-57627800D01*
X81287730Y-57876429D01*
X81495612Y-57962749D01*
X81289797Y-58047790D01*
X80896471Y-58440430D01*
X80683343Y-58953700D01*
X80682858Y-59509461D01*
X80895090Y-60023103D01*
X81287730Y-60416429D01*
X81801000Y-60629557D01*
X82356761Y-60630042D01*
X82870403Y-60417810D01*
X83263729Y-60025170D01*
X83350049Y-59817288D01*
X83435090Y-60023103D01*
X83827730Y-60416429D01*
X84341000Y-60629557D01*
X84896761Y-60630042D01*
X85410403Y-60417810D01*
X85803729Y-60025170D01*
X86016857Y-59511900D01*
X86017342Y-58956139D01*
X85805110Y-58442497D01*
X85412470Y-58049171D01*
X85204588Y-57962851D01*
X85410403Y-57877810D01*
X85803729Y-57485170D01*
X86016857Y-56971900D01*
X86017166Y-56618024D01*
X87059245Y-55575945D01*
X87223600Y-55329970D01*
X87223600Y-79627194D01*
X84720797Y-82129997D01*
X84692934Y-82172011D01*
X84683600Y-82219800D01*
X84683600Y-84696300D01*
X41784806Y-84696300D01*
X38635985Y-81547479D01*
X45123100Y-81547479D01*
X45123100Y-82638121D01*
X45229440Y-83172730D01*
X45532272Y-83625949D01*
X45985491Y-83928781D01*
X46520100Y-84035121D01*
X47054709Y-83928781D01*
X47507928Y-83625949D01*
X47790100Y-83203650D01*
X48072272Y-83625949D01*
X48525491Y-83928781D01*
X49060100Y-84035121D01*
X49594709Y-83928781D01*
X50047928Y-83625949D01*
X50330100Y-83203650D01*
X50612272Y-83625949D01*
X51065491Y-83928781D01*
X51600100Y-84035121D01*
X52134709Y-83928781D01*
X52587928Y-83625949D01*
X52870100Y-83203650D01*
X53152272Y-83625949D01*
X53605491Y-83928781D01*
X54140100Y-84035121D01*
X54674709Y-83928781D01*
X55127928Y-83625949D01*
X55410100Y-83203650D01*
X55692272Y-83625949D01*
X56145491Y-83928781D01*
X56680100Y-84035121D01*
X57214709Y-83928781D01*
X57667928Y-83625949D01*
X57959430Y-83189687D01*
X57978041Y-83252741D01*
X58322074Y-83678430D01*
X58802823Y-83940060D01*
X58877030Y-83955020D01*
X59093100Y-83832520D01*
X59093100Y-82219800D01*
X59347100Y-82219800D01*
X59347100Y-83832520D01*
X59563170Y-83955020D01*
X59637377Y-83940060D01*
X60118126Y-83678430D01*
X60462159Y-83252741D01*
X60490100Y-83158077D01*
X60518041Y-83252741D01*
X60862074Y-83678430D01*
X61342823Y-83940060D01*
X61417030Y-83955020D01*
X61633100Y-83832520D01*
X61633100Y-82219800D01*
X59347100Y-82219800D01*
X59093100Y-82219800D01*
X59073100Y-82219800D01*
X59073100Y-81965800D01*
X59093100Y-81965800D01*
X59093100Y-80353080D01*
X59347100Y-80353080D01*
X59347100Y-81965800D01*
X61633100Y-81965800D01*
X61633100Y-80353080D01*
X61417030Y-80230580D01*
X61342823Y-80245540D01*
X60862074Y-80507170D01*
X60518041Y-80932859D01*
X60490100Y-81027523D01*
X60462159Y-80932859D01*
X60118126Y-80507170D01*
X59637377Y-80245540D01*
X59563170Y-80230580D01*
X59347100Y-80353080D01*
X59093100Y-80353080D01*
X58877030Y-80230580D01*
X58802823Y-80245540D01*
X58322074Y-80507170D01*
X57978041Y-80932859D01*
X57959430Y-80995913D01*
X57667928Y-80559651D01*
X57615100Y-80524352D01*
X57615100Y-77803878D01*
X57967951Y-77451643D01*
X58202133Y-76887670D01*
X58202665Y-76277009D01*
X57995694Y-75776100D01*
X58235910Y-75776100D01*
X63194988Y-80735178D01*
X63020770Y-80995913D01*
X63002159Y-80932859D01*
X62658126Y-80507170D01*
X62177377Y-80245540D01*
X62103170Y-80230580D01*
X61887100Y-80353080D01*
X61887100Y-81965800D01*
X61907100Y-81965800D01*
X61907100Y-82219800D01*
X61887100Y-82219800D01*
X61887100Y-83832520D01*
X62103170Y-83955020D01*
X62177377Y-83940060D01*
X62658126Y-83678430D01*
X63002159Y-83252741D01*
X63020770Y-83189687D01*
X63312272Y-83625949D01*
X63765491Y-83928781D01*
X64300100Y-84035121D01*
X64834709Y-83928781D01*
X65287928Y-83625949D01*
X65590760Y-83172730D01*
X65697100Y-82638121D01*
X65697100Y-81547479D01*
X67983100Y-81547479D01*
X67983100Y-82638121D01*
X68089440Y-83172730D01*
X68392272Y-83625949D01*
X68845491Y-83928781D01*
X69380100Y-84035121D01*
X69914709Y-83928781D01*
X70367928Y-83625949D01*
X70650100Y-83203650D01*
X70932272Y-83625949D01*
X71385491Y-83928781D01*
X71920100Y-84035121D01*
X72454709Y-83928781D01*
X72907928Y-83625949D01*
X73190100Y-83203650D01*
X73472272Y-83625949D01*
X73925491Y-83928781D01*
X74460100Y-84035121D01*
X74994709Y-83928781D01*
X75447928Y-83625949D01*
X75730100Y-83203650D01*
X76012272Y-83625949D01*
X76465491Y-83928781D01*
X77000100Y-84035121D01*
X77534709Y-83928781D01*
X77987928Y-83625949D01*
X78270100Y-83203650D01*
X78552272Y-83625949D01*
X79005491Y-83928781D01*
X79540100Y-84035121D01*
X80074709Y-83928781D01*
X80527928Y-83625949D01*
X80810100Y-83203650D01*
X81092272Y-83625949D01*
X81545491Y-83928781D01*
X82080100Y-84035121D01*
X82614709Y-83928781D01*
X83067928Y-83625949D01*
X83370760Y-83172730D01*
X83477100Y-82638121D01*
X83477100Y-81547479D01*
X83370760Y-81012870D01*
X83067928Y-80559651D01*
X82614709Y-80256819D01*
X82080100Y-80150479D01*
X81545491Y-80256819D01*
X81092272Y-80559651D01*
X80810100Y-80981950D01*
X80527928Y-80559651D01*
X80074709Y-80256819D01*
X79540100Y-80150479D01*
X79005491Y-80256819D01*
X78552272Y-80559651D01*
X78270100Y-80981950D01*
X77987928Y-80559651D01*
X77534709Y-80256819D01*
X77000100Y-80150479D01*
X76465491Y-80256819D01*
X76012272Y-80559651D01*
X75730100Y-80981950D01*
X75447928Y-80559651D01*
X74994709Y-80256819D01*
X74460100Y-80150479D01*
X73925491Y-80256819D01*
X73472272Y-80559651D01*
X73190100Y-80981950D01*
X72907928Y-80559651D01*
X72454709Y-80256819D01*
X71920100Y-80150479D01*
X71385491Y-80256819D01*
X70932272Y-80559651D01*
X70650100Y-80981950D01*
X70367928Y-80559651D01*
X69914709Y-80256819D01*
X69380100Y-80150479D01*
X68845491Y-80256819D01*
X68392272Y-80559651D01*
X68089440Y-81012870D01*
X67983100Y-81547479D01*
X65697100Y-81547479D01*
X65590760Y-81012870D01*
X65287928Y-80559651D01*
X65235100Y-80524352D01*
X65235100Y-80518000D01*
X65163927Y-80160191D01*
X64961245Y-79856855D01*
X62557333Y-77452943D01*
X82397215Y-77452943D01*
X82734858Y-78270100D01*
X83359511Y-78895845D01*
X84176078Y-79234913D01*
X85060243Y-79235685D01*
X85877400Y-78898042D01*
X86503145Y-78273389D01*
X86842213Y-77456822D01*
X86842985Y-76572657D01*
X86505342Y-75755500D01*
X85880689Y-75129755D01*
X85064122Y-74790687D01*
X84179957Y-74789915D01*
X83362800Y-75127558D01*
X82737055Y-75752211D01*
X82397987Y-76568778D01*
X82397215Y-77452943D01*
X62557333Y-77452943D01*
X59284345Y-74179955D01*
X58981009Y-73977273D01*
X58623200Y-73906100D01*
X55832767Y-73906100D01*
X55417143Y-73489749D01*
X55182140Y-73392167D01*
X55229129Y-73360770D01*
X55410100Y-73089928D01*
X55591071Y-73360770D01*
X56077252Y-73685626D01*
X56650741Y-73799700D01*
X56709459Y-73799700D01*
X57282948Y-73685626D01*
X57769129Y-73360770D01*
X58093985Y-72874589D01*
X58208059Y-72301100D01*
X58093985Y-71727611D01*
X57769129Y-71241430D01*
X57454348Y-71031100D01*
X57769129Y-70820770D01*
X57801836Y-70771820D01*
X78747085Y-70771820D01*
X78876333Y-71064623D01*
X79576606Y-71332888D01*
X80326235Y-71312750D01*
X80925267Y-71064623D01*
X81054515Y-70771820D01*
X84147085Y-70771820D01*
X84276333Y-71064623D01*
X84976606Y-71332888D01*
X85726235Y-71312750D01*
X86325267Y-71064623D01*
X86454515Y-70771820D01*
X85300800Y-69618105D01*
X84147085Y-70771820D01*
X81054515Y-70771820D01*
X79900800Y-69618105D01*
X78747085Y-70771820D01*
X57801836Y-70771820D01*
X58093985Y-70334589D01*
X58208059Y-69761100D01*
X58093985Y-69187611D01*
X58045005Y-69114306D01*
X78006412Y-69114306D01*
X78026550Y-69863935D01*
X78274677Y-70462967D01*
X78567480Y-70592215D01*
X79721195Y-69438500D01*
X80080405Y-69438500D01*
X81234120Y-70592215D01*
X81526923Y-70462967D01*
X81795188Y-69762694D01*
X81777770Y-69114306D01*
X83406412Y-69114306D01*
X83426550Y-69863935D01*
X83674677Y-70462967D01*
X83967480Y-70592215D01*
X85121195Y-69438500D01*
X85480405Y-69438500D01*
X86634120Y-70592215D01*
X86926923Y-70462967D01*
X87195188Y-69762694D01*
X87175050Y-69013065D01*
X86926923Y-68414033D01*
X86634120Y-68284785D01*
X85480405Y-69438500D01*
X85121195Y-69438500D01*
X83967480Y-68284785D01*
X83674677Y-68414033D01*
X83406412Y-69114306D01*
X81777770Y-69114306D01*
X81775050Y-69013065D01*
X81526923Y-68414033D01*
X81234120Y-68284785D01*
X80080405Y-69438500D01*
X79721195Y-69438500D01*
X78567480Y-68284785D01*
X78274677Y-68414033D01*
X78006412Y-69114306D01*
X58045005Y-69114306D01*
X57769129Y-68701430D01*
X57454348Y-68491100D01*
X57769129Y-68280770D01*
X57886454Y-68105180D01*
X78747085Y-68105180D01*
X79900800Y-69258895D01*
X81054515Y-68105180D01*
X80925267Y-67812377D01*
X80224994Y-67544112D01*
X79475365Y-67564250D01*
X78876333Y-67812377D01*
X78747085Y-68105180D01*
X57886454Y-68105180D01*
X58093985Y-67794589D01*
X58208059Y-67221100D01*
X58186319Y-67111805D01*
X80715474Y-67111805D01*
X81001843Y-67804872D01*
X81531639Y-68335593D01*
X82224205Y-68623172D01*
X82974105Y-68623826D01*
X83667172Y-68337457D01*
X83899854Y-68105180D01*
X84147085Y-68105180D01*
X85300800Y-69258895D01*
X86454515Y-68105180D01*
X86325267Y-67812377D01*
X85624994Y-67544112D01*
X84875365Y-67564250D01*
X84276333Y-67812377D01*
X84147085Y-68105180D01*
X83899854Y-68105180D01*
X84197893Y-67807661D01*
X84485472Y-67115095D01*
X84486126Y-66365195D01*
X84199757Y-65672128D01*
X83899973Y-65371820D01*
X84147085Y-65371820D01*
X84276333Y-65664623D01*
X84976606Y-65932888D01*
X85726235Y-65912750D01*
X86325267Y-65664623D01*
X86454515Y-65371820D01*
X85300800Y-64218105D01*
X84147085Y-65371820D01*
X83899973Y-65371820D01*
X83669961Y-65141407D01*
X82977395Y-64853828D01*
X82227495Y-64853174D01*
X81534428Y-65139543D01*
X81003707Y-65669339D01*
X80716128Y-66361905D01*
X80715474Y-67111805D01*
X58186319Y-67111805D01*
X58093985Y-66647611D01*
X57769129Y-66161430D01*
X57282948Y-65836574D01*
X56709459Y-65722500D01*
X56650741Y-65722500D01*
X56077252Y-65836574D01*
X55611658Y-66147674D01*
X55606862Y-66122183D01*
X55467790Y-65906059D01*
X55255590Y-65761069D01*
X55003700Y-65710060D01*
X53276500Y-65710060D01*
X53041183Y-65754338D01*
X52825059Y-65893410D01*
X52680069Y-66105610D01*
X52629060Y-66357500D01*
X52629060Y-68084700D01*
X52673338Y-68320017D01*
X52812410Y-68536141D01*
X53024610Y-68681131D01*
X53068231Y-68689964D01*
X53051071Y-68701430D01*
X52726215Y-69187611D01*
X52612141Y-69761100D01*
X52726215Y-70334589D01*
X53051071Y-70820770D01*
X53365852Y-71031100D01*
X53051071Y-71241430D01*
X52726215Y-71727611D01*
X52612141Y-72301100D01*
X52726215Y-72874589D01*
X53051071Y-73360770D01*
X53503189Y-73662866D01*
X53245949Y-73919657D01*
X53011767Y-74483630D01*
X53011235Y-75094291D01*
X53244432Y-75658671D01*
X53675857Y-76090851D01*
X54239830Y-76325033D01*
X54850491Y-76325565D01*
X55165427Y-76195436D01*
X55132667Y-76274330D01*
X55132135Y-76884991D01*
X55365332Y-77449371D01*
X55745100Y-77829804D01*
X55745100Y-80524352D01*
X55692272Y-80559651D01*
X55410100Y-80981950D01*
X55127928Y-80559651D01*
X54674709Y-80256819D01*
X54140100Y-80150479D01*
X53605491Y-80256819D01*
X53152272Y-80559651D01*
X52870100Y-80981950D01*
X52587928Y-80559651D01*
X52134709Y-80256819D01*
X51600100Y-80150479D01*
X51065491Y-80256819D01*
X50612272Y-80559651D01*
X50330100Y-80981950D01*
X50047928Y-80559651D01*
X49594709Y-80256819D01*
X49060100Y-80150479D01*
X48525491Y-80256819D01*
X48072272Y-80559651D01*
X47790100Y-80981950D01*
X47507928Y-80559651D01*
X47054709Y-80256819D01*
X46520100Y-80150479D01*
X45985491Y-80256819D01*
X45532272Y-80559651D01*
X45229440Y-81012870D01*
X45123100Y-81547479D01*
X38635985Y-81547479D01*
X38023800Y-80935294D01*
X38023800Y-69342000D01*
X38013794Y-69292590D01*
X37986603Y-69252197D01*
X37813152Y-69078746D01*
X37809668Y-69073532D01*
X34607500Y-65871364D01*
X34607500Y-65371820D01*
X78747085Y-65371820D01*
X78876333Y-65664623D01*
X79576606Y-65932888D01*
X80326235Y-65912750D01*
X80925267Y-65664623D01*
X81054515Y-65371820D01*
X79900800Y-64218105D01*
X78747085Y-65371820D01*
X34607500Y-65371820D01*
X34607500Y-63791459D01*
X38360689Y-63791459D01*
X38391040Y-63917257D01*
X38702224Y-64472170D01*
X39202077Y-64865758D01*
X39814500Y-65038100D01*
X40805100Y-65038100D01*
X40805100Y-63539500D01*
X41059100Y-63539500D01*
X41059100Y-65038100D01*
X42049700Y-65038100D01*
X42662123Y-64865758D01*
X43161976Y-64472170D01*
X43473160Y-63917257D01*
X43503511Y-63791459D01*
X43466929Y-63714306D01*
X78006412Y-63714306D01*
X78026550Y-64463935D01*
X78274677Y-65062967D01*
X78567480Y-65192215D01*
X79721195Y-64038500D01*
X80080405Y-64038500D01*
X81234120Y-65192215D01*
X81526923Y-65062967D01*
X81795188Y-64362694D01*
X81777770Y-63714306D01*
X83406412Y-63714306D01*
X83426550Y-64463935D01*
X83674677Y-65062967D01*
X83967480Y-65192215D01*
X85121195Y-64038500D01*
X85480405Y-64038500D01*
X86634120Y-65192215D01*
X86926923Y-65062967D01*
X87195188Y-64362694D01*
X87175050Y-63613065D01*
X86926923Y-63014033D01*
X86634120Y-62884785D01*
X85480405Y-64038500D01*
X85121195Y-64038500D01*
X83967480Y-62884785D01*
X83674677Y-63014033D01*
X83406412Y-63714306D01*
X81777770Y-63714306D01*
X81775050Y-63613065D01*
X81526923Y-63014033D01*
X81234120Y-62884785D01*
X80080405Y-64038500D01*
X79721195Y-64038500D01*
X78567480Y-62884785D01*
X78274677Y-63014033D01*
X78006412Y-63714306D01*
X43466929Y-63714306D01*
X43384042Y-63539500D01*
X41059100Y-63539500D01*
X40805100Y-63539500D01*
X38480158Y-63539500D01*
X38360689Y-63791459D01*
X34607500Y-63791459D01*
X34607500Y-63033541D01*
X38360689Y-63033541D01*
X38480158Y-63285500D01*
X40805100Y-63285500D01*
X40805100Y-61786900D01*
X41059100Y-61786900D01*
X41059100Y-63285500D01*
X43384042Y-63285500D01*
X43503511Y-63033541D01*
X43473160Y-62907743D01*
X43359567Y-62705180D01*
X78747085Y-62705180D01*
X79900800Y-63858895D01*
X81054515Y-62705180D01*
X84147085Y-62705180D01*
X85300800Y-63858895D01*
X86454515Y-62705180D01*
X86325267Y-62412377D01*
X85624994Y-62144112D01*
X84875365Y-62164250D01*
X84276333Y-62412377D01*
X84147085Y-62705180D01*
X81054515Y-62705180D01*
X80925267Y-62412377D01*
X80224994Y-62144112D01*
X79475365Y-62164250D01*
X78876333Y-62412377D01*
X78747085Y-62705180D01*
X43359567Y-62705180D01*
X43161976Y-62352830D01*
X42662123Y-61959242D01*
X42049700Y-61786900D01*
X41059100Y-61786900D01*
X40805100Y-61786900D01*
X39814500Y-61786900D01*
X39202077Y-61959242D01*
X38702224Y-62352830D01*
X38391040Y-62907743D01*
X38360689Y-63033541D01*
X34607500Y-63033541D01*
X34607500Y-58412500D01*
X38264646Y-58412500D01*
X38388387Y-59034590D01*
X38740773Y-59561973D01*
X39268156Y-59914359D01*
X39890246Y-60038100D01*
X41973954Y-60038100D01*
X42596044Y-59914359D01*
X43123427Y-59561973D01*
X43475813Y-59034590D01*
X43599554Y-58412500D01*
X43475813Y-57790410D01*
X43398031Y-57674000D01*
X54677060Y-57674000D01*
X54677060Y-59674000D01*
X54721338Y-59909317D01*
X54860410Y-60125441D01*
X55072610Y-60270431D01*
X55324500Y-60321440D01*
X57324500Y-60321440D01*
X57559817Y-60277162D01*
X57775941Y-60138090D01*
X57920931Y-59925890D01*
X57971940Y-59674000D01*
X57971940Y-57674000D01*
X57927662Y-57438683D01*
X57788590Y-57222559D01*
X57576390Y-57077569D01*
X57324500Y-57026560D01*
X55324500Y-57026560D01*
X55089183Y-57070838D01*
X54873059Y-57209910D01*
X54728069Y-57422110D01*
X54677060Y-57674000D01*
X43398031Y-57674000D01*
X43123427Y-57263027D01*
X42596044Y-56910641D01*
X41973954Y-56786900D01*
X39890246Y-56786900D01*
X39268156Y-56910641D01*
X38740773Y-57263027D01*
X38388387Y-57790410D01*
X38264646Y-58412500D01*
X34607500Y-58412500D01*
X34607500Y-54826532D01*
X55351573Y-54826532D01*
X55450236Y-55093387D01*
X56059961Y-55319908D01*
X56709960Y-55295856D01*
X57198764Y-55093387D01*
X57297427Y-54826532D01*
X56324500Y-53853605D01*
X55351573Y-54826532D01*
X34607500Y-54826532D01*
X34607500Y-51660967D01*
X44245530Y-51660967D01*
X44245530Y-52733033D01*
X44351000Y-53263268D01*
X44651354Y-53712779D01*
X45100865Y-54013133D01*
X45631100Y-54118603D01*
X46161335Y-54013133D01*
X46610846Y-53712779D01*
X46911200Y-53263268D01*
X46913050Y-53253968D01*
X46939601Y-53343677D01*
X47281156Y-53765658D01*
X47758197Y-54024810D01*
X47829825Y-54038993D01*
X48044100Y-53916339D01*
X48044100Y-52324000D01*
X48024100Y-52324000D01*
X48024100Y-52070000D01*
X48044100Y-52070000D01*
X48044100Y-50477661D01*
X48298100Y-50477661D01*
X48298100Y-52070000D01*
X48318100Y-52070000D01*
X48318100Y-52324000D01*
X48298100Y-52324000D01*
X48298100Y-53916339D01*
X48512375Y-54038993D01*
X48584003Y-54024810D01*
X49061044Y-53765658D01*
X49402599Y-53343677D01*
X49429150Y-53253968D01*
X49431000Y-53263268D01*
X49731354Y-53712779D01*
X50180865Y-54013133D01*
X50711100Y-54118603D01*
X51241335Y-54013133D01*
X51690846Y-53712779D01*
X51893516Y-53409461D01*
X54678592Y-53409461D01*
X54702644Y-54059460D01*
X54905113Y-54548264D01*
X55171968Y-54646927D01*
X56144895Y-53674000D01*
X56504105Y-53674000D01*
X57477032Y-54646927D01*
X57743887Y-54548264D01*
X57970408Y-53938539D01*
X57946356Y-53288540D01*
X57743887Y-52799736D01*
X57477032Y-52701073D01*
X56504105Y-53674000D01*
X56144895Y-53674000D01*
X55171968Y-52701073D01*
X54905113Y-52799736D01*
X54678592Y-53409461D01*
X51893516Y-53409461D01*
X51991200Y-53263268D01*
X52096670Y-52733033D01*
X52096670Y-52521468D01*
X55351573Y-52521468D01*
X56324500Y-53494395D01*
X57297427Y-52521468D01*
X57198764Y-52254613D01*
X56589039Y-52028092D01*
X55939040Y-52052144D01*
X55450236Y-52254613D01*
X55351573Y-52521468D01*
X52096670Y-52521468D01*
X52096670Y-51660967D01*
X51991200Y-51130732D01*
X51690846Y-50681221D01*
X51241335Y-50380867D01*
X50711100Y-50275397D01*
X50180865Y-50380867D01*
X49731354Y-50681221D01*
X49431000Y-51130732D01*
X49429150Y-51140032D01*
X49402599Y-51050323D01*
X49061044Y-50628342D01*
X48584003Y-50369190D01*
X48512375Y-50355007D01*
X48298100Y-50477661D01*
X48044100Y-50477661D01*
X47829825Y-50355007D01*
X47758197Y-50369190D01*
X47281156Y-50628342D01*
X46939601Y-51050323D01*
X46913050Y-51140032D01*
X46911200Y-51130732D01*
X46610846Y-50681221D01*
X46161335Y-50380867D01*
X45631100Y-50275397D01*
X45100865Y-50380867D01*
X44651354Y-50681221D01*
X44351000Y-51130732D01*
X44245530Y-51660967D01*
X34607500Y-51660967D01*
X34607500Y-44427900D01*
X43983660Y-44427900D01*
X43983660Y-46427900D01*
X44027938Y-46663217D01*
X44167010Y-46879341D01*
X44379210Y-47024331D01*
X44631100Y-47075340D01*
X46631100Y-47075340D01*
X46866417Y-47031062D01*
X47082541Y-46891990D01*
X47227531Y-46679790D01*
X47247651Y-46580432D01*
X49658173Y-46580432D01*
X49756836Y-46847287D01*
X50366561Y-47073808D01*
X51016560Y-47049756D01*
X51505364Y-46847287D01*
X51604027Y-46580432D01*
X50631100Y-45607505D01*
X49658173Y-46580432D01*
X47247651Y-46580432D01*
X47278540Y-46427900D01*
X47278540Y-45163361D01*
X48985192Y-45163361D01*
X49009244Y-45813360D01*
X49211713Y-46302164D01*
X49478568Y-46400827D01*
X50451495Y-45427900D01*
X50810705Y-45427900D01*
X51783632Y-46400827D01*
X52050487Y-46302164D01*
X52277008Y-45692439D01*
X52252956Y-45042440D01*
X52050487Y-44553636D01*
X51783632Y-44454973D01*
X50810705Y-45427900D01*
X50451495Y-45427900D01*
X49478568Y-44454973D01*
X49211713Y-44553636D01*
X48985192Y-45163361D01*
X47278540Y-45163361D01*
X47278540Y-44427900D01*
X47249840Y-44275368D01*
X49658173Y-44275368D01*
X50631100Y-45248295D01*
X51604027Y-44275368D01*
X51505364Y-44008513D01*
X50895639Y-43781992D01*
X50245640Y-43806044D01*
X49756836Y-44008513D01*
X49658173Y-44275368D01*
X47249840Y-44275368D01*
X47234262Y-44192583D01*
X47095190Y-43976459D01*
X46882990Y-43831469D01*
X46631100Y-43780460D01*
X44631100Y-43780460D01*
X44395783Y-43824738D01*
X44179659Y-43963810D01*
X44034669Y-44176010D01*
X43983660Y-44427900D01*
X34607500Y-44427900D01*
X34607500Y-33287479D01*
X35979100Y-33287479D01*
X35979100Y-34378121D01*
X36085440Y-34912730D01*
X36388272Y-35365949D01*
X36841491Y-35668781D01*
X37376100Y-35775121D01*
X37910709Y-35668781D01*
X38363928Y-35365949D01*
X38646100Y-34943650D01*
X38928272Y-35365949D01*
X39381491Y-35668781D01*
X39916100Y-35775121D01*
X40450709Y-35668781D01*
X40903928Y-35365949D01*
X41186100Y-34943650D01*
X41468272Y-35365949D01*
X41921491Y-35668781D01*
X42456100Y-35775121D01*
X42990709Y-35668781D01*
X43443928Y-35365949D01*
X43735430Y-34929687D01*
X43754041Y-34992741D01*
X44098074Y-35418430D01*
X44578823Y-35680060D01*
X44653030Y-35695020D01*
X44869100Y-35572520D01*
X44869100Y-33959800D01*
X44849100Y-33959800D01*
X44849100Y-33705800D01*
X44869100Y-33705800D01*
X44869100Y-32093080D01*
X45123100Y-32093080D01*
X45123100Y-33705800D01*
X45143100Y-33705800D01*
X45143100Y-33959800D01*
X45123100Y-33959800D01*
X45123100Y-35572520D01*
X45339170Y-35695020D01*
X45413377Y-35680060D01*
X45894126Y-35418430D01*
X46238159Y-34992741D01*
X46256770Y-34929687D01*
X46548272Y-35365949D01*
X47001491Y-35668781D01*
X47536100Y-35775121D01*
X48070709Y-35668781D01*
X48523928Y-35365949D01*
X48806100Y-34943650D01*
X49088272Y-35365949D01*
X49541491Y-35668781D01*
X50076100Y-35775121D01*
X50610709Y-35668781D01*
X51063928Y-35365949D01*
X51346100Y-34943650D01*
X51628272Y-35365949D01*
X52081491Y-35668781D01*
X52616100Y-35775121D01*
X53150709Y-35668781D01*
X53603928Y-35365949D01*
X53886100Y-34943650D01*
X54168272Y-35365949D01*
X54621491Y-35668781D01*
X55156100Y-35775121D01*
X55690709Y-35668781D01*
X56143928Y-35365949D01*
X56426100Y-34943650D01*
X56708272Y-35365949D01*
X57161491Y-35668781D01*
X57696100Y-35775121D01*
X58230709Y-35668781D01*
X58683928Y-35365949D01*
X58966100Y-34943650D01*
X59248272Y-35365949D01*
X59701491Y-35668781D01*
X60236100Y-35775121D01*
X60770709Y-35668781D01*
X61223928Y-35365949D01*
X61526760Y-34912730D01*
X61633100Y-34378121D01*
X61633100Y-33287479D01*
X62903100Y-33287479D01*
X62903100Y-34378121D01*
X63009440Y-34912730D01*
X63312272Y-35365949D01*
X63765491Y-35668781D01*
X64300100Y-35775121D01*
X64834709Y-35668781D01*
X65287928Y-35365949D01*
X65570100Y-34943650D01*
X65852272Y-35365949D01*
X66305491Y-35668781D01*
X66840100Y-35775121D01*
X67374709Y-35668781D01*
X67827928Y-35365949D01*
X68110100Y-34943650D01*
X68392272Y-35365949D01*
X68845491Y-35668781D01*
X69380100Y-35775121D01*
X69914709Y-35668781D01*
X70367928Y-35365949D01*
X70650100Y-34943650D01*
X70932272Y-35365949D01*
X70985100Y-35401248D01*
X70985100Y-35541010D01*
X69973625Y-36552485D01*
X69457109Y-36552035D01*
X68892729Y-36785232D01*
X68460549Y-37216657D01*
X68226367Y-37780630D01*
X68225835Y-38391291D01*
X68459032Y-38955671D01*
X68890457Y-39387851D01*
X69454430Y-39622033D01*
X70065091Y-39622565D01*
X70629471Y-39389368D01*
X71061651Y-38957943D01*
X71295833Y-38393970D01*
X71296286Y-37874404D01*
X72581245Y-36589445D01*
X72783927Y-36286109D01*
X72855100Y-35928300D01*
X72855100Y-35401248D01*
X72907928Y-35365949D01*
X73190100Y-34943650D01*
X73472272Y-35365949D01*
X73525100Y-35401248D01*
X73525100Y-36615594D01*
X73457609Y-36615535D01*
X72893229Y-36848732D01*
X72461049Y-37280157D01*
X72226867Y-37844130D01*
X72226335Y-38454791D01*
X72459532Y-39019171D01*
X72890957Y-39451351D01*
X73454930Y-39685533D01*
X74065591Y-39686065D01*
X74629971Y-39452868D01*
X75062151Y-39021443D01*
X75296333Y-38457470D01*
X75296862Y-37850615D01*
X75323927Y-37810109D01*
X75395100Y-37452300D01*
X75395100Y-35401248D01*
X75447928Y-35365949D01*
X75730100Y-34943650D01*
X76012272Y-35365949D01*
X76065100Y-35401248D01*
X76065100Y-37007800D01*
X76136273Y-37365609D01*
X76338955Y-37668945D01*
X76735285Y-38065275D01*
X76734835Y-38581791D01*
X76968032Y-39146171D01*
X77399457Y-39578351D01*
X77963430Y-39812533D01*
X78574091Y-39813065D01*
X79138471Y-39579868D01*
X79570651Y-39148443D01*
X79804833Y-38584470D01*
X79805365Y-37973809D01*
X79572168Y-37409429D01*
X79140743Y-36977249D01*
X78576770Y-36743067D01*
X78057204Y-36742614D01*
X77935100Y-36620510D01*
X77935100Y-35401248D01*
X77987928Y-35365949D01*
X78270100Y-34943650D01*
X78552272Y-35365949D01*
X79005491Y-35668781D01*
X79540100Y-35775121D01*
X80074709Y-35668781D01*
X80527928Y-35365949D01*
X80810100Y-34943650D01*
X81092272Y-35365949D01*
X81545491Y-35668781D01*
X82080100Y-35775121D01*
X82614709Y-35668781D01*
X83067928Y-35365949D01*
X83370760Y-34912730D01*
X83477100Y-34378121D01*
X83477100Y-33287479D01*
X83370760Y-32752870D01*
X83067928Y-32299651D01*
X82614709Y-31996819D01*
X82080100Y-31890479D01*
X81545491Y-31996819D01*
X81092272Y-32299651D01*
X80810100Y-32721950D01*
X80527928Y-32299651D01*
X80074709Y-31996819D01*
X79540100Y-31890479D01*
X79005491Y-31996819D01*
X78552272Y-32299651D01*
X78270100Y-32721950D01*
X77987928Y-32299651D01*
X77534709Y-31996819D01*
X77000100Y-31890479D01*
X76465491Y-31996819D01*
X76012272Y-32299651D01*
X75730100Y-32721950D01*
X75447928Y-32299651D01*
X74994709Y-31996819D01*
X74460100Y-31890479D01*
X73925491Y-31996819D01*
X73472272Y-32299651D01*
X73190100Y-32721950D01*
X72907928Y-32299651D01*
X72454709Y-31996819D01*
X71920100Y-31890479D01*
X71385491Y-31996819D01*
X70932272Y-32299651D01*
X70650100Y-32721950D01*
X70367928Y-32299651D01*
X69914709Y-31996819D01*
X69380100Y-31890479D01*
X68845491Y-31996819D01*
X68392272Y-32299651D01*
X68110100Y-32721950D01*
X67827928Y-32299651D01*
X67374709Y-31996819D01*
X66840100Y-31890479D01*
X66305491Y-31996819D01*
X65852272Y-32299651D01*
X65570100Y-32721950D01*
X65287928Y-32299651D01*
X64834709Y-31996819D01*
X64300100Y-31890479D01*
X63765491Y-31996819D01*
X63312272Y-32299651D01*
X63009440Y-32752870D01*
X62903100Y-33287479D01*
X61633100Y-33287479D01*
X61526760Y-32752870D01*
X61223928Y-32299651D01*
X60770709Y-31996819D01*
X60236100Y-31890479D01*
X59701491Y-31996819D01*
X59248272Y-32299651D01*
X58966100Y-32721950D01*
X58683928Y-32299651D01*
X58230709Y-31996819D01*
X57696100Y-31890479D01*
X57161491Y-31996819D01*
X56708272Y-32299651D01*
X56426100Y-32721950D01*
X56143928Y-32299651D01*
X55690709Y-31996819D01*
X55156100Y-31890479D01*
X54621491Y-31996819D01*
X54168272Y-32299651D01*
X53886100Y-32721950D01*
X53603928Y-32299651D01*
X53150709Y-31996819D01*
X52616100Y-31890479D01*
X52081491Y-31996819D01*
X51628272Y-32299651D01*
X51346100Y-32721950D01*
X51063928Y-32299651D01*
X50610709Y-31996819D01*
X50076100Y-31890479D01*
X49541491Y-31996819D01*
X49088272Y-32299651D01*
X48806100Y-32721950D01*
X48523928Y-32299651D01*
X48070709Y-31996819D01*
X47536100Y-31890479D01*
X47001491Y-31996819D01*
X46548272Y-32299651D01*
X46256770Y-32735913D01*
X46238159Y-32672859D01*
X45894126Y-32247170D01*
X45413377Y-31985540D01*
X45339170Y-31970580D01*
X45123100Y-32093080D01*
X44869100Y-32093080D01*
X44653030Y-31970580D01*
X44578823Y-31985540D01*
X44098074Y-32247170D01*
X43754041Y-32672859D01*
X43735430Y-32735913D01*
X43443928Y-32299651D01*
X42990709Y-31996819D01*
X42456100Y-31890479D01*
X41921491Y-31996819D01*
X41468272Y-32299651D01*
X41186100Y-32721950D01*
X40903928Y-32299651D01*
X40450709Y-31996819D01*
X39916100Y-31890479D01*
X39381491Y-31996819D01*
X38928272Y-32299651D01*
X38646100Y-32721950D01*
X38363928Y-32299651D01*
X37910709Y-31996819D01*
X37376100Y-31890479D01*
X36841491Y-31996819D01*
X36388272Y-32299651D01*
X36085440Y-32752870D01*
X35979100Y-33287479D01*
X34607500Y-33287479D01*
X34607500Y-32755106D01*
X36133306Y-31229300D01*
X83424494Y-31229300D01*
X84683600Y-32488406D01*
M02*
