M48
;DRILL file {KiCad 4.0.2-4+6225~38~ubuntu15.10.1-stable} date vie 19 feb 2016 01:19:43 CLT
;FORMAT={-:-/ absolute / metric / decimal}
FMAT,2
METRIC,TZ
T1C0.900
T2C1.001
T3C1.016
T4C1.321
T5C1.600
T6C3.175
%
G90
G05
M71
T1
X45.631Y-45.428
X50.631Y-45.428
X54.546Y-74.79
X56.325Y-53.674
X56.325Y-58.674
X56.667Y-76.581
X69.761Y-38.087
X73.762Y-38.151
X78.27Y-38.278
X80.556Y-45.961
X80.62Y-51.486
X80.81Y-49.009
T2
X45.631Y-52.197
X48.171Y-52.197
X50.711Y-52.197
T3
X37.376Y-33.833
X39.916Y-33.833
X42.456Y-33.833
X44.996Y-33.833
X46.52Y-82.093
X47.536Y-33.833
X49.06Y-82.093
X50.076Y-33.833
X51.6Y-82.093
X52.616Y-33.833
X54.14Y-67.221
X54.14Y-69.761
X54.14Y-72.301
X54.14Y-82.093
X55.156Y-33.833
X56.68Y-67.221
X56.68Y-69.761
X56.68Y-72.301
X56.68Y-82.093
X57.696Y-33.833
X59.22Y-82.093
X60.236Y-33.833
X61.76Y-82.093
X64.3Y-33.833
X64.3Y-82.093
X66.84Y-33.833
X69.38Y-33.833
X69.38Y-82.093
X71.92Y-33.833
X71.92Y-82.093
X74.46Y-33.833
X74.46Y-82.093
X77.Y-33.833
X77.Y-82.093
X79.54Y-33.833
X79.54Y-82.093
X82.08Y-33.833
X82.08Y-54.153
X82.08Y-56.693
X82.08Y-59.233
X82.08Y-82.093
X84.62Y-54.153
X84.62Y-56.693
X84.62Y-59.233
T4
X40.932Y-58.412
X40.932Y-63.412
T5
X79.901Y-64.038
X79.901Y-69.438
X82.601Y-66.739
X85.301Y-64.038
X85.301Y-69.438
T6
X84.62Y-49.073
X84.62Y-77.013
T0
M30
