G04 #@! TF.FileFunction,Copper,L2,Bot,Signal*
%FSLAX46Y46*%
G04 Gerber Fmt 4.6, Leading zero omitted, Abs format (unit mm)*
G04 Created by KiCad (PCBNEW 4.0.2+e4-6225~38~ubuntu15.10.1-stable) date mar 10 may 2016 19:22:59 CLST*
%MOMM*%
G01*
G04 APERTURE LIST*
%ADD10C,0.100000*%
%ADD11O,1.524000X2.540000*%
%ADD12C,1.524000*%
%ADD13R,1.727200X2.032000*%
%ADD14O,1.727200X2.032000*%
%ADD15C,1.800000*%
%ADD16C,0.600000*%
%ADD17C,0.750000*%
%ADD18C,0.254000*%
G04 APERTURE END LIST*
D10*
D11*
X217081100Y-54203600D03*
X219621100Y-54203600D03*
X222161100Y-54203600D03*
X224701100Y-54203600D03*
X217081100Y-102463600D03*
X214541100Y-102463600D03*
X212001100Y-102463600D03*
X209461100Y-102463600D03*
X206921100Y-102463600D03*
X199301100Y-102463600D03*
X201841100Y-102463600D03*
X204381100Y-102463600D03*
X194221100Y-102463600D03*
X191681100Y-102463600D03*
X189141100Y-102463600D03*
X184061100Y-102463600D03*
X181521100Y-102463600D03*
X212001100Y-54203600D03*
X209461100Y-54203600D03*
X206921100Y-54203600D03*
X204381100Y-54203600D03*
X201841100Y-54203600D03*
X199301100Y-54203600D03*
X196761100Y-54203600D03*
X194221100Y-54203600D03*
X190157100Y-54203600D03*
X187617100Y-54203600D03*
X185077100Y-54203600D03*
X182537100Y-54203600D03*
X179997100Y-54203600D03*
X177457100Y-54203600D03*
X174917100Y-54203600D03*
X186601100Y-102463600D03*
D12*
X212001100Y-74523600D03*
X214541100Y-74523600D03*
X212001100Y-77063600D03*
X214541100Y-77063600D03*
X212001100Y-79603600D03*
X214541100Y-79603600D03*
D11*
X178981100Y-102463600D03*
D13*
X185000000Y-93500000D03*
D14*
X187540000Y-93500000D03*
X190080000Y-93500000D03*
X192620000Y-93500000D03*
X195160000Y-93500000D03*
X197700000Y-93500000D03*
X200240000Y-93500000D03*
D13*
X185000000Y-63000000D03*
D14*
X187540000Y-63000000D03*
X190080000Y-63000000D03*
X192620000Y-63000000D03*
X195160000Y-63000000D03*
X197700000Y-63000000D03*
X200240000Y-63000000D03*
D13*
X209550000Y-93408500D03*
D14*
X212090000Y-93408500D03*
X214630000Y-93408500D03*
X217170000Y-93408500D03*
X219710000Y-93408500D03*
X222250000Y-93408500D03*
X224790000Y-93408500D03*
X227330000Y-93408500D03*
D15*
X220154500Y-57531000D03*
X224726500Y-60198000D03*
X187452000Y-97536000D03*
X187960000Y-60198000D03*
X192786000Y-58166000D03*
X184912000Y-58674000D03*
X200660000Y-74422000D03*
X196850000Y-76708000D03*
X195580000Y-70104000D03*
D16*
X219710000Y-93408500D02*
X219710000Y-57975500D01*
X219710000Y-57975500D02*
X220154500Y-57531000D01*
X222250000Y-93408500D02*
X222250000Y-62674500D01*
X222250000Y-62674500D02*
X224726500Y-60198000D01*
D17*
X187540000Y-93500000D02*
X187540000Y-92304500D01*
X206248000Y-90106500D02*
X209550000Y-93408500D01*
X189738000Y-90106500D02*
X206248000Y-90106500D01*
X187540000Y-92304500D02*
X189738000Y-90106500D01*
X187540000Y-97448000D02*
X187540000Y-93500000D01*
X187452000Y-97536000D02*
X187540000Y-97448000D01*
D16*
X187540000Y-63000000D02*
X187540000Y-60618000D01*
X187540000Y-60618000D02*
X187960000Y-60198000D01*
X190080000Y-63000000D02*
X190080000Y-60872000D01*
X190080000Y-60872000D02*
X192786000Y-58166000D01*
X185000000Y-63000000D02*
X185000000Y-58762000D01*
X185000000Y-58762000D02*
X184912000Y-58674000D01*
X185000000Y-54280700D02*
X185077100Y-54203600D01*
X197700000Y-63000000D02*
X197700000Y-71462000D01*
X197700000Y-71462000D02*
X200660000Y-74422000D01*
X192620000Y-63000000D02*
X192620000Y-72478000D01*
X192620000Y-72478000D02*
X196850000Y-76708000D01*
X195160000Y-63000000D02*
X195160000Y-69684000D01*
X195160000Y-69684000D02*
X195580000Y-70104000D01*
X190080000Y-93500000D02*
X190080000Y-94830000D01*
X197700000Y-94654000D02*
X197700000Y-93500000D01*
X196342000Y-96012000D02*
X197700000Y-94654000D01*
X191262000Y-96012000D02*
X196342000Y-96012000D01*
X190080000Y-94830000D02*
X191262000Y-96012000D01*
X192620000Y-93500000D02*
X195160000Y-93500000D01*
D18*
G36*
X229298500Y-55170606D02*
X229298500Y-95959394D01*
X220482894Y-104775000D01*
X178360606Y-104775000D01*
X175503885Y-101918279D01*
X177584100Y-101918279D01*
X177584100Y-103008921D01*
X177690440Y-103543530D01*
X177993272Y-103996749D01*
X178446491Y-104299581D01*
X178981100Y-104405921D01*
X179515709Y-104299581D01*
X179968928Y-103996749D01*
X180251100Y-103574450D01*
X180533272Y-103996749D01*
X180986491Y-104299581D01*
X181521100Y-104405921D01*
X182055709Y-104299581D01*
X182508928Y-103996749D01*
X182791100Y-103574450D01*
X183073272Y-103996749D01*
X183526491Y-104299581D01*
X184061100Y-104405921D01*
X184595709Y-104299581D01*
X185048928Y-103996749D01*
X185331100Y-103574450D01*
X185613272Y-103996749D01*
X186066491Y-104299581D01*
X186601100Y-104405921D01*
X187135709Y-104299581D01*
X187588928Y-103996749D01*
X187880430Y-103560487D01*
X187899041Y-103623541D01*
X188243074Y-104049230D01*
X188723823Y-104310860D01*
X188798030Y-104325820D01*
X189014100Y-104203320D01*
X189014100Y-102590600D01*
X189268100Y-102590600D01*
X189268100Y-104203320D01*
X189484170Y-104325820D01*
X189558377Y-104310860D01*
X190039126Y-104049230D01*
X190383159Y-103623541D01*
X190411100Y-103528877D01*
X190439041Y-103623541D01*
X190783074Y-104049230D01*
X191263823Y-104310860D01*
X191338030Y-104325820D01*
X191554100Y-104203320D01*
X191554100Y-102590600D01*
X189268100Y-102590600D01*
X189014100Y-102590600D01*
X188994100Y-102590600D01*
X188994100Y-102336600D01*
X189014100Y-102336600D01*
X189014100Y-100723880D01*
X189268100Y-100723880D01*
X189268100Y-102336600D01*
X191554100Y-102336600D01*
X191554100Y-100723880D01*
X191808100Y-100723880D01*
X191808100Y-102336600D01*
X191828100Y-102336600D01*
X191828100Y-102590600D01*
X191808100Y-102590600D01*
X191808100Y-104203320D01*
X192024170Y-104325820D01*
X192098377Y-104310860D01*
X192579126Y-104049230D01*
X192923159Y-103623541D01*
X192941770Y-103560487D01*
X193233272Y-103996749D01*
X193686491Y-104299581D01*
X194221100Y-104405921D01*
X194755709Y-104299581D01*
X195208928Y-103996749D01*
X195511760Y-103543530D01*
X195618100Y-103008921D01*
X195618100Y-101918279D01*
X197904100Y-101918279D01*
X197904100Y-103008921D01*
X198010440Y-103543530D01*
X198313272Y-103996749D01*
X198766491Y-104299581D01*
X199301100Y-104405921D01*
X199835709Y-104299581D01*
X200288928Y-103996749D01*
X200571100Y-103574450D01*
X200853272Y-103996749D01*
X201306491Y-104299581D01*
X201841100Y-104405921D01*
X202375709Y-104299581D01*
X202828928Y-103996749D01*
X203111100Y-103574450D01*
X203393272Y-103996749D01*
X203846491Y-104299581D01*
X204381100Y-104405921D01*
X204915709Y-104299581D01*
X205368928Y-103996749D01*
X205651100Y-103574450D01*
X205933272Y-103996749D01*
X206386491Y-104299581D01*
X206921100Y-104405921D01*
X207455709Y-104299581D01*
X207908928Y-103996749D01*
X208191100Y-103574450D01*
X208473272Y-103996749D01*
X208926491Y-104299581D01*
X209461100Y-104405921D01*
X209995709Y-104299581D01*
X210448928Y-103996749D01*
X210731100Y-103574450D01*
X211013272Y-103996749D01*
X211466491Y-104299581D01*
X212001100Y-104405921D01*
X212535709Y-104299581D01*
X212988928Y-103996749D01*
X213271100Y-103574450D01*
X213553272Y-103996749D01*
X214006491Y-104299581D01*
X214541100Y-104405921D01*
X215075709Y-104299581D01*
X215528928Y-103996749D01*
X215811100Y-103574450D01*
X216093272Y-103996749D01*
X216546491Y-104299581D01*
X217081100Y-104405921D01*
X217615709Y-104299581D01*
X218068928Y-103996749D01*
X218371760Y-103543530D01*
X218478100Y-103008921D01*
X218478100Y-101918279D01*
X218371760Y-101383670D01*
X218068928Y-100930451D01*
X217615709Y-100627619D01*
X217081100Y-100521279D01*
X216546491Y-100627619D01*
X216093272Y-100930451D01*
X215811100Y-101352750D01*
X215528928Y-100930451D01*
X215075709Y-100627619D01*
X214541100Y-100521279D01*
X214006491Y-100627619D01*
X213553272Y-100930451D01*
X213271100Y-101352750D01*
X212988928Y-100930451D01*
X212535709Y-100627619D01*
X212001100Y-100521279D01*
X211466491Y-100627619D01*
X211013272Y-100930451D01*
X210731100Y-101352750D01*
X210448928Y-100930451D01*
X209995709Y-100627619D01*
X209461100Y-100521279D01*
X208926491Y-100627619D01*
X208473272Y-100930451D01*
X208191100Y-101352750D01*
X207908928Y-100930451D01*
X207455709Y-100627619D01*
X206921100Y-100521279D01*
X206386491Y-100627619D01*
X205933272Y-100930451D01*
X205651100Y-101352750D01*
X205368928Y-100930451D01*
X204915709Y-100627619D01*
X204381100Y-100521279D01*
X203846491Y-100627619D01*
X203393272Y-100930451D01*
X203111100Y-101352750D01*
X202828928Y-100930451D01*
X202375709Y-100627619D01*
X201841100Y-100521279D01*
X201306491Y-100627619D01*
X200853272Y-100930451D01*
X200571100Y-101352750D01*
X200288928Y-100930451D01*
X199835709Y-100627619D01*
X199301100Y-100521279D01*
X198766491Y-100627619D01*
X198313272Y-100930451D01*
X198010440Y-101383670D01*
X197904100Y-101918279D01*
X195618100Y-101918279D01*
X195511760Y-101383670D01*
X195208928Y-100930451D01*
X194755709Y-100627619D01*
X194221100Y-100521279D01*
X193686491Y-100627619D01*
X193233272Y-100930451D01*
X192941770Y-101366713D01*
X192923159Y-101303659D01*
X192579126Y-100877970D01*
X192098377Y-100616340D01*
X192024170Y-100601380D01*
X191808100Y-100723880D01*
X191554100Y-100723880D01*
X191338030Y-100601380D01*
X191263823Y-100616340D01*
X190783074Y-100877970D01*
X190439041Y-101303659D01*
X190411100Y-101398323D01*
X190383159Y-101303659D01*
X190039126Y-100877970D01*
X189558377Y-100616340D01*
X189484170Y-100601380D01*
X189268100Y-100723880D01*
X189014100Y-100723880D01*
X188798030Y-100601380D01*
X188723823Y-100616340D01*
X188243074Y-100877970D01*
X187899041Y-101303659D01*
X187880430Y-101366713D01*
X187588928Y-100930451D01*
X187135709Y-100627619D01*
X186601100Y-100521279D01*
X186066491Y-100627619D01*
X185613272Y-100930451D01*
X185331100Y-101352750D01*
X185048928Y-100930451D01*
X184595709Y-100627619D01*
X184061100Y-100521279D01*
X183526491Y-100627619D01*
X183073272Y-100930451D01*
X182791100Y-101352750D01*
X182508928Y-100930451D01*
X182055709Y-100627619D01*
X181521100Y-100521279D01*
X180986491Y-100627619D01*
X180533272Y-100930451D01*
X180251100Y-101352750D01*
X179968928Y-100930451D01*
X179515709Y-100627619D01*
X178981100Y-100521279D01*
X178446491Y-100627619D01*
X177993272Y-100930451D01*
X177690440Y-101383670D01*
X177584100Y-101918279D01*
X175503885Y-101918279D01*
X173418500Y-99832894D01*
X173418500Y-93785750D01*
X183501400Y-93785750D01*
X183501400Y-94642309D01*
X183598073Y-94875698D01*
X183776701Y-95054327D01*
X184010090Y-95151000D01*
X184714250Y-95151000D01*
X184873000Y-94992250D01*
X184873000Y-93627000D01*
X183660150Y-93627000D01*
X183501400Y-93785750D01*
X173418500Y-93785750D01*
X173418500Y-92357691D01*
X183501400Y-92357691D01*
X183501400Y-93214250D01*
X183660150Y-93373000D01*
X184873000Y-93373000D01*
X184873000Y-92007750D01*
X185127000Y-92007750D01*
X185127000Y-93373000D01*
X185147000Y-93373000D01*
X185147000Y-93627000D01*
X185127000Y-93627000D01*
X185127000Y-94992250D01*
X185285750Y-95151000D01*
X185989910Y-95151000D01*
X186223299Y-95054327D01*
X186401927Y-94875698D01*
X186465500Y-94722220D01*
X186480330Y-94744415D01*
X186530000Y-94777603D01*
X186530000Y-96287467D01*
X186151449Y-96665357D01*
X185917267Y-97229330D01*
X185916735Y-97839991D01*
X186149932Y-98404371D01*
X186581357Y-98836551D01*
X187145330Y-99070733D01*
X187755991Y-99071265D01*
X188320371Y-98838068D01*
X188752551Y-98406643D01*
X188986733Y-97842670D01*
X188987265Y-97232009D01*
X188754068Y-96667629D01*
X188550000Y-96463204D01*
X188550000Y-94777603D01*
X188599670Y-94744415D01*
X188810000Y-94429634D01*
X189020330Y-94744415D01*
X189145000Y-94827717D01*
X189145000Y-94830000D01*
X189216173Y-95187809D01*
X189418855Y-95491145D01*
X190600855Y-96673145D01*
X190904191Y-96875827D01*
X191262000Y-96947000D01*
X196342000Y-96947000D01*
X196699809Y-96875827D01*
X197003145Y-96673145D01*
X198361145Y-95315145D01*
X198563827Y-95011809D01*
X198595149Y-94854345D01*
X198759670Y-94744415D01*
X198970000Y-94429634D01*
X199180330Y-94744415D01*
X199666511Y-95069271D01*
X200240000Y-95183345D01*
X200813489Y-95069271D01*
X201299670Y-94744415D01*
X201624526Y-94258234D01*
X201738600Y-93684745D01*
X201738600Y-93315255D01*
X201624526Y-92741766D01*
X201299670Y-92255585D01*
X200813489Y-91930729D01*
X200240000Y-91816655D01*
X199666511Y-91930729D01*
X199180330Y-92255585D01*
X198970000Y-92570366D01*
X198759670Y-92255585D01*
X198273489Y-91930729D01*
X197700000Y-91816655D01*
X197126511Y-91930729D01*
X196640330Y-92255585D01*
X196430000Y-92570366D01*
X196219670Y-92255585D01*
X195733489Y-91930729D01*
X195160000Y-91816655D01*
X194586511Y-91930729D01*
X194100330Y-92255585D01*
X193893585Y-92565000D01*
X193886415Y-92565000D01*
X193679670Y-92255585D01*
X193193489Y-91930729D01*
X192620000Y-91816655D01*
X192046511Y-91930729D01*
X191560330Y-92255585D01*
X191350000Y-92570366D01*
X191139670Y-92255585D01*
X190653489Y-91930729D01*
X190080000Y-91816655D01*
X189506511Y-91930729D01*
X189020330Y-92255585D01*
X188810000Y-92570366D01*
X188766938Y-92505918D01*
X190156356Y-91116500D01*
X205829644Y-91116500D01*
X208038960Y-93325816D01*
X208038960Y-94424500D01*
X208083238Y-94659817D01*
X208222310Y-94875941D01*
X208434510Y-95020931D01*
X208686400Y-95071940D01*
X210413600Y-95071940D01*
X210648917Y-95027662D01*
X210865041Y-94888590D01*
X211010031Y-94676390D01*
X211018400Y-94635061D01*
X211030330Y-94652915D01*
X211516511Y-94977771D01*
X212090000Y-95091845D01*
X212663489Y-94977771D01*
X213149670Y-94652915D01*
X213356461Y-94343431D01*
X213727964Y-94759232D01*
X214255209Y-95013209D01*
X214270974Y-95015858D01*
X214503000Y-94894717D01*
X214503000Y-93535500D01*
X214483000Y-93535500D01*
X214483000Y-93281500D01*
X214503000Y-93281500D01*
X214503000Y-91922283D01*
X214757000Y-91922283D01*
X214757000Y-93281500D01*
X214777000Y-93281500D01*
X214777000Y-93535500D01*
X214757000Y-93535500D01*
X214757000Y-94894717D01*
X214989026Y-95015858D01*
X215004791Y-95013209D01*
X215532036Y-94759232D01*
X215903539Y-94343431D01*
X216110330Y-94652915D01*
X216596511Y-94977771D01*
X217170000Y-95091845D01*
X217743489Y-94977771D01*
X218229670Y-94652915D01*
X218440000Y-94338134D01*
X218650330Y-94652915D01*
X219136511Y-94977771D01*
X219710000Y-95091845D01*
X220283489Y-94977771D01*
X220769670Y-94652915D01*
X220980000Y-94338134D01*
X221190330Y-94652915D01*
X221676511Y-94977771D01*
X222250000Y-95091845D01*
X222823489Y-94977771D01*
X223309670Y-94652915D01*
X223520000Y-94338134D01*
X223730330Y-94652915D01*
X224216511Y-94977771D01*
X224790000Y-95091845D01*
X225363489Y-94977771D01*
X225849670Y-94652915D01*
X226060000Y-94338134D01*
X226270330Y-94652915D01*
X226756511Y-94977771D01*
X227330000Y-95091845D01*
X227903489Y-94977771D01*
X228389670Y-94652915D01*
X228714526Y-94166734D01*
X228828600Y-93593245D01*
X228828600Y-93223755D01*
X228714526Y-92650266D01*
X228389670Y-92164085D01*
X227903489Y-91839229D01*
X227330000Y-91725155D01*
X226756511Y-91839229D01*
X226270330Y-92164085D01*
X226060000Y-92478866D01*
X225849670Y-92164085D01*
X225363489Y-91839229D01*
X224790000Y-91725155D01*
X224216511Y-91839229D01*
X223730330Y-92164085D01*
X223520000Y-92478866D01*
X223309670Y-92164085D01*
X223185000Y-92080783D01*
X223185000Y-63061790D01*
X224513975Y-61732815D01*
X225030491Y-61733265D01*
X225594871Y-61500068D01*
X226027051Y-61068643D01*
X226261233Y-60504670D01*
X226261765Y-59894009D01*
X226028568Y-59329629D01*
X225597143Y-58897449D01*
X225033170Y-58663267D01*
X224422509Y-58662735D01*
X223858129Y-58895932D01*
X223425949Y-59327357D01*
X223191767Y-59891330D01*
X223191314Y-60410896D01*
X221588855Y-62013355D01*
X221386173Y-62316691D01*
X221315000Y-62674500D01*
X221315000Y-92080783D01*
X221190330Y-92164085D01*
X220980000Y-92478866D01*
X220769670Y-92164085D01*
X220645000Y-92080783D01*
X220645000Y-58989201D01*
X221022871Y-58833068D01*
X221455051Y-58401643D01*
X221689233Y-57837670D01*
X221689765Y-57227009D01*
X221456568Y-56662629D01*
X221025143Y-56230449D01*
X220461170Y-55996267D01*
X220220846Y-55996058D01*
X220608928Y-55736749D01*
X220891100Y-55314450D01*
X221173272Y-55736749D01*
X221626491Y-56039581D01*
X222161100Y-56145921D01*
X222695709Y-56039581D01*
X223148928Y-55736749D01*
X223431100Y-55314450D01*
X223713272Y-55736749D01*
X224166491Y-56039581D01*
X224701100Y-56145921D01*
X225235709Y-56039581D01*
X225688928Y-55736749D01*
X225991760Y-55283530D01*
X226098100Y-54748921D01*
X226098100Y-53658279D01*
X225991760Y-53123670D01*
X225688928Y-52670451D01*
X225235709Y-52367619D01*
X224701100Y-52261279D01*
X224166491Y-52367619D01*
X223713272Y-52670451D01*
X223431100Y-53092750D01*
X223148928Y-52670451D01*
X222695709Y-52367619D01*
X222161100Y-52261279D01*
X221626491Y-52367619D01*
X221173272Y-52670451D01*
X220891100Y-53092750D01*
X220608928Y-52670451D01*
X220155709Y-52367619D01*
X219621100Y-52261279D01*
X219086491Y-52367619D01*
X218633272Y-52670451D01*
X218351100Y-53092750D01*
X218068928Y-52670451D01*
X217615709Y-52367619D01*
X217081100Y-52261279D01*
X216546491Y-52367619D01*
X216093272Y-52670451D01*
X215790440Y-53123670D01*
X215684100Y-53658279D01*
X215684100Y-54748921D01*
X215790440Y-55283530D01*
X216093272Y-55736749D01*
X216546491Y-56039581D01*
X217081100Y-56145921D01*
X217615709Y-56039581D01*
X218068928Y-55736749D01*
X218351100Y-55314450D01*
X218633272Y-55736749D01*
X219086491Y-56039581D01*
X219530599Y-56127919D01*
X219286129Y-56228932D01*
X218853949Y-56660357D01*
X218619767Y-57224330D01*
X218619235Y-57834991D01*
X218775000Y-58211971D01*
X218775000Y-92080783D01*
X218650330Y-92164085D01*
X218440000Y-92478866D01*
X218229670Y-92164085D01*
X217743489Y-91839229D01*
X217170000Y-91725155D01*
X216596511Y-91839229D01*
X216110330Y-92164085D01*
X215903539Y-92473569D01*
X215532036Y-92057768D01*
X215004791Y-91803791D01*
X214989026Y-91801142D01*
X214757000Y-91922283D01*
X214503000Y-91922283D01*
X214270974Y-91801142D01*
X214255209Y-91803791D01*
X213727964Y-92057768D01*
X213356461Y-92473569D01*
X213149670Y-92164085D01*
X212663489Y-91839229D01*
X212090000Y-91725155D01*
X211516511Y-91839229D01*
X211030330Y-92164085D01*
X211020757Y-92178413D01*
X211016762Y-92157183D01*
X210877690Y-91941059D01*
X210665490Y-91796069D01*
X210413600Y-91745060D01*
X209314916Y-91745060D01*
X206962178Y-89392322D01*
X206634510Y-89173382D01*
X206248000Y-89096500D01*
X189738000Y-89096500D01*
X189351489Y-89173382D01*
X189023822Y-89392322D01*
X186825822Y-91590322D01*
X186606882Y-91917990D01*
X186548835Y-92209812D01*
X186480330Y-92255585D01*
X186465500Y-92277780D01*
X186401927Y-92124302D01*
X186223299Y-91945673D01*
X185989910Y-91849000D01*
X185285750Y-91849000D01*
X185127000Y-92007750D01*
X184873000Y-92007750D01*
X184714250Y-91849000D01*
X184010090Y-91849000D01*
X183776701Y-91945673D01*
X183598073Y-92124302D01*
X183501400Y-92357691D01*
X173418500Y-92357691D01*
X173418500Y-58977991D01*
X183376735Y-58977991D01*
X183609932Y-59542371D01*
X184041357Y-59974551D01*
X184065000Y-59984368D01*
X184065000Y-61349995D01*
X183901083Y-61380838D01*
X183684959Y-61519910D01*
X183539969Y-61732110D01*
X183488960Y-61984000D01*
X183488960Y-64016000D01*
X183533238Y-64251317D01*
X183672310Y-64467441D01*
X183884510Y-64612431D01*
X184136400Y-64663440D01*
X185863600Y-64663440D01*
X186098917Y-64619162D01*
X186315041Y-64480090D01*
X186460031Y-64267890D01*
X186468400Y-64226561D01*
X186480330Y-64244415D01*
X186966511Y-64569271D01*
X187540000Y-64683345D01*
X188113489Y-64569271D01*
X188599670Y-64244415D01*
X188810000Y-63929634D01*
X189020330Y-64244415D01*
X189506511Y-64569271D01*
X190080000Y-64683345D01*
X190653489Y-64569271D01*
X191139670Y-64244415D01*
X191350000Y-63929634D01*
X191560330Y-64244415D01*
X191685000Y-64327717D01*
X191685000Y-72478000D01*
X191756173Y-72835809D01*
X191958855Y-73139145D01*
X195315185Y-76495475D01*
X195314735Y-77011991D01*
X195547932Y-77576371D01*
X195979357Y-78008551D01*
X196543330Y-78242733D01*
X197153991Y-78243265D01*
X197718371Y-78010068D01*
X198150551Y-77578643D01*
X198384733Y-77014670D01*
X198385265Y-76404009D01*
X198152068Y-75839629D01*
X197720643Y-75407449D01*
X197156670Y-75173267D01*
X196637104Y-75172814D01*
X193555000Y-72090710D01*
X193555000Y-64327717D01*
X193679670Y-64244415D01*
X193890000Y-63929634D01*
X194100330Y-64244415D01*
X194225000Y-64327717D01*
X194225000Y-69364485D01*
X194045267Y-69797330D01*
X194044735Y-70407991D01*
X194277932Y-70972371D01*
X194709357Y-71404551D01*
X195273330Y-71638733D01*
X195883991Y-71639265D01*
X196448371Y-71406068D01*
X196765000Y-71089992D01*
X196765000Y-71462000D01*
X196836173Y-71819809D01*
X197038855Y-72123145D01*
X199125185Y-74209475D01*
X199124735Y-74725991D01*
X199357932Y-75290371D01*
X199789357Y-75722551D01*
X200353330Y-75956733D01*
X200963991Y-75957265D01*
X201528371Y-75724068D01*
X201960551Y-75292643D01*
X202165005Y-74800261D01*
X210603858Y-74800261D01*
X210816090Y-75313903D01*
X211208730Y-75707229D01*
X211416612Y-75793549D01*
X211210797Y-75878590D01*
X210817471Y-76271230D01*
X210604343Y-76784500D01*
X210603858Y-77340261D01*
X210816090Y-77853903D01*
X211208730Y-78247229D01*
X211416612Y-78333549D01*
X211210797Y-78418590D01*
X210817471Y-78811230D01*
X210604343Y-79324500D01*
X210603858Y-79880261D01*
X210816090Y-80393903D01*
X211208730Y-80787229D01*
X211722000Y-81000357D01*
X212277761Y-81000842D01*
X212791403Y-80788610D01*
X213184729Y-80395970D01*
X213271049Y-80188088D01*
X213356090Y-80393903D01*
X213748730Y-80787229D01*
X214262000Y-81000357D01*
X214817761Y-81000842D01*
X215331403Y-80788610D01*
X215724729Y-80395970D01*
X215937857Y-79882700D01*
X215938342Y-79326939D01*
X215726110Y-78813297D01*
X215333470Y-78419971D01*
X215125588Y-78333651D01*
X215331403Y-78248610D01*
X215724729Y-77855970D01*
X215937857Y-77342700D01*
X215938342Y-76786939D01*
X215726110Y-76273297D01*
X215333470Y-75879971D01*
X215125588Y-75793651D01*
X215331403Y-75708610D01*
X215724729Y-75315970D01*
X215937857Y-74802700D01*
X215938342Y-74246939D01*
X215726110Y-73733297D01*
X215333470Y-73339971D01*
X214820200Y-73126843D01*
X214264439Y-73126358D01*
X213750797Y-73338590D01*
X213357471Y-73731230D01*
X213271151Y-73939112D01*
X213186110Y-73733297D01*
X212793470Y-73339971D01*
X212280200Y-73126843D01*
X211724439Y-73126358D01*
X211210797Y-73338590D01*
X210817471Y-73731230D01*
X210604343Y-74244500D01*
X210603858Y-74800261D01*
X202165005Y-74800261D01*
X202194733Y-74728670D01*
X202195265Y-74118009D01*
X201962068Y-73553629D01*
X201530643Y-73121449D01*
X200966670Y-72887267D01*
X200447104Y-72886814D01*
X198635000Y-71074710D01*
X198635000Y-64327717D01*
X198759670Y-64244415D01*
X198966461Y-63934931D01*
X199337964Y-64350732D01*
X199865209Y-64604709D01*
X199880974Y-64607358D01*
X200113000Y-64486217D01*
X200113000Y-63127000D01*
X200367000Y-63127000D01*
X200367000Y-64486217D01*
X200599026Y-64607358D01*
X200614791Y-64604709D01*
X201142036Y-64350732D01*
X201531954Y-63914320D01*
X201725184Y-63361913D01*
X201580924Y-63127000D01*
X200367000Y-63127000D01*
X200113000Y-63127000D01*
X200093000Y-63127000D01*
X200093000Y-62873000D01*
X200113000Y-62873000D01*
X200113000Y-61513783D01*
X200367000Y-61513783D01*
X200367000Y-62873000D01*
X201580924Y-62873000D01*
X201725184Y-62638087D01*
X201531954Y-62085680D01*
X201142036Y-61649268D01*
X200614791Y-61395291D01*
X200599026Y-61392642D01*
X200367000Y-61513783D01*
X200113000Y-61513783D01*
X199880974Y-61392642D01*
X199865209Y-61395291D01*
X199337964Y-61649268D01*
X198966461Y-62065069D01*
X198759670Y-61755585D01*
X198273489Y-61430729D01*
X197700000Y-61316655D01*
X197126511Y-61430729D01*
X196640330Y-61755585D01*
X196430000Y-62070366D01*
X196219670Y-61755585D01*
X195733489Y-61430729D01*
X195160000Y-61316655D01*
X194586511Y-61430729D01*
X194100330Y-61755585D01*
X193890000Y-62070366D01*
X193679670Y-61755585D01*
X193193489Y-61430729D01*
X192620000Y-61316655D01*
X192046511Y-61430729D01*
X191560330Y-61755585D01*
X191350000Y-62070366D01*
X191139670Y-61755585D01*
X191015000Y-61672283D01*
X191015000Y-61259290D01*
X192573475Y-59700815D01*
X193089991Y-59701265D01*
X193654371Y-59468068D01*
X194086551Y-59036643D01*
X194320733Y-58472670D01*
X194321265Y-57862009D01*
X194088068Y-57297629D01*
X193656643Y-56865449D01*
X193092670Y-56631267D01*
X192482009Y-56630735D01*
X191917629Y-56863932D01*
X191485449Y-57295357D01*
X191251267Y-57859330D01*
X191250814Y-58378896D01*
X189495055Y-60134655D01*
X189495265Y-59894009D01*
X189262068Y-59329629D01*
X188830643Y-58897449D01*
X188266670Y-58663267D01*
X187656009Y-58662735D01*
X187091629Y-58895932D01*
X186659449Y-59327357D01*
X186425267Y-59891330D01*
X186424735Y-60501991D01*
X186605000Y-60938266D01*
X186605000Y-61672283D01*
X186480330Y-61755585D01*
X186470757Y-61769913D01*
X186466762Y-61748683D01*
X186327690Y-61532559D01*
X186115490Y-61387569D01*
X185935000Y-61351019D01*
X185935000Y-59821709D01*
X186212551Y-59544643D01*
X186446733Y-58980670D01*
X186447265Y-58370009D01*
X186214068Y-57805629D01*
X185782643Y-57373449D01*
X185218670Y-57139267D01*
X184608009Y-57138735D01*
X184043629Y-57371932D01*
X183611449Y-57803357D01*
X183377267Y-58367330D01*
X183376735Y-58977991D01*
X173418500Y-58977991D01*
X173418500Y-54330600D01*
X173520100Y-54330600D01*
X173520100Y-54838600D01*
X173675041Y-55363541D01*
X174019074Y-55789230D01*
X174499823Y-56050860D01*
X174574030Y-56065820D01*
X174790100Y-55943320D01*
X174790100Y-54330600D01*
X173520100Y-54330600D01*
X173418500Y-54330600D01*
X173418500Y-53568600D01*
X173520100Y-53568600D01*
X173520100Y-54076600D01*
X174790100Y-54076600D01*
X174790100Y-52463880D01*
X175044100Y-52463880D01*
X175044100Y-54076600D01*
X175064100Y-54076600D01*
X175064100Y-54330600D01*
X175044100Y-54330600D01*
X175044100Y-55943320D01*
X175260170Y-56065820D01*
X175334377Y-56050860D01*
X175815126Y-55789230D01*
X176159159Y-55363541D01*
X176177770Y-55300487D01*
X176469272Y-55736749D01*
X176922491Y-56039581D01*
X177457100Y-56145921D01*
X177991709Y-56039581D01*
X178444928Y-55736749D01*
X178727100Y-55314450D01*
X179009272Y-55736749D01*
X179462491Y-56039581D01*
X179997100Y-56145921D01*
X180531709Y-56039581D01*
X180984928Y-55736749D01*
X181267100Y-55314450D01*
X181549272Y-55736749D01*
X182002491Y-56039581D01*
X182537100Y-56145921D01*
X183071709Y-56039581D01*
X183524928Y-55736749D01*
X183807100Y-55314450D01*
X184089272Y-55736749D01*
X184542491Y-56039581D01*
X185077100Y-56145921D01*
X185611709Y-56039581D01*
X186064928Y-55736749D01*
X186347100Y-55314450D01*
X186629272Y-55736749D01*
X187082491Y-56039581D01*
X187617100Y-56145921D01*
X188151709Y-56039581D01*
X188604928Y-55736749D01*
X188887100Y-55314450D01*
X189169272Y-55736749D01*
X189622491Y-56039581D01*
X190157100Y-56145921D01*
X190691709Y-56039581D01*
X191144928Y-55736749D01*
X191447760Y-55283530D01*
X191554100Y-54748921D01*
X191554100Y-53658279D01*
X192824100Y-53658279D01*
X192824100Y-54748921D01*
X192930440Y-55283530D01*
X193233272Y-55736749D01*
X193686491Y-56039581D01*
X194221100Y-56145921D01*
X194755709Y-56039581D01*
X195208928Y-55736749D01*
X195491100Y-55314450D01*
X195773272Y-55736749D01*
X196226491Y-56039581D01*
X196761100Y-56145921D01*
X197295709Y-56039581D01*
X197748928Y-55736749D01*
X198031100Y-55314450D01*
X198313272Y-55736749D01*
X198766491Y-56039581D01*
X199301100Y-56145921D01*
X199835709Y-56039581D01*
X200288928Y-55736749D01*
X200571100Y-55314450D01*
X200853272Y-55736749D01*
X201306491Y-56039581D01*
X201841100Y-56145921D01*
X202375709Y-56039581D01*
X202828928Y-55736749D01*
X203111100Y-55314450D01*
X203393272Y-55736749D01*
X203846491Y-56039581D01*
X204381100Y-56145921D01*
X204915709Y-56039581D01*
X205368928Y-55736749D01*
X205651100Y-55314450D01*
X205933272Y-55736749D01*
X206386491Y-56039581D01*
X206921100Y-56145921D01*
X207455709Y-56039581D01*
X207908928Y-55736749D01*
X208191100Y-55314450D01*
X208473272Y-55736749D01*
X208926491Y-56039581D01*
X209461100Y-56145921D01*
X209995709Y-56039581D01*
X210448928Y-55736749D01*
X210731100Y-55314450D01*
X211013272Y-55736749D01*
X211466491Y-56039581D01*
X212001100Y-56145921D01*
X212535709Y-56039581D01*
X212988928Y-55736749D01*
X213291760Y-55283530D01*
X213398100Y-54748921D01*
X213398100Y-53658279D01*
X213291760Y-53123670D01*
X212988928Y-52670451D01*
X212535709Y-52367619D01*
X212001100Y-52261279D01*
X211466491Y-52367619D01*
X211013272Y-52670451D01*
X210731100Y-53092750D01*
X210448928Y-52670451D01*
X209995709Y-52367619D01*
X209461100Y-52261279D01*
X208926491Y-52367619D01*
X208473272Y-52670451D01*
X208191100Y-53092750D01*
X207908928Y-52670451D01*
X207455709Y-52367619D01*
X206921100Y-52261279D01*
X206386491Y-52367619D01*
X205933272Y-52670451D01*
X205651100Y-53092750D01*
X205368928Y-52670451D01*
X204915709Y-52367619D01*
X204381100Y-52261279D01*
X203846491Y-52367619D01*
X203393272Y-52670451D01*
X203111100Y-53092750D01*
X202828928Y-52670451D01*
X202375709Y-52367619D01*
X201841100Y-52261279D01*
X201306491Y-52367619D01*
X200853272Y-52670451D01*
X200571100Y-53092750D01*
X200288928Y-52670451D01*
X199835709Y-52367619D01*
X199301100Y-52261279D01*
X198766491Y-52367619D01*
X198313272Y-52670451D01*
X198031100Y-53092750D01*
X197748928Y-52670451D01*
X197295709Y-52367619D01*
X196761100Y-52261279D01*
X196226491Y-52367619D01*
X195773272Y-52670451D01*
X195491100Y-53092750D01*
X195208928Y-52670451D01*
X194755709Y-52367619D01*
X194221100Y-52261279D01*
X193686491Y-52367619D01*
X193233272Y-52670451D01*
X192930440Y-53123670D01*
X192824100Y-53658279D01*
X191554100Y-53658279D01*
X191447760Y-53123670D01*
X191144928Y-52670451D01*
X190691709Y-52367619D01*
X190157100Y-52261279D01*
X189622491Y-52367619D01*
X189169272Y-52670451D01*
X188887100Y-53092750D01*
X188604928Y-52670451D01*
X188151709Y-52367619D01*
X187617100Y-52261279D01*
X187082491Y-52367619D01*
X186629272Y-52670451D01*
X186347100Y-53092750D01*
X186064928Y-52670451D01*
X185611709Y-52367619D01*
X185077100Y-52261279D01*
X184542491Y-52367619D01*
X184089272Y-52670451D01*
X183807100Y-53092750D01*
X183524928Y-52670451D01*
X183071709Y-52367619D01*
X182537100Y-52261279D01*
X182002491Y-52367619D01*
X181549272Y-52670451D01*
X181267100Y-53092750D01*
X180984928Y-52670451D01*
X180531709Y-52367619D01*
X179997100Y-52261279D01*
X179462491Y-52367619D01*
X179009272Y-52670451D01*
X178727100Y-53092750D01*
X178444928Y-52670451D01*
X177991709Y-52367619D01*
X177457100Y-52261279D01*
X176922491Y-52367619D01*
X176469272Y-52670451D01*
X176177770Y-53106713D01*
X176159159Y-53043659D01*
X175815126Y-52617970D01*
X175334377Y-52356340D01*
X175260170Y-52341380D01*
X175044100Y-52463880D01*
X174790100Y-52463880D01*
X174574030Y-52341380D01*
X174499823Y-52356340D01*
X174019074Y-52617970D01*
X173675041Y-53043659D01*
X173520100Y-53568600D01*
X173418500Y-53568600D01*
X173418500Y-53011606D01*
X174487106Y-51943000D01*
X226070894Y-51943000D01*
X229298500Y-55170606D01*
X229298500Y-55170606D01*
G37*
X229298500Y-55170606D02*
X229298500Y-95959394D01*
X220482894Y-104775000D01*
X178360606Y-104775000D01*
X175503885Y-101918279D01*
X177584100Y-101918279D01*
X177584100Y-103008921D01*
X177690440Y-103543530D01*
X177993272Y-103996749D01*
X178446491Y-104299581D01*
X178981100Y-104405921D01*
X179515709Y-104299581D01*
X179968928Y-103996749D01*
X180251100Y-103574450D01*
X180533272Y-103996749D01*
X180986491Y-104299581D01*
X181521100Y-104405921D01*
X182055709Y-104299581D01*
X182508928Y-103996749D01*
X182791100Y-103574450D01*
X183073272Y-103996749D01*
X183526491Y-104299581D01*
X184061100Y-104405921D01*
X184595709Y-104299581D01*
X185048928Y-103996749D01*
X185331100Y-103574450D01*
X185613272Y-103996749D01*
X186066491Y-104299581D01*
X186601100Y-104405921D01*
X187135709Y-104299581D01*
X187588928Y-103996749D01*
X187880430Y-103560487D01*
X187899041Y-103623541D01*
X188243074Y-104049230D01*
X188723823Y-104310860D01*
X188798030Y-104325820D01*
X189014100Y-104203320D01*
X189014100Y-102590600D01*
X189268100Y-102590600D01*
X189268100Y-104203320D01*
X189484170Y-104325820D01*
X189558377Y-104310860D01*
X190039126Y-104049230D01*
X190383159Y-103623541D01*
X190411100Y-103528877D01*
X190439041Y-103623541D01*
X190783074Y-104049230D01*
X191263823Y-104310860D01*
X191338030Y-104325820D01*
X191554100Y-104203320D01*
X191554100Y-102590600D01*
X189268100Y-102590600D01*
X189014100Y-102590600D01*
X188994100Y-102590600D01*
X188994100Y-102336600D01*
X189014100Y-102336600D01*
X189014100Y-100723880D01*
X189268100Y-100723880D01*
X189268100Y-102336600D01*
X191554100Y-102336600D01*
X191554100Y-100723880D01*
X191808100Y-100723880D01*
X191808100Y-102336600D01*
X191828100Y-102336600D01*
X191828100Y-102590600D01*
X191808100Y-102590600D01*
X191808100Y-104203320D01*
X192024170Y-104325820D01*
X192098377Y-104310860D01*
X192579126Y-104049230D01*
X192923159Y-103623541D01*
X192941770Y-103560487D01*
X193233272Y-103996749D01*
X193686491Y-104299581D01*
X194221100Y-104405921D01*
X194755709Y-104299581D01*
X195208928Y-103996749D01*
X195511760Y-103543530D01*
X195618100Y-103008921D01*
X195618100Y-101918279D01*
X197904100Y-101918279D01*
X197904100Y-103008921D01*
X198010440Y-103543530D01*
X198313272Y-103996749D01*
X198766491Y-104299581D01*
X199301100Y-104405921D01*
X199835709Y-104299581D01*
X200288928Y-103996749D01*
X200571100Y-103574450D01*
X200853272Y-103996749D01*
X201306491Y-104299581D01*
X201841100Y-104405921D01*
X202375709Y-104299581D01*
X202828928Y-103996749D01*
X203111100Y-103574450D01*
X203393272Y-103996749D01*
X203846491Y-104299581D01*
X204381100Y-104405921D01*
X204915709Y-104299581D01*
X205368928Y-103996749D01*
X205651100Y-103574450D01*
X205933272Y-103996749D01*
X206386491Y-104299581D01*
X206921100Y-104405921D01*
X207455709Y-104299581D01*
X207908928Y-103996749D01*
X208191100Y-103574450D01*
X208473272Y-103996749D01*
X208926491Y-104299581D01*
X209461100Y-104405921D01*
X209995709Y-104299581D01*
X210448928Y-103996749D01*
X210731100Y-103574450D01*
X211013272Y-103996749D01*
X211466491Y-104299581D01*
X212001100Y-104405921D01*
X212535709Y-104299581D01*
X212988928Y-103996749D01*
X213271100Y-103574450D01*
X213553272Y-103996749D01*
X214006491Y-104299581D01*
X214541100Y-104405921D01*
X215075709Y-104299581D01*
X215528928Y-103996749D01*
X215811100Y-103574450D01*
X216093272Y-103996749D01*
X216546491Y-104299581D01*
X217081100Y-104405921D01*
X217615709Y-104299581D01*
X218068928Y-103996749D01*
X218371760Y-103543530D01*
X218478100Y-103008921D01*
X218478100Y-101918279D01*
X218371760Y-101383670D01*
X218068928Y-100930451D01*
X217615709Y-100627619D01*
X217081100Y-100521279D01*
X216546491Y-100627619D01*
X216093272Y-100930451D01*
X215811100Y-101352750D01*
X215528928Y-100930451D01*
X215075709Y-100627619D01*
X214541100Y-100521279D01*
X214006491Y-100627619D01*
X213553272Y-100930451D01*
X213271100Y-101352750D01*
X212988928Y-100930451D01*
X212535709Y-100627619D01*
X212001100Y-100521279D01*
X211466491Y-100627619D01*
X211013272Y-100930451D01*
X210731100Y-101352750D01*
X210448928Y-100930451D01*
X209995709Y-100627619D01*
X209461100Y-100521279D01*
X208926491Y-100627619D01*
X208473272Y-100930451D01*
X208191100Y-101352750D01*
X207908928Y-100930451D01*
X207455709Y-100627619D01*
X206921100Y-100521279D01*
X206386491Y-100627619D01*
X205933272Y-100930451D01*
X205651100Y-101352750D01*
X205368928Y-100930451D01*
X204915709Y-100627619D01*
X204381100Y-100521279D01*
X203846491Y-100627619D01*
X203393272Y-100930451D01*
X203111100Y-101352750D01*
X202828928Y-100930451D01*
X202375709Y-100627619D01*
X201841100Y-100521279D01*
X201306491Y-100627619D01*
X200853272Y-100930451D01*
X200571100Y-101352750D01*
X200288928Y-100930451D01*
X199835709Y-100627619D01*
X199301100Y-100521279D01*
X198766491Y-100627619D01*
X198313272Y-100930451D01*
X198010440Y-101383670D01*
X197904100Y-101918279D01*
X195618100Y-101918279D01*
X195511760Y-101383670D01*
X195208928Y-100930451D01*
X194755709Y-100627619D01*
X194221100Y-100521279D01*
X193686491Y-100627619D01*
X193233272Y-100930451D01*
X192941770Y-101366713D01*
X192923159Y-101303659D01*
X192579126Y-100877970D01*
X192098377Y-100616340D01*
X192024170Y-100601380D01*
X191808100Y-100723880D01*
X191554100Y-100723880D01*
X191338030Y-100601380D01*
X191263823Y-100616340D01*
X190783074Y-100877970D01*
X190439041Y-101303659D01*
X190411100Y-101398323D01*
X190383159Y-101303659D01*
X190039126Y-100877970D01*
X189558377Y-100616340D01*
X189484170Y-100601380D01*
X189268100Y-100723880D01*
X189014100Y-100723880D01*
X188798030Y-100601380D01*
X188723823Y-100616340D01*
X188243074Y-100877970D01*
X187899041Y-101303659D01*
X187880430Y-101366713D01*
X187588928Y-100930451D01*
X187135709Y-100627619D01*
X186601100Y-100521279D01*
X186066491Y-100627619D01*
X185613272Y-100930451D01*
X185331100Y-101352750D01*
X185048928Y-100930451D01*
X184595709Y-100627619D01*
X184061100Y-100521279D01*
X183526491Y-100627619D01*
X183073272Y-100930451D01*
X182791100Y-101352750D01*
X182508928Y-100930451D01*
X182055709Y-100627619D01*
X181521100Y-100521279D01*
X180986491Y-100627619D01*
X180533272Y-100930451D01*
X180251100Y-101352750D01*
X179968928Y-100930451D01*
X179515709Y-100627619D01*
X178981100Y-100521279D01*
X178446491Y-100627619D01*
X177993272Y-100930451D01*
X177690440Y-101383670D01*
X177584100Y-101918279D01*
X175503885Y-101918279D01*
X173418500Y-99832894D01*
X173418500Y-93785750D01*
X183501400Y-93785750D01*
X183501400Y-94642309D01*
X183598073Y-94875698D01*
X183776701Y-95054327D01*
X184010090Y-95151000D01*
X184714250Y-95151000D01*
X184873000Y-94992250D01*
X184873000Y-93627000D01*
X183660150Y-93627000D01*
X183501400Y-93785750D01*
X173418500Y-93785750D01*
X173418500Y-92357691D01*
X183501400Y-92357691D01*
X183501400Y-93214250D01*
X183660150Y-93373000D01*
X184873000Y-93373000D01*
X184873000Y-92007750D01*
X185127000Y-92007750D01*
X185127000Y-93373000D01*
X185147000Y-93373000D01*
X185147000Y-93627000D01*
X185127000Y-93627000D01*
X185127000Y-94992250D01*
X185285750Y-95151000D01*
X185989910Y-95151000D01*
X186223299Y-95054327D01*
X186401927Y-94875698D01*
X186465500Y-94722220D01*
X186480330Y-94744415D01*
X186530000Y-94777603D01*
X186530000Y-96287467D01*
X186151449Y-96665357D01*
X185917267Y-97229330D01*
X185916735Y-97839991D01*
X186149932Y-98404371D01*
X186581357Y-98836551D01*
X187145330Y-99070733D01*
X187755991Y-99071265D01*
X188320371Y-98838068D01*
X188752551Y-98406643D01*
X188986733Y-97842670D01*
X188987265Y-97232009D01*
X188754068Y-96667629D01*
X188550000Y-96463204D01*
X188550000Y-94777603D01*
X188599670Y-94744415D01*
X188810000Y-94429634D01*
X189020330Y-94744415D01*
X189145000Y-94827717D01*
X189145000Y-94830000D01*
X189216173Y-95187809D01*
X189418855Y-95491145D01*
X190600855Y-96673145D01*
X190904191Y-96875827D01*
X191262000Y-96947000D01*
X196342000Y-96947000D01*
X196699809Y-96875827D01*
X197003145Y-96673145D01*
X198361145Y-95315145D01*
X198563827Y-95011809D01*
X198595149Y-94854345D01*
X198759670Y-94744415D01*
X198970000Y-94429634D01*
X199180330Y-94744415D01*
X199666511Y-95069271D01*
X200240000Y-95183345D01*
X200813489Y-95069271D01*
X201299670Y-94744415D01*
X201624526Y-94258234D01*
X201738600Y-93684745D01*
X201738600Y-93315255D01*
X201624526Y-92741766D01*
X201299670Y-92255585D01*
X200813489Y-91930729D01*
X200240000Y-91816655D01*
X199666511Y-91930729D01*
X199180330Y-92255585D01*
X198970000Y-92570366D01*
X198759670Y-92255585D01*
X198273489Y-91930729D01*
X197700000Y-91816655D01*
X197126511Y-91930729D01*
X196640330Y-92255585D01*
X196430000Y-92570366D01*
X196219670Y-92255585D01*
X195733489Y-91930729D01*
X195160000Y-91816655D01*
X194586511Y-91930729D01*
X194100330Y-92255585D01*
X193893585Y-92565000D01*
X193886415Y-92565000D01*
X193679670Y-92255585D01*
X193193489Y-91930729D01*
X192620000Y-91816655D01*
X192046511Y-91930729D01*
X191560330Y-92255585D01*
X191350000Y-92570366D01*
X191139670Y-92255585D01*
X190653489Y-91930729D01*
X190080000Y-91816655D01*
X189506511Y-91930729D01*
X189020330Y-92255585D01*
X188810000Y-92570366D01*
X188766938Y-92505918D01*
X190156356Y-91116500D01*
X205829644Y-91116500D01*
X208038960Y-93325816D01*
X208038960Y-94424500D01*
X208083238Y-94659817D01*
X208222310Y-94875941D01*
X208434510Y-95020931D01*
X208686400Y-95071940D01*
X210413600Y-95071940D01*
X210648917Y-95027662D01*
X210865041Y-94888590D01*
X211010031Y-94676390D01*
X211018400Y-94635061D01*
X211030330Y-94652915D01*
X211516511Y-94977771D01*
X212090000Y-95091845D01*
X212663489Y-94977771D01*
X213149670Y-94652915D01*
X213356461Y-94343431D01*
X213727964Y-94759232D01*
X214255209Y-95013209D01*
X214270974Y-95015858D01*
X214503000Y-94894717D01*
X214503000Y-93535500D01*
X214483000Y-93535500D01*
X214483000Y-93281500D01*
X214503000Y-93281500D01*
X214503000Y-91922283D01*
X214757000Y-91922283D01*
X214757000Y-93281500D01*
X214777000Y-93281500D01*
X214777000Y-93535500D01*
X214757000Y-93535500D01*
X214757000Y-94894717D01*
X214989026Y-95015858D01*
X215004791Y-95013209D01*
X215532036Y-94759232D01*
X215903539Y-94343431D01*
X216110330Y-94652915D01*
X216596511Y-94977771D01*
X217170000Y-95091845D01*
X217743489Y-94977771D01*
X218229670Y-94652915D01*
X218440000Y-94338134D01*
X218650330Y-94652915D01*
X219136511Y-94977771D01*
X219710000Y-95091845D01*
X220283489Y-94977771D01*
X220769670Y-94652915D01*
X220980000Y-94338134D01*
X221190330Y-94652915D01*
X221676511Y-94977771D01*
X222250000Y-95091845D01*
X222823489Y-94977771D01*
X223309670Y-94652915D01*
X223520000Y-94338134D01*
X223730330Y-94652915D01*
X224216511Y-94977771D01*
X224790000Y-95091845D01*
X225363489Y-94977771D01*
X225849670Y-94652915D01*
X226060000Y-94338134D01*
X226270330Y-94652915D01*
X226756511Y-94977771D01*
X227330000Y-95091845D01*
X227903489Y-94977771D01*
X228389670Y-94652915D01*
X228714526Y-94166734D01*
X228828600Y-93593245D01*
X228828600Y-93223755D01*
X228714526Y-92650266D01*
X228389670Y-92164085D01*
X227903489Y-91839229D01*
X227330000Y-91725155D01*
X226756511Y-91839229D01*
X226270330Y-92164085D01*
X226060000Y-92478866D01*
X225849670Y-92164085D01*
X225363489Y-91839229D01*
X224790000Y-91725155D01*
X224216511Y-91839229D01*
X223730330Y-92164085D01*
X223520000Y-92478866D01*
X223309670Y-92164085D01*
X223185000Y-92080783D01*
X223185000Y-63061790D01*
X224513975Y-61732815D01*
X225030491Y-61733265D01*
X225594871Y-61500068D01*
X226027051Y-61068643D01*
X226261233Y-60504670D01*
X226261765Y-59894009D01*
X226028568Y-59329629D01*
X225597143Y-58897449D01*
X225033170Y-58663267D01*
X224422509Y-58662735D01*
X223858129Y-58895932D01*
X223425949Y-59327357D01*
X223191767Y-59891330D01*
X223191314Y-60410896D01*
X221588855Y-62013355D01*
X221386173Y-62316691D01*
X221315000Y-62674500D01*
X221315000Y-92080783D01*
X221190330Y-92164085D01*
X220980000Y-92478866D01*
X220769670Y-92164085D01*
X220645000Y-92080783D01*
X220645000Y-58989201D01*
X221022871Y-58833068D01*
X221455051Y-58401643D01*
X221689233Y-57837670D01*
X221689765Y-57227009D01*
X221456568Y-56662629D01*
X221025143Y-56230449D01*
X220461170Y-55996267D01*
X220220846Y-55996058D01*
X220608928Y-55736749D01*
X220891100Y-55314450D01*
X221173272Y-55736749D01*
X221626491Y-56039581D01*
X222161100Y-56145921D01*
X222695709Y-56039581D01*
X223148928Y-55736749D01*
X223431100Y-55314450D01*
X223713272Y-55736749D01*
X224166491Y-56039581D01*
X224701100Y-56145921D01*
X225235709Y-56039581D01*
X225688928Y-55736749D01*
X225991760Y-55283530D01*
X226098100Y-54748921D01*
X226098100Y-53658279D01*
X225991760Y-53123670D01*
X225688928Y-52670451D01*
X225235709Y-52367619D01*
X224701100Y-52261279D01*
X224166491Y-52367619D01*
X223713272Y-52670451D01*
X223431100Y-53092750D01*
X223148928Y-52670451D01*
X222695709Y-52367619D01*
X222161100Y-52261279D01*
X221626491Y-52367619D01*
X221173272Y-52670451D01*
X220891100Y-53092750D01*
X220608928Y-52670451D01*
X220155709Y-52367619D01*
X219621100Y-52261279D01*
X219086491Y-52367619D01*
X218633272Y-52670451D01*
X218351100Y-53092750D01*
X218068928Y-52670451D01*
X217615709Y-52367619D01*
X217081100Y-52261279D01*
X216546491Y-52367619D01*
X216093272Y-52670451D01*
X215790440Y-53123670D01*
X215684100Y-53658279D01*
X215684100Y-54748921D01*
X215790440Y-55283530D01*
X216093272Y-55736749D01*
X216546491Y-56039581D01*
X217081100Y-56145921D01*
X217615709Y-56039581D01*
X218068928Y-55736749D01*
X218351100Y-55314450D01*
X218633272Y-55736749D01*
X219086491Y-56039581D01*
X219530599Y-56127919D01*
X219286129Y-56228932D01*
X218853949Y-56660357D01*
X218619767Y-57224330D01*
X218619235Y-57834991D01*
X218775000Y-58211971D01*
X218775000Y-92080783D01*
X218650330Y-92164085D01*
X218440000Y-92478866D01*
X218229670Y-92164085D01*
X217743489Y-91839229D01*
X217170000Y-91725155D01*
X216596511Y-91839229D01*
X216110330Y-92164085D01*
X215903539Y-92473569D01*
X215532036Y-92057768D01*
X215004791Y-91803791D01*
X214989026Y-91801142D01*
X214757000Y-91922283D01*
X214503000Y-91922283D01*
X214270974Y-91801142D01*
X214255209Y-91803791D01*
X213727964Y-92057768D01*
X213356461Y-92473569D01*
X213149670Y-92164085D01*
X212663489Y-91839229D01*
X212090000Y-91725155D01*
X211516511Y-91839229D01*
X211030330Y-92164085D01*
X211020757Y-92178413D01*
X211016762Y-92157183D01*
X210877690Y-91941059D01*
X210665490Y-91796069D01*
X210413600Y-91745060D01*
X209314916Y-91745060D01*
X206962178Y-89392322D01*
X206634510Y-89173382D01*
X206248000Y-89096500D01*
X189738000Y-89096500D01*
X189351489Y-89173382D01*
X189023822Y-89392322D01*
X186825822Y-91590322D01*
X186606882Y-91917990D01*
X186548835Y-92209812D01*
X186480330Y-92255585D01*
X186465500Y-92277780D01*
X186401927Y-92124302D01*
X186223299Y-91945673D01*
X185989910Y-91849000D01*
X185285750Y-91849000D01*
X185127000Y-92007750D01*
X184873000Y-92007750D01*
X184714250Y-91849000D01*
X184010090Y-91849000D01*
X183776701Y-91945673D01*
X183598073Y-92124302D01*
X183501400Y-92357691D01*
X173418500Y-92357691D01*
X173418500Y-58977991D01*
X183376735Y-58977991D01*
X183609932Y-59542371D01*
X184041357Y-59974551D01*
X184065000Y-59984368D01*
X184065000Y-61349995D01*
X183901083Y-61380838D01*
X183684959Y-61519910D01*
X183539969Y-61732110D01*
X183488960Y-61984000D01*
X183488960Y-64016000D01*
X183533238Y-64251317D01*
X183672310Y-64467441D01*
X183884510Y-64612431D01*
X184136400Y-64663440D01*
X185863600Y-64663440D01*
X186098917Y-64619162D01*
X186315041Y-64480090D01*
X186460031Y-64267890D01*
X186468400Y-64226561D01*
X186480330Y-64244415D01*
X186966511Y-64569271D01*
X187540000Y-64683345D01*
X188113489Y-64569271D01*
X188599670Y-64244415D01*
X188810000Y-63929634D01*
X189020330Y-64244415D01*
X189506511Y-64569271D01*
X190080000Y-64683345D01*
X190653489Y-64569271D01*
X191139670Y-64244415D01*
X191350000Y-63929634D01*
X191560330Y-64244415D01*
X191685000Y-64327717D01*
X191685000Y-72478000D01*
X191756173Y-72835809D01*
X191958855Y-73139145D01*
X195315185Y-76495475D01*
X195314735Y-77011991D01*
X195547932Y-77576371D01*
X195979357Y-78008551D01*
X196543330Y-78242733D01*
X197153991Y-78243265D01*
X197718371Y-78010068D01*
X198150551Y-77578643D01*
X198384733Y-77014670D01*
X198385265Y-76404009D01*
X198152068Y-75839629D01*
X197720643Y-75407449D01*
X197156670Y-75173267D01*
X196637104Y-75172814D01*
X193555000Y-72090710D01*
X193555000Y-64327717D01*
X193679670Y-64244415D01*
X193890000Y-63929634D01*
X194100330Y-64244415D01*
X194225000Y-64327717D01*
X194225000Y-69364485D01*
X194045267Y-69797330D01*
X194044735Y-70407991D01*
X194277932Y-70972371D01*
X194709357Y-71404551D01*
X195273330Y-71638733D01*
X195883991Y-71639265D01*
X196448371Y-71406068D01*
X196765000Y-71089992D01*
X196765000Y-71462000D01*
X196836173Y-71819809D01*
X197038855Y-72123145D01*
X199125185Y-74209475D01*
X199124735Y-74725991D01*
X199357932Y-75290371D01*
X199789357Y-75722551D01*
X200353330Y-75956733D01*
X200963991Y-75957265D01*
X201528371Y-75724068D01*
X201960551Y-75292643D01*
X202165005Y-74800261D01*
X210603858Y-74800261D01*
X210816090Y-75313903D01*
X211208730Y-75707229D01*
X211416612Y-75793549D01*
X211210797Y-75878590D01*
X210817471Y-76271230D01*
X210604343Y-76784500D01*
X210603858Y-77340261D01*
X210816090Y-77853903D01*
X211208730Y-78247229D01*
X211416612Y-78333549D01*
X211210797Y-78418590D01*
X210817471Y-78811230D01*
X210604343Y-79324500D01*
X210603858Y-79880261D01*
X210816090Y-80393903D01*
X211208730Y-80787229D01*
X211722000Y-81000357D01*
X212277761Y-81000842D01*
X212791403Y-80788610D01*
X213184729Y-80395970D01*
X213271049Y-80188088D01*
X213356090Y-80393903D01*
X213748730Y-80787229D01*
X214262000Y-81000357D01*
X214817761Y-81000842D01*
X215331403Y-80788610D01*
X215724729Y-80395970D01*
X215937857Y-79882700D01*
X215938342Y-79326939D01*
X215726110Y-78813297D01*
X215333470Y-78419971D01*
X215125588Y-78333651D01*
X215331403Y-78248610D01*
X215724729Y-77855970D01*
X215937857Y-77342700D01*
X215938342Y-76786939D01*
X215726110Y-76273297D01*
X215333470Y-75879971D01*
X215125588Y-75793651D01*
X215331403Y-75708610D01*
X215724729Y-75315970D01*
X215937857Y-74802700D01*
X215938342Y-74246939D01*
X215726110Y-73733297D01*
X215333470Y-73339971D01*
X214820200Y-73126843D01*
X214264439Y-73126358D01*
X213750797Y-73338590D01*
X213357471Y-73731230D01*
X213271151Y-73939112D01*
X213186110Y-73733297D01*
X212793470Y-73339971D01*
X212280200Y-73126843D01*
X211724439Y-73126358D01*
X211210797Y-73338590D01*
X210817471Y-73731230D01*
X210604343Y-74244500D01*
X210603858Y-74800261D01*
X202165005Y-74800261D01*
X202194733Y-74728670D01*
X202195265Y-74118009D01*
X201962068Y-73553629D01*
X201530643Y-73121449D01*
X200966670Y-72887267D01*
X200447104Y-72886814D01*
X198635000Y-71074710D01*
X198635000Y-64327717D01*
X198759670Y-64244415D01*
X198966461Y-63934931D01*
X199337964Y-64350732D01*
X199865209Y-64604709D01*
X199880974Y-64607358D01*
X200113000Y-64486217D01*
X200113000Y-63127000D01*
X200367000Y-63127000D01*
X200367000Y-64486217D01*
X200599026Y-64607358D01*
X200614791Y-64604709D01*
X201142036Y-64350732D01*
X201531954Y-63914320D01*
X201725184Y-63361913D01*
X201580924Y-63127000D01*
X200367000Y-63127000D01*
X200113000Y-63127000D01*
X200093000Y-63127000D01*
X200093000Y-62873000D01*
X200113000Y-62873000D01*
X200113000Y-61513783D01*
X200367000Y-61513783D01*
X200367000Y-62873000D01*
X201580924Y-62873000D01*
X201725184Y-62638087D01*
X201531954Y-62085680D01*
X201142036Y-61649268D01*
X200614791Y-61395291D01*
X200599026Y-61392642D01*
X200367000Y-61513783D01*
X200113000Y-61513783D01*
X199880974Y-61392642D01*
X199865209Y-61395291D01*
X199337964Y-61649268D01*
X198966461Y-62065069D01*
X198759670Y-61755585D01*
X198273489Y-61430729D01*
X197700000Y-61316655D01*
X197126511Y-61430729D01*
X196640330Y-61755585D01*
X196430000Y-62070366D01*
X196219670Y-61755585D01*
X195733489Y-61430729D01*
X195160000Y-61316655D01*
X194586511Y-61430729D01*
X194100330Y-61755585D01*
X193890000Y-62070366D01*
X193679670Y-61755585D01*
X193193489Y-61430729D01*
X192620000Y-61316655D01*
X192046511Y-61430729D01*
X191560330Y-61755585D01*
X191350000Y-62070366D01*
X191139670Y-61755585D01*
X191015000Y-61672283D01*
X191015000Y-61259290D01*
X192573475Y-59700815D01*
X193089991Y-59701265D01*
X193654371Y-59468068D01*
X194086551Y-59036643D01*
X194320733Y-58472670D01*
X194321265Y-57862009D01*
X194088068Y-57297629D01*
X193656643Y-56865449D01*
X193092670Y-56631267D01*
X192482009Y-56630735D01*
X191917629Y-56863932D01*
X191485449Y-57295357D01*
X191251267Y-57859330D01*
X191250814Y-58378896D01*
X189495055Y-60134655D01*
X189495265Y-59894009D01*
X189262068Y-59329629D01*
X188830643Y-58897449D01*
X188266670Y-58663267D01*
X187656009Y-58662735D01*
X187091629Y-58895932D01*
X186659449Y-59327357D01*
X186425267Y-59891330D01*
X186424735Y-60501991D01*
X186605000Y-60938266D01*
X186605000Y-61672283D01*
X186480330Y-61755585D01*
X186470757Y-61769913D01*
X186466762Y-61748683D01*
X186327690Y-61532559D01*
X186115490Y-61387569D01*
X185935000Y-61351019D01*
X185935000Y-59821709D01*
X186212551Y-59544643D01*
X186446733Y-58980670D01*
X186447265Y-58370009D01*
X186214068Y-57805629D01*
X185782643Y-57373449D01*
X185218670Y-57139267D01*
X184608009Y-57138735D01*
X184043629Y-57371932D01*
X183611449Y-57803357D01*
X183377267Y-58367330D01*
X183376735Y-58977991D01*
X173418500Y-58977991D01*
X173418500Y-54330600D01*
X173520100Y-54330600D01*
X173520100Y-54838600D01*
X173675041Y-55363541D01*
X174019074Y-55789230D01*
X174499823Y-56050860D01*
X174574030Y-56065820D01*
X174790100Y-55943320D01*
X174790100Y-54330600D01*
X173520100Y-54330600D01*
X173418500Y-54330600D01*
X173418500Y-53568600D01*
X173520100Y-53568600D01*
X173520100Y-54076600D01*
X174790100Y-54076600D01*
X174790100Y-52463880D01*
X175044100Y-52463880D01*
X175044100Y-54076600D01*
X175064100Y-54076600D01*
X175064100Y-54330600D01*
X175044100Y-54330600D01*
X175044100Y-55943320D01*
X175260170Y-56065820D01*
X175334377Y-56050860D01*
X175815126Y-55789230D01*
X176159159Y-55363541D01*
X176177770Y-55300487D01*
X176469272Y-55736749D01*
X176922491Y-56039581D01*
X177457100Y-56145921D01*
X177991709Y-56039581D01*
X178444928Y-55736749D01*
X178727100Y-55314450D01*
X179009272Y-55736749D01*
X179462491Y-56039581D01*
X179997100Y-56145921D01*
X180531709Y-56039581D01*
X180984928Y-55736749D01*
X181267100Y-55314450D01*
X181549272Y-55736749D01*
X182002491Y-56039581D01*
X182537100Y-56145921D01*
X183071709Y-56039581D01*
X183524928Y-55736749D01*
X183807100Y-55314450D01*
X184089272Y-55736749D01*
X184542491Y-56039581D01*
X185077100Y-56145921D01*
X185611709Y-56039581D01*
X186064928Y-55736749D01*
X186347100Y-55314450D01*
X186629272Y-55736749D01*
X187082491Y-56039581D01*
X187617100Y-56145921D01*
X188151709Y-56039581D01*
X188604928Y-55736749D01*
X188887100Y-55314450D01*
X189169272Y-55736749D01*
X189622491Y-56039581D01*
X190157100Y-56145921D01*
X190691709Y-56039581D01*
X191144928Y-55736749D01*
X191447760Y-55283530D01*
X191554100Y-54748921D01*
X191554100Y-53658279D01*
X192824100Y-53658279D01*
X192824100Y-54748921D01*
X192930440Y-55283530D01*
X193233272Y-55736749D01*
X193686491Y-56039581D01*
X194221100Y-56145921D01*
X194755709Y-56039581D01*
X195208928Y-55736749D01*
X195491100Y-55314450D01*
X195773272Y-55736749D01*
X196226491Y-56039581D01*
X196761100Y-56145921D01*
X197295709Y-56039581D01*
X197748928Y-55736749D01*
X198031100Y-55314450D01*
X198313272Y-55736749D01*
X198766491Y-56039581D01*
X199301100Y-56145921D01*
X199835709Y-56039581D01*
X200288928Y-55736749D01*
X200571100Y-55314450D01*
X200853272Y-55736749D01*
X201306491Y-56039581D01*
X201841100Y-56145921D01*
X202375709Y-56039581D01*
X202828928Y-55736749D01*
X203111100Y-55314450D01*
X203393272Y-55736749D01*
X203846491Y-56039581D01*
X204381100Y-56145921D01*
X204915709Y-56039581D01*
X205368928Y-55736749D01*
X205651100Y-55314450D01*
X205933272Y-55736749D01*
X206386491Y-56039581D01*
X206921100Y-56145921D01*
X207455709Y-56039581D01*
X207908928Y-55736749D01*
X208191100Y-55314450D01*
X208473272Y-55736749D01*
X208926491Y-56039581D01*
X209461100Y-56145921D01*
X209995709Y-56039581D01*
X210448928Y-55736749D01*
X210731100Y-55314450D01*
X211013272Y-55736749D01*
X211466491Y-56039581D01*
X212001100Y-56145921D01*
X212535709Y-56039581D01*
X212988928Y-55736749D01*
X213291760Y-55283530D01*
X213398100Y-54748921D01*
X213398100Y-53658279D01*
X213291760Y-53123670D01*
X212988928Y-52670451D01*
X212535709Y-52367619D01*
X212001100Y-52261279D01*
X211466491Y-52367619D01*
X211013272Y-52670451D01*
X210731100Y-53092750D01*
X210448928Y-52670451D01*
X209995709Y-52367619D01*
X209461100Y-52261279D01*
X208926491Y-52367619D01*
X208473272Y-52670451D01*
X208191100Y-53092750D01*
X207908928Y-52670451D01*
X207455709Y-52367619D01*
X206921100Y-52261279D01*
X206386491Y-52367619D01*
X205933272Y-52670451D01*
X205651100Y-53092750D01*
X205368928Y-52670451D01*
X204915709Y-52367619D01*
X204381100Y-52261279D01*
X203846491Y-52367619D01*
X203393272Y-52670451D01*
X203111100Y-53092750D01*
X202828928Y-52670451D01*
X202375709Y-52367619D01*
X201841100Y-52261279D01*
X201306491Y-52367619D01*
X200853272Y-52670451D01*
X200571100Y-53092750D01*
X200288928Y-52670451D01*
X199835709Y-52367619D01*
X199301100Y-52261279D01*
X198766491Y-52367619D01*
X198313272Y-52670451D01*
X198031100Y-53092750D01*
X197748928Y-52670451D01*
X197295709Y-52367619D01*
X196761100Y-52261279D01*
X196226491Y-52367619D01*
X195773272Y-52670451D01*
X195491100Y-53092750D01*
X195208928Y-52670451D01*
X194755709Y-52367619D01*
X194221100Y-52261279D01*
X193686491Y-52367619D01*
X193233272Y-52670451D01*
X192930440Y-53123670D01*
X192824100Y-53658279D01*
X191554100Y-53658279D01*
X191447760Y-53123670D01*
X191144928Y-52670451D01*
X190691709Y-52367619D01*
X190157100Y-52261279D01*
X189622491Y-52367619D01*
X189169272Y-52670451D01*
X188887100Y-53092750D01*
X188604928Y-52670451D01*
X188151709Y-52367619D01*
X187617100Y-52261279D01*
X187082491Y-52367619D01*
X186629272Y-52670451D01*
X186347100Y-53092750D01*
X186064928Y-52670451D01*
X185611709Y-52367619D01*
X185077100Y-52261279D01*
X184542491Y-52367619D01*
X184089272Y-52670451D01*
X183807100Y-53092750D01*
X183524928Y-52670451D01*
X183071709Y-52367619D01*
X182537100Y-52261279D01*
X182002491Y-52367619D01*
X181549272Y-52670451D01*
X181267100Y-53092750D01*
X180984928Y-52670451D01*
X180531709Y-52367619D01*
X179997100Y-52261279D01*
X179462491Y-52367619D01*
X179009272Y-52670451D01*
X178727100Y-53092750D01*
X178444928Y-52670451D01*
X177991709Y-52367619D01*
X177457100Y-52261279D01*
X176922491Y-52367619D01*
X176469272Y-52670451D01*
X176177770Y-53106713D01*
X176159159Y-53043659D01*
X175815126Y-52617970D01*
X175334377Y-52356340D01*
X175260170Y-52341380D01*
X175044100Y-52463880D01*
X174790100Y-52463880D01*
X174574030Y-52341380D01*
X174499823Y-52356340D01*
X174019074Y-52617970D01*
X173675041Y-53043659D01*
X173520100Y-53568600D01*
X173418500Y-53568600D01*
X173418500Y-53011606D01*
X174487106Y-51943000D01*
X226070894Y-51943000D01*
X229298500Y-55170606D01*
M02*
