G04 #@! TF.FileFunction,Legend,Top*
%FSLAX46Y46*%
G04 Gerber Fmt 4.6, Leading zero omitted, Abs format (unit mm)*
G04 Created by KiCad (PCBNEW 4.0.2+e4-6225~38~ubuntu15.10.1-stable) date mar 10 may 2016 19:22:59 CLST*
%MOMM*%
G01*
G04 APERTURE LIST*
%ADD10C,0.100000*%
%ADD11C,0.150000*%
%ADD12C,0.304800*%
G04 APERTURE END LIST*
D10*
D11*
X186270000Y-92230000D02*
X201510000Y-92230000D01*
X201510000Y-92230000D02*
X201510000Y-94770000D01*
X201510000Y-94770000D02*
X186270000Y-94770000D01*
X183450000Y-91950000D02*
X185000000Y-91950000D01*
X186270000Y-92230000D02*
X186270000Y-94770000D01*
X185000000Y-95050000D02*
X183450000Y-95050000D01*
X183450000Y-95050000D02*
X183450000Y-91950000D01*
X186270000Y-61730000D02*
X201510000Y-61730000D01*
X201510000Y-61730000D02*
X201510000Y-64270000D01*
X201510000Y-64270000D02*
X186270000Y-64270000D01*
X183450000Y-61450000D02*
X185000000Y-61450000D01*
X186270000Y-61730000D02*
X186270000Y-64270000D01*
X185000000Y-64550000D02*
X183450000Y-64550000D01*
X183450000Y-64550000D02*
X183450000Y-61450000D01*
X210820000Y-92138500D02*
X228600000Y-92138500D01*
X228600000Y-92138500D02*
X228600000Y-94678500D01*
X228600000Y-94678500D02*
X210820000Y-94678500D01*
X208000000Y-91858500D02*
X209550000Y-91858500D01*
X210820000Y-92138500D02*
X210820000Y-94678500D01*
X209550000Y-94958500D02*
X208000000Y-94958500D01*
X208000000Y-94958500D02*
X208000000Y-91858500D01*
D12*
X147412528Y-48397886D02*
X147339957Y-48470457D01*
X147122243Y-48543029D01*
X146977100Y-48543029D01*
X146759385Y-48470457D01*
X146614243Y-48325314D01*
X146541671Y-48180171D01*
X146469100Y-47889886D01*
X146469100Y-47672171D01*
X146541671Y-47381886D01*
X146614243Y-47236743D01*
X146759385Y-47091600D01*
X146977100Y-47019029D01*
X147122243Y-47019029D01*
X147339957Y-47091600D01*
X147412528Y-47164171D01*
X148283385Y-48543029D02*
X148138243Y-48470457D01*
X148065671Y-48397886D01*
X147993100Y-48252743D01*
X147993100Y-47817314D01*
X148065671Y-47672171D01*
X148138243Y-47599600D01*
X148283385Y-47527029D01*
X148501100Y-47527029D01*
X148646243Y-47599600D01*
X148718814Y-47672171D01*
X148791385Y-47817314D01*
X148791385Y-48252743D01*
X148718814Y-48397886D01*
X148646243Y-48470457D01*
X148501100Y-48543029D01*
X148283385Y-48543029D01*
X149444528Y-48543029D02*
X149444528Y-47527029D01*
X149444528Y-47672171D02*
X149517100Y-47599600D01*
X149662242Y-47527029D01*
X149879957Y-47527029D01*
X150025100Y-47599600D01*
X150097671Y-47744743D01*
X150097671Y-48543029D01*
X150097671Y-47744743D02*
X150170242Y-47599600D01*
X150315385Y-47527029D01*
X150533100Y-47527029D01*
X150678242Y-47599600D01*
X150750814Y-47744743D01*
X150750814Y-48543029D01*
X151476528Y-48543029D02*
X151476528Y-47527029D01*
X151476528Y-47672171D02*
X151549100Y-47599600D01*
X151694242Y-47527029D01*
X151911957Y-47527029D01*
X152057100Y-47599600D01*
X152129671Y-47744743D01*
X152129671Y-48543029D01*
X152129671Y-47744743D02*
X152202242Y-47599600D01*
X152347385Y-47527029D01*
X152565100Y-47527029D01*
X152710242Y-47599600D01*
X152782814Y-47744743D01*
X152782814Y-48543029D01*
X153435957Y-48470457D02*
X153653671Y-48543029D01*
X154016528Y-48543029D01*
X154161671Y-48470457D01*
X154234242Y-48397886D01*
X154306814Y-48252743D01*
X154306814Y-48107600D01*
X154234242Y-47962457D01*
X154161671Y-47889886D01*
X154016528Y-47817314D01*
X153726242Y-47744743D01*
X153581100Y-47672171D01*
X153508528Y-47599600D01*
X153435957Y-47454457D01*
X153435957Y-47309314D01*
X153508528Y-47164171D01*
X153581100Y-47091600D01*
X153726242Y-47019029D01*
X154089100Y-47019029D01*
X154306814Y-47091600D01*
X155540529Y-48470457D02*
X155395386Y-48543029D01*
X155105100Y-48543029D01*
X154959957Y-48470457D01*
X154887386Y-48325314D01*
X154887386Y-47744743D01*
X154959957Y-47599600D01*
X155105100Y-47527029D01*
X155395386Y-47527029D01*
X155540529Y-47599600D01*
X155613100Y-47744743D01*
X155613100Y-47889886D01*
X154887386Y-48035029D01*
X156266243Y-47527029D02*
X156266243Y-48543029D01*
X156266243Y-47672171D02*
X156338815Y-47599600D01*
X156483957Y-47527029D01*
X156701672Y-47527029D01*
X156846815Y-47599600D01*
X156919386Y-47744743D01*
X156919386Y-48543029D01*
X157572529Y-48470457D02*
X157717672Y-48543029D01*
X158007957Y-48543029D01*
X158153100Y-48470457D01*
X158225672Y-48325314D01*
X158225672Y-48252743D01*
X158153100Y-48107600D01*
X158007957Y-48035029D01*
X157790243Y-48035029D01*
X157645100Y-47962457D01*
X157572529Y-47817314D01*
X157572529Y-47744743D01*
X157645100Y-47599600D01*
X157790243Y-47527029D01*
X158007957Y-47527029D01*
X158153100Y-47599600D01*
X159096528Y-48543029D02*
X158951386Y-48470457D01*
X158878814Y-48397886D01*
X158806243Y-48252743D01*
X158806243Y-47817314D01*
X158878814Y-47672171D01*
X158951386Y-47599600D01*
X159096528Y-47527029D01*
X159314243Y-47527029D01*
X159459386Y-47599600D01*
X159531957Y-47672171D01*
X159604528Y-47817314D01*
X159604528Y-48252743D01*
X159531957Y-48397886D01*
X159459386Y-48470457D01*
X159314243Y-48543029D01*
X159096528Y-48543029D01*
X160257671Y-48543029D02*
X160257671Y-47527029D01*
X160257671Y-47817314D02*
X160330243Y-47672171D01*
X160402814Y-47599600D01*
X160547957Y-47527029D01*
X160693100Y-47527029D01*
X161128529Y-48470457D02*
X161273672Y-48543029D01*
X161563957Y-48543029D01*
X161709100Y-48470457D01*
X161781672Y-48325314D01*
X161781672Y-48252743D01*
X161709100Y-48107600D01*
X161563957Y-48035029D01*
X161346243Y-48035029D01*
X161201100Y-47962457D01*
X161128529Y-47817314D01*
X161128529Y-47744743D01*
X161201100Y-47599600D01*
X161346243Y-47527029D01*
X161563957Y-47527029D01*
X161709100Y-47599600D01*
X163233100Y-48543029D02*
X162362243Y-48543029D01*
X162797671Y-48543029D02*
X162797671Y-47019029D01*
X162652528Y-47236743D01*
X162507386Y-47381886D01*
X162362243Y-47454457D01*
D11*
X180352381Y-95214286D02*
X179352381Y-95214286D01*
X179685714Y-94738096D02*
X180352381Y-94738096D01*
X179780952Y-94738096D02*
X179733333Y-94690477D01*
X179685714Y-94595239D01*
X179685714Y-94452381D01*
X179733333Y-94357143D01*
X179828571Y-94309524D01*
X180352381Y-94309524D01*
X180447619Y-94071429D02*
X180447619Y-93309524D01*
X180352381Y-92595238D02*
X180352381Y-93071429D01*
X179352381Y-93071429D01*
X180352381Y-91738095D02*
X180352381Y-92309524D01*
X180352381Y-92023810D02*
X179352381Y-92023810D01*
X179495238Y-92119048D01*
X179590476Y-92214286D01*
X179638095Y-92309524D01*
X180352381Y-64809524D02*
X179352381Y-64809524D01*
X179685714Y-64333334D02*
X180352381Y-64333334D01*
X179780952Y-64333334D02*
X179733333Y-64285715D01*
X179685714Y-64190477D01*
X179685714Y-64047619D01*
X179733333Y-63952381D01*
X179828571Y-63904762D01*
X180352381Y-63904762D01*
X180447619Y-63666667D02*
X180447619Y-62904762D01*
X180352381Y-62095238D02*
X179876190Y-62428572D01*
X180352381Y-62666667D02*
X179352381Y-62666667D01*
X179352381Y-62285714D01*
X179400000Y-62190476D01*
X179447619Y-62142857D01*
X179542857Y-62095238D01*
X179685714Y-62095238D01*
X179780952Y-62142857D01*
X179828571Y-62190476D01*
X179876190Y-62285714D01*
X179876190Y-62666667D01*
X180352381Y-61142857D02*
X180352381Y-61714286D01*
X180352381Y-61428572D02*
X179352381Y-61428572D01*
X179495238Y-61523810D01*
X179590476Y-61619048D01*
X179638095Y-61714286D01*
X203950000Y-94598976D02*
X203902381Y-94694214D01*
X203902381Y-94837071D01*
X203950000Y-94979929D01*
X204045238Y-95075167D01*
X204140476Y-95122786D01*
X204330952Y-95170405D01*
X204473810Y-95170405D01*
X204664286Y-95122786D01*
X204759524Y-95075167D01*
X204854762Y-94979929D01*
X204902381Y-94837071D01*
X204902381Y-94741833D01*
X204854762Y-94598976D01*
X204807143Y-94551357D01*
X204473810Y-94551357D01*
X204473810Y-94741833D01*
X204902381Y-94122786D02*
X203902381Y-94122786D01*
X203902381Y-93741833D01*
X203950000Y-93646595D01*
X203997619Y-93598976D01*
X204092857Y-93551357D01*
X204235714Y-93551357D01*
X204330952Y-93598976D01*
X204378571Y-93646595D01*
X204426190Y-93741833D01*
X204426190Y-94122786D01*
X204854762Y-93170405D02*
X204902381Y-93027548D01*
X204902381Y-92789452D01*
X204854762Y-92694214D01*
X204807143Y-92646595D01*
X204711905Y-92598976D01*
X204616667Y-92598976D01*
X204521429Y-92646595D01*
X204473810Y-92694214D01*
X204426190Y-92789452D01*
X204378571Y-92979929D01*
X204330952Y-93075167D01*
X204283333Y-93122786D01*
X204188095Y-93170405D01*
X204092857Y-93170405D01*
X203997619Y-93122786D01*
X203950000Y-93075167D01*
X203902381Y-92979929D01*
X203902381Y-92741833D01*
X203950000Y-92598976D01*
X204902381Y-91646595D02*
X204902381Y-92218024D01*
X204902381Y-91932310D02*
X203902381Y-91932310D01*
X204045238Y-92027548D01*
X204140476Y-92122786D01*
X204188095Y-92218024D01*
M02*
